{"glyphs":{"0":{"ha":740,"x_min":53,"x_max":688,"o":"m 351 -17 q 195 26 263 -17 q 90 147 128 69 q 53 326 53 224 q 97 519 53 435 q 217 653 140 604 q 390 701 293 701 q 545 659 478 701 q 650 541 613 617 q 688 365 688 465 q 644 169 688 256 q 524 33 600 82 q 351 -17 449 -17 m 376 89 q 545 155 481 89 q 610 326 610 221 q 578 463 610 404 q 490 556 546 522 q 361 589 435 589 q 194 523 257 589 q 131 347 131 457 q 162 213 131 271 q 249 122 193 154 q 376 89 304 89 z "},"1":{"ha":475,"x_min":49,"x_max":440,"o":"m 68 -17 l 76 47 q 155 65 128 51 q 192 112 182 79 q 201 206 201 144 l 201 522 q 182 588 201 575 q 126 601 163 601 q 78 597 104 601 q 53 593 53 593 l 49 597 l 54 656 q 78 658 54 656 q 137 666 101 661 q 207 676 172 671 q 305 693 276 688 q 340 700 333 699 q 347 701 346 701 l 356 678 q 318 633 329 656 q 304 561 307 610 q 299 407 301 488 q 297 259 297 326 q 296 156 296 192 q 310 81 296 100 q 364 61 324 61 q 413 63 389 61 q 438 65 438 65 l 440 60 l 428 -4 q 409 -3 428 -4 q 361 -2 390 -3 q 300 -1 332 -1 q 243 0 268 0 q 186 -3 217 0 q 129 -8 156 -6 q 85 -14 103 -11 q 68 -17 68 -17 z "},"2":{"ha":660,"x_min":38,"x_max":629,"o":"m 38 8 l 147 131 q 275 289 225 219 q 349 411 325 358 q 374 503 374 464 q 346 581 374 553 q 269 608 318 608 q 176 575 222 608 q 99 485 131 542 l 86 485 l 71 547 q 133 626 94 592 q 216 681 171 661 q 306 701 261 701 q 444 656 392 701 q 496 535 496 610 q 469 440 496 493 q 378 304 442 386 q 200 94 314 222 l 206 85 l 418 85 q 498 94 469 85 q 543 131 526 104 q 574 211 560 158 l 629 218 q 624 199 629 218 q 613 147 619 179 q 600 76 607 115 q 589 0 593 38 l 572 -10 q 538 -9 572 -10 q 450 -6 504 -8 q 335 -3 396 -4 q 218 -1 274 -1 q 126 0 163 0 l 51 -17 l 38 8 z "},"3":{"ha":578,"x_min":32,"x_max":500,"o":"m 121 -146 q 53 -122 74 -146 q 32 -44 33 -99 l 39 -36 q 150 -49 97 -49 q 275 -24 219 -49 q 363 42 331 0 q 396 136 396 83 q 335 241 396 207 q 147 276 275 275 l 140 283 l 133 332 l 224 354 q 315 426 279 381 q 350 517 350 471 q 319 588 350 561 q 242 614 288 614 q 159 594 203 614 q 83 543 115 575 q 76 543 81 543 q 69 543 72 543 l 56 601 q 76 617 56 601 q 131 651 97 632 q 206 686 165 671 q 285 701 246 701 q 416 659 367 701 q 465 546 465 617 q 424 438 465 490 q 313 349 382 385 l 313 342 q 453 276 407 319 q 500 169 500 233 q 467 58 500 114 q 377 -44 433 3 q 254 -118 321 -90 q 121 -146 188 -146 z "},"4":{"ha":629,"x_min":18,"x_max":594,"o":"m 361 -146 l 353 -133 q 354 -110 353 -133 q 357 -48 356 -86 q 360 34 358 -10 q 361 118 361 78 q 190 122 281 121 q 18 124 100 124 q 21 149 19 136 q 24 175 22 163 l 407 700 q 410 701 408 700 q 413 701 411 701 l 457 688 l 457 199 l 586 199 l 594 188 l 583 111 q 549 113 583 111 q 457 115 514 114 q 460 6 458 60 q 465 -84 463 -49 q 467 -119 467 -119 l 460 -129 l 361 -146 m 125 199 l 361 199 l 361 510 l 349 510 l 125 199 z "},"5":{"ha":597,"x_min":22,"x_max":528,"o":"m 110 -146 q 48 -126 71 -146 q 22 -44 25 -106 l 29 -36 q 87 -45 58 -42 q 142 -49 115 -49 q 274 -25 215 -49 q 366 40 332 -1 q 400 136 400 82 q 373 214 400 182 q 283 269 346 246 q 110 311 219 293 l 97 326 q 107 448 103 388 q 115 558 111 508 q 119 636 118 607 q 121 665 121 665 l 132 676 l 394 688 q 453 701 435 690 q 482 742 471 711 l 528 747 l 494 583 l 486 575 q 444 578 486 575 q 332 583 401 581 q 182 586 263 586 l 172 411 q 341 361 265 390 q 461 288 417 332 q 506 178 506 244 q 468 56 506 114 q 370 -47 431 -1 q 241 -119 310 -93 q 110 -146 172 -146 z "},"6":{"ha":642,"x_min":69,"x_max":596,"o":"m 319 -17 q 190 20 246 -17 q 101 123 133 57 q 69 274 69 189 q 101 449 69 365 q 192 606 132 533 q 337 735 251 678 q 531 831 422 792 l 540 824 l 556 782 q 278 576 376 706 q 181 282 181 446 q 226 113 181 175 q 347 50 271 50 q 454 95 415 50 q 493 217 493 140 q 470 307 493 267 q 410 372 447 347 q 325 396 372 396 q 245 378 289 396 q 172 335 201 361 l 182 415 l 201 406 q 296 458 254 439 q 356 478 338 478 q 478 448 424 478 q 564 367 532 418 q 596 250 596 315 q 560 114 596 174 q 461 19 524 54 q 319 -17 399 -17 z "},"7":{"ha":583,"x_min":53,"x_max":581,"o":"m 225 -146 l 142 -121 l 128 -90 l 475 590 l 235 581 q 163 567 188 579 q 128 528 139 556 q 107 451 117 501 l 53 443 q 56 465 53 443 q 63 524 58 488 q 72 602 68 560 q 79 683 76 644 l 88 690 q 112 689 88 690 q 175 686 136 688 q 257 685 214 685 l 550 685 l 581 646 q 472 422 521 525 q 385 235 424 319 q 319 85 347 151 q 269 -26 290 19 l 235 -146 l 225 -146 z "},"8":{"ha":674,"x_min":78,"x_max":599,"o":"m 315 -17 q 199 5 253 -17 q 111 69 144 26 q 78 172 78 111 q 110 283 78 238 q 184 358 142 329 q 257 401 226 388 q 149 481 196 435 q 103 604 103 528 q 135 715 103 663 q 223 799 167 767 q 353 831 279 831 q 456 810 407 831 q 538 749 506 790 q 569 644 569 707 q 547 552 569 592 q 493 485 525 513 q 432 443 461 458 q 514 390 476 419 q 575 323 551 361 q 599 231 599 285 q 561 106 599 163 q 460 17 524 50 q 315 -17 396 -17 m 349 43 q 456 85 410 43 q 503 190 503 126 q 474 270 503 238 q 401 327 446 303 q 306 376 356 351 q 253 347 283 367 q 201 292 224 326 q 179 206 179 258 q 201 126 179 164 q 261 66 222 89 q 349 43 300 43 m 382 468 q 438 519 410 485 q 465 615 465 554 q 426 728 465 689 q 329 767 386 767 q 235 730 269 767 q 200 646 200 693 q 226 572 200 603 q 294 517 253 542 q 382 468 336 493 z "},"9":{"ha":632,"x_min":49,"x_max":575,"o":"m 114 -146 l 104 -139 l 89 -97 q 366 109 268 -21 q 464 403 464 239 q 419 572 464 510 q 297 635 375 635 q 190 590 229 635 q 151 468 151 546 q 174 378 151 419 q 235 313 197 338 q 319 289 274 289 q 399 306 356 289 q 472 350 443 324 l 463 269 l 443 279 q 349 226 390 246 q 289 207 307 207 q 167 237 221 207 q 81 319 113 267 q 49 435 49 371 q 85 571 49 511 q 184 666 121 631 q 325 701 247 701 q 455 665 399 701 q 543 563 511 628 q 575 411 575 497 q 544 235 575 319 q 453 79 513 151 q 308 -50 393 7 q 114 -146 222 -107 z "},"A":{"ha":811,"x_min":-21,"x_max":825,"o":"m 461 -14 l 457 -4 l 463 50 q 538 60 511 54 q 575 76 564 65 q 586 103 586 86 q 583 133 586 117 q 574 169 581 150 l 528 321 q 458 322 503 322 q 383 322 413 322 q 299 318 343 322 q 232 311 256 314 l 181 167 q 168 113 168 129 q 188 69 168 82 q 251 56 208 56 l 331 56 l 333 50 l 325 -10 q 296 -7 325 -10 q 222 -2 267 -4 q 132 0 178 0 q 63 -1 99 0 q 3 -3 28 -1 q -21 -4 -21 -4 l -10 61 q 53 88 29 65 q 99 168 76 110 l 369 878 l 457 901 l 468 901 q 477 869 468 901 q 502 778 486 836 q 540 647 518 721 q 585 489 561 572 q 636 320 610 406 q 689 157 663 235 q 734 85 706 106 q 822 58 763 64 l 825 53 l 815 -4 q 788 -3 815 -4 q 726 -1 761 -1 q 668 0 692 0 q 567 -3 615 0 q 490 -10 519 -7 q 461 -14 461 -14 m 257 379 l 379 379 q 446 382 407 379 q 508 386 485 385 l 399 750 l 389 750 l 257 379 z "},"Á":{"ha":811,"x_min":-21,"x_max":825,"o":"m 461 -14 l 457 -4 l 463 50 q 538 60 511 54 q 575 76 564 65 q 586 103 586 86 q 583 133 586 117 q 574 169 581 150 l 528 321 q 458 322 503 322 q 383 322 413 322 q 299 318 343 322 q 232 311 256 314 l 181 167 q 168 113 168 129 q 188 69 168 82 q 251 56 208 56 l 331 56 l 333 50 l 325 -10 q 296 -7 325 -10 q 222 -2 267 -4 q 132 0 178 0 q 63 -1 99 0 q 3 -3 28 -1 q -21 -4 -21 -4 l -10 61 q 53 88 29 65 q 99 168 76 110 l 369 878 l 457 901 l 468 901 q 477 869 468 901 q 502 778 486 836 q 540 647 518 721 q 585 489 561 572 q 636 320 610 406 q 689 157 663 235 q 734 85 706 106 q 822 58 763 64 l 825 53 l 815 -4 q 788 -3 815 -4 q 726 -1 761 -1 q 668 0 692 0 q 567 -3 615 0 q 490 -10 519 -7 q 461 -14 461 -14 m 257 379 l 379 379 q 446 382 407 379 q 508 386 485 385 l 399 750 l 389 750 l 257 379 m 344 976 l 333 983 l 325 1017 q 423 1069 374 1042 q 513 1118 472 1096 q 577 1154 553 1140 q 601 1168 601 1168 l 614 1160 l 636 1093 l 631 1079 q 607 1071 631 1079 q 542 1049 583 1063 q 450 1016 501 1035 q 344 976 399 997 z "},"Ă":{"ha":811,"x_min":-21,"x_max":825,"o":"m 461 -14 l 457 -4 l 463 50 q 538 60 511 54 q 575 76 564 65 q 586 103 586 86 q 583 133 586 117 q 574 169 581 150 l 528 321 q 458 322 503 322 q 383 322 413 322 q 299 318 343 322 q 232 311 256 314 l 181 167 q 168 113 168 129 q 188 69 168 82 q 251 56 208 56 l 331 56 l 333 50 l 325 -10 q 296 -7 325 -10 q 222 -2 267 -4 q 132 0 178 0 q 63 -1 99 0 q 3 -3 28 -1 q -21 -4 -21 -4 l -10 61 q 53 88 29 65 q 99 168 76 110 l 369 878 l 457 901 l 468 901 q 477 869 468 901 q 502 778 486 836 q 540 647 518 721 q 585 489 561 572 q 636 320 610 406 q 689 157 663 235 q 734 85 706 106 q 822 58 763 64 l 825 53 l 815 -4 q 788 -3 815 -4 q 726 -1 761 -1 q 668 0 692 0 q 567 -3 615 0 q 490 -10 519 -7 q 461 -14 461 -14 m 257 379 l 379 379 q 446 382 407 379 q 508 386 485 385 l 399 750 l 389 750 l 257 379 m 413 986 q 331 1006 365 986 q 276 1058 297 1026 q 246 1122 256 1089 l 268 1136 l 279 1136 q 333 1084 297 1101 q 413 1067 369 1067 q 492 1084 457 1067 q 546 1136 528 1101 l 557 1136 l 579 1122 q 549 1058 569 1089 q 494 1006 528 1026 q 413 986 461 986 z "},"Ắ":{"ha":811,"x_min":-21,"x_max":825,"o":"m 461 -14 l 457 -4 l 463 50 q 538 60 511 54 q 575 76 564 65 q 586 103 586 86 q 583 133 586 117 q 574 169 581 150 l 528 321 q 458 322 503 322 q 383 322 413 322 q 299 318 343 322 q 232 311 256 314 l 181 167 q 168 113 168 129 q 188 69 168 82 q 251 56 208 56 l 331 56 l 333 50 l 325 -10 q 296 -7 325 -10 q 222 -2 267 -4 q 132 0 178 0 q 63 -1 99 0 q 3 -3 28 -1 q -21 -4 -21 -4 l -10 61 q 53 88 29 65 q 99 168 76 110 l 369 878 l 457 901 l 468 901 q 477 869 468 901 q 502 778 486 836 q 540 647 518 721 q 585 489 561 572 q 636 320 610 406 q 689 157 663 235 q 734 85 706 106 q 822 58 763 64 l 825 53 l 815 -4 q 788 -3 815 -4 q 726 -1 761 -1 q 668 0 692 0 q 567 -3 615 0 q 490 -10 519 -7 q 461 -14 461 -14 m 257 379 l 379 379 q 446 382 407 379 q 508 386 485 385 l 399 750 l 389 750 l 257 379 m 419 956 q 338 978 372 956 q 283 1038 304 1001 q 253 1114 263 1075 l 275 1128 l 286 1128 q 340 1059 304 1082 q 419 1036 376 1036 q 499 1059 464 1036 q 553 1128 535 1082 l 564 1128 l 586 1114 q 556 1038 576 1075 q 501 978 535 1001 q 419 956 468 956 m 404 1090 l 392 1092 l 364 1115 l 478 1286 l 492 1285 l 542 1239 l 542 1224 l 404 1090 z "},"Ặ":{"ha":811,"x_min":-21,"x_max":825,"o":"m 461 -14 l 457 -4 l 463 50 q 538 60 511 54 q 575 76 564 65 q 586 103 586 86 q 583 133 586 117 q 574 169 581 150 l 528 321 q 458 322 503 322 q 383 322 413 322 q 299 318 343 322 q 232 311 256 314 l 181 167 q 168 113 168 129 q 188 69 168 82 q 251 56 208 56 l 331 56 l 333 50 l 325 -10 q 296 -7 325 -10 q 222 -2 267 -4 q 132 0 178 0 q 63 -1 99 0 q 3 -3 28 -1 q -21 -4 -21 -4 l -10 61 q 53 88 29 65 q 99 168 76 110 l 369 878 l 457 901 l 468 901 q 477 869 468 901 q 502 778 486 836 q 540 647 518 721 q 585 489 561 572 q 636 320 610 406 q 689 157 663 235 q 734 85 706 106 q 822 58 763 64 l 825 53 l 815 -4 q 788 -3 815 -4 q 726 -1 761 -1 q 668 0 692 0 q 567 -3 615 0 q 490 -10 519 -7 q 461 -14 461 -14 m 257 379 l 379 379 q 446 382 407 379 q 508 386 485 385 l 399 750 l 389 750 l 257 379 m 397 -267 q 339 -242 358 -267 q 319 -187 319 -218 q 343 -126 319 -151 q 406 -101 367 -101 q 465 -125 444 -101 q 485 -181 485 -149 q 461 -241 485 -215 q 397 -267 438 -267 m 406 972 q 324 992 358 972 q 269 1044 290 1013 q 239 1108 249 1075 l 261 1122 l 272 1122 q 326 1070 290 1088 q 406 1053 363 1053 q 485 1070 450 1053 q 539 1122 521 1088 l 550 1122 l 572 1108 q 542 1044 563 1075 q 488 992 521 1013 q 406 972 454 972 z "},"Ằ":{"ha":811,"x_min":-21,"x_max":825,"o":"m 461 -14 l 457 -4 l 463 50 q 538 60 511 54 q 575 76 564 65 q 586 103 586 86 q 583 133 586 117 q 574 169 581 150 l 528 321 q 458 322 503 322 q 383 322 413 322 q 299 318 343 322 q 232 311 256 314 l 181 167 q 168 113 168 129 q 188 69 168 82 q 251 56 208 56 l 331 56 l 333 50 l 325 -10 q 296 -7 325 -10 q 222 -2 267 -4 q 132 0 178 0 q 63 -1 99 0 q 3 -3 28 -1 q -21 -4 -21 -4 l -10 61 q 53 88 29 65 q 99 168 76 110 l 369 878 l 457 901 l 468 901 q 477 869 468 901 q 502 778 486 836 q 540 647 518 721 q 585 489 561 572 q 636 320 610 406 q 689 157 663 235 q 734 85 706 106 q 822 58 763 64 l 825 53 l 815 -4 q 788 -3 815 -4 q 726 -1 761 -1 q 668 0 692 0 q 567 -3 615 0 q 490 -10 519 -7 q 461 -14 461 -14 m 257 379 l 379 379 q 446 382 407 379 q 508 386 485 385 l 399 750 l 389 750 l 257 379 m 419 956 q 338 978 372 956 q 283 1038 304 1001 q 253 1114 263 1075 l 275 1128 l 286 1128 q 340 1059 304 1082 q 419 1036 376 1036 q 499 1059 464 1036 q 553 1128 535 1082 l 564 1128 l 586 1114 q 556 1038 576 1075 q 501 978 535 1001 q 419 956 468 956 m 436 1090 l 299 1224 l 299 1239 l 349 1285 l 363 1286 l 476 1115 l 449 1092 l 436 1090 z "},"Ẳ":{"ha":811,"x_min":-21,"x_max":825,"o":"m 461 -14 l 457 -4 l 463 50 q 538 60 511 54 q 575 76 564 65 q 586 103 586 86 q 583 133 586 117 q 574 169 581 150 l 528 321 q 458 322 503 322 q 383 322 413 322 q 299 318 343 322 q 232 311 256 314 l 181 167 q 168 113 168 129 q 188 69 168 82 q 251 56 208 56 l 331 56 l 333 50 l 325 -10 q 296 -7 325 -10 q 222 -2 267 -4 q 132 0 178 0 q 63 -1 99 0 q 3 -3 28 -1 q -21 -4 -21 -4 l -10 61 q 53 88 29 65 q 99 168 76 110 l 369 878 l 457 901 l 468 901 q 477 869 468 901 q 502 778 486 836 q 540 647 518 721 q 585 489 561 572 q 636 320 610 406 q 689 157 663 235 q 734 85 706 106 q 822 58 763 64 l 825 53 l 815 -4 q 788 -3 815 -4 q 726 -1 761 -1 q 668 0 692 0 q 567 -3 615 0 q 490 -10 519 -7 q 461 -14 461 -14 m 257 379 l 379 379 q 446 382 407 379 q 508 386 485 385 l 399 750 l 389 750 l 257 379 m 419 956 q 315 998 360 956 q 253 1114 271 1040 l 275 1128 l 286 1128 q 338 1060 303 1085 q 419 1036 372 1036 q 501 1060 465 1036 q 553 1128 536 1085 l 564 1128 l 586 1114 q 524 998 568 1040 q 419 956 479 956 m 410 1078 l 369 1147 q 420 1191 406 1174 q 435 1226 435 1208 q 422 1249 435 1242 q 390 1257 410 1257 q 356 1251 372 1257 q 328 1240 339 1246 q 318 1233 318 1233 l 304 1254 q 318 1267 304 1254 q 354 1296 332 1281 q 400 1319 376 1311 q 476 1300 449 1319 q 504 1246 504 1281 q 485 1197 504 1225 q 429 1143 465 1169 l 456 1099 l 410 1078 z "},"Ẵ":{"ha":811,"x_min":-21,"x_max":825,"o":"m 461 -14 l 457 -4 l 463 50 q 538 60 511 54 q 575 76 564 65 q 586 103 586 86 q 583 133 586 117 q 574 169 581 150 l 528 321 q 458 322 503 322 q 383 322 413 322 q 299 318 343 322 q 232 311 256 314 l 181 167 q 168 113 168 129 q 188 69 168 82 q 251 56 208 56 l 331 56 l 333 50 l 325 -10 q 296 -7 325 -10 q 222 -2 267 -4 q 132 0 178 0 q 63 -1 99 0 q 3 -3 28 -1 q -21 -4 -21 -4 l -10 61 q 53 88 29 65 q 99 168 76 110 l 369 878 l 457 901 l 468 901 q 477 869 468 901 q 502 778 486 836 q 540 647 518 721 q 585 489 561 572 q 636 320 610 406 q 689 157 663 235 q 734 85 706 106 q 822 58 763 64 l 825 53 l 815 -4 q 788 -3 815 -4 q 726 -1 761 -1 q 668 0 692 0 q 567 -3 615 0 q 490 -10 519 -7 q 461 -14 461 -14 m 257 379 l 379 379 q 446 382 407 379 q 508 386 485 385 l 399 750 l 389 750 l 257 379 m 244 1125 l 218 1150 l 218 1156 l 310 1250 l 329 1254 q 383 1244 349 1254 q 453 1224 418 1235 q 504 1214 488 1214 q 535 1228 518 1214 q 566 1255 553 1242 q 579 1268 579 1268 l 588 1268 l 614 1243 l 614 1238 l 522 1143 l 503 1139 q 449 1149 483 1139 q 380 1169 414 1160 q 328 1179 346 1179 q 296 1166 314 1179 q 265 1139 278 1153 q 253 1125 253 1125 l 244 1125 m 419 1036 q 499 1053 464 1036 q 553 1100 535 1069 l 564 1100 l 586 1086 q 532 997 572 1038 q 419 956 492 956 q 308 997 347 956 q 253 1086 268 1038 l 275 1100 l 286 1100 q 340 1053 304 1069 q 419 1036 376 1036 z "},"Ǎ":{"ha":811,"x_min":-21,"x_max":825,"o":"m 461 -14 l 457 -4 l 463 50 q 538 60 511 54 q 575 76 564 65 q 586 103 586 86 q 583 133 586 117 q 574 169 581 150 l 528 321 q 458 322 503 322 q 383 322 413 322 q 299 318 343 322 q 232 311 256 314 l 181 167 q 168 113 168 129 q 188 69 168 82 q 251 56 208 56 l 331 56 l 333 50 l 325 -10 q 296 -7 325 -10 q 222 -2 267 -4 q 132 0 178 0 q 63 -1 99 0 q 3 -3 28 -1 q -21 -4 -21 -4 l -10 61 q 53 88 29 65 q 99 168 76 110 l 369 878 l 457 901 l 468 901 q 477 869 468 901 q 502 778 486 836 q 540 647 518 721 q 585 489 561 572 q 636 320 610 406 q 689 157 663 235 q 734 85 706 106 q 822 58 763 64 l 825 53 l 815 -4 q 788 -3 815 -4 q 726 -1 761 -1 q 668 0 692 0 q 567 -3 615 0 q 490 -10 519 -7 q 461 -14 461 -14 m 257 379 l 379 379 q 446 382 407 379 q 508 386 485 385 l 399 750 l 389 750 l 257 379 m 404 978 q 388 992 404 978 q 342 1030 371 1007 q 280 1080 314 1053 q 213 1132 246 1107 l 232 1163 l 244 1164 q 340 1112 293 1136 q 414 1074 386 1088 q 488 1111 443 1088 q 583 1164 533 1135 l 596 1163 l 615 1132 q 548 1080 582 1107 q 485 1030 514 1053 q 440 992 457 1007 q 424 978 424 978 l 404 978 z "},"Â":{"ha":811,"x_min":-21,"x_max":825,"o":"m 461 -14 l 457 -4 l 463 50 q 538 60 511 54 q 575 76 564 65 q 586 103 586 86 q 583 133 586 117 q 574 169 581 150 l 528 321 q 458 322 503 322 q 383 322 413 322 q 299 318 343 322 q 232 311 256 314 l 181 167 q 168 113 168 129 q 188 69 168 82 q 251 56 208 56 l 331 56 l 333 50 l 325 -10 q 296 -7 325 -10 q 222 -2 267 -4 q 132 0 178 0 q 63 -1 99 0 q 3 -3 28 -1 q -21 -4 -21 -4 l -10 61 q 53 88 29 65 q 99 168 76 110 l 369 878 l 457 901 l 468 901 q 477 869 468 901 q 502 778 486 836 q 540 647 518 721 q 585 489 561 572 q 636 320 610 406 q 689 157 663 235 q 734 85 706 106 q 822 58 763 64 l 825 53 l 815 -4 q 788 -3 815 -4 q 726 -1 761 -1 q 668 0 692 0 q 567 -3 615 0 q 490 -10 519 -7 q 461 -14 461 -14 m 257 379 l 379 379 q 446 382 407 379 q 508 386 485 385 l 399 750 l 389 750 l 257 379 m 244 989 l 232 990 l 213 1021 q 280 1073 246 1046 q 342 1123 314 1100 q 388 1160 371 1146 q 404 1175 404 1175 l 424 1175 q 440 1160 424 1175 q 485 1123 457 1146 q 548 1073 514 1100 q 615 1021 582 1046 l 596 990 l 583 989 q 488 1041 535 1017 q 414 1079 442 1065 q 340 1042 385 1065 q 244 989 294 1018 z "},"Ấ":{"ha":811,"x_min":-21,"x_max":825,"o":"m 461 -14 l 457 -4 l 463 50 q 538 60 511 54 q 575 76 564 65 q 586 103 586 86 q 583 133 586 117 q 574 169 581 150 l 528 321 q 458 322 503 322 q 383 322 413 322 q 299 318 343 322 q 232 311 256 314 l 181 167 q 168 113 168 129 q 188 69 168 82 q 251 56 208 56 l 331 56 l 333 50 l 325 -10 q 296 -7 325 -10 q 222 -2 267 -4 q 132 0 178 0 q 63 -1 99 0 q 3 -3 28 -1 q -21 -4 -21 -4 l -10 61 q 53 88 29 65 q 99 168 76 110 l 369 878 l 457 901 l 468 901 q 477 869 468 901 q 502 778 486 836 q 540 647 518 721 q 585 489 561 572 q 636 320 610 406 q 689 157 663 235 q 734 85 706 106 q 822 58 763 64 l 825 53 l 815 -4 q 788 -3 815 -4 q 726 -1 761 -1 q 668 0 692 0 q 567 -3 615 0 q 490 -10 519 -7 q 461 -14 461 -14 m 257 379 l 379 379 q 446 382 407 379 q 508 386 485 385 l 399 750 l 389 750 l 257 379 m 250 914 l 238 915 l 218 946 q 285 998 251 971 q 348 1048 319 1025 q 393 1085 376 1071 q 410 1100 410 1100 l 429 1100 q 458 1076 429 1100 q 532 1016 488 1051 q 621 946 576 981 l 601 915 l 589 914 q 494 966 540 942 q 419 1004 447 990 q 345 967 390 990 q 250 914 300 943 m 558 1056 l 525 1075 l 607 1257 l 622 1258 l 679 1222 l 682 1207 l 571 1057 l 558 1056 z "},"Ậ":{"ha":811,"x_min":-21,"x_max":825,"o":"m 461 -14 l 457 -4 l 463 50 q 538 60 511 54 q 575 76 564 65 q 586 103 586 86 q 583 133 586 117 q 574 169 581 150 l 528 321 q 458 322 503 322 q 383 322 413 322 q 299 318 343 322 q 232 311 256 314 l 181 167 q 168 113 168 129 q 188 69 168 82 q 251 56 208 56 l 331 56 l 333 50 l 325 -10 q 296 -7 325 -10 q 222 -2 267 -4 q 132 0 178 0 q 63 -1 99 0 q 3 -3 28 -1 q -21 -4 -21 -4 l -10 61 q 53 88 29 65 q 99 168 76 110 l 369 878 l 457 901 l 468 901 q 477 869 468 901 q 502 778 486 836 q 540 647 518 721 q 585 489 561 572 q 636 320 610 406 q 689 157 663 235 q 734 85 706 106 q 822 58 763 64 l 825 53 l 815 -4 q 788 -3 815 -4 q 726 -1 761 -1 q 668 0 692 0 q 567 -3 615 0 q 490 -10 519 -7 q 461 -14 461 -14 m 257 379 l 379 379 q 446 382 407 379 q 508 386 485 385 l 399 750 l 389 750 l 257 379 m 244 989 l 232 990 l 213 1021 q 280 1073 246 1046 q 342 1123 314 1100 q 388 1160 371 1146 q 404 1175 404 1175 l 424 1175 q 440 1160 424 1175 q 485 1123 457 1146 q 548 1073 514 1100 q 615 1021 582 1046 l 596 990 l 583 989 q 488 1041 535 1017 q 414 1079 442 1065 q 340 1042 385 1065 q 244 989 294 1018 m 383 -267 q 325 -242 344 -267 q 306 -187 306 -218 q 329 -126 306 -151 q 392 -101 353 -101 q 451 -125 431 -101 q 471 -181 471 -149 q 447 -241 471 -215 q 383 -267 424 -267 z "},"Ầ":{"ha":811,"x_min":-21,"x_max":825,"o":"m 461 -14 l 457 -4 l 463 50 q 538 60 511 54 q 575 76 564 65 q 586 103 586 86 q 583 133 586 117 q 574 169 581 150 l 528 321 q 458 322 503 322 q 383 322 413 322 q 299 318 343 322 q 232 311 256 314 l 181 167 q 168 113 168 129 q 188 69 168 82 q 251 56 208 56 l 331 56 l 333 50 l 325 -10 q 296 -7 325 -10 q 222 -2 267 -4 q 132 0 178 0 q 63 -1 99 0 q 3 -3 28 -1 q -21 -4 -21 -4 l -10 61 q 53 88 29 65 q 99 168 76 110 l 369 878 l 457 901 l 468 901 q 477 869 468 901 q 502 778 486 836 q 540 647 518 721 q 585 489 561 572 q 636 320 610 406 q 689 157 663 235 q 734 85 706 106 q 822 58 763 64 l 825 53 l 815 -4 q 788 -3 815 -4 q 726 -1 761 -1 q 668 0 692 0 q 567 -3 615 0 q 490 -10 519 -7 q 461 -14 461 -14 m 257 379 l 379 379 q 446 382 407 379 q 508 386 485 385 l 399 750 l 389 750 l 257 379 m 589 1046 l 576 1047 l 465 1197 l 468 1213 l 525 1249 l 540 1247 l 622 1065 l 589 1046 m 218 946 q 285 998 251 971 q 348 1048 319 1025 q 393 1085 376 1071 q 410 1100 410 1100 l 429 1100 q 458 1076 429 1100 q 532 1016 488 1051 q 621 946 576 981 l 601 915 l 589 914 q 494 966 540 942 q 419 1004 447 990 q 345 967 390 990 q 250 914 300 943 l 238 915 l 218 946 z "},"Ẩ":{"ha":811,"x_min":-21,"x_max":825,"o":"m 461 -14 l 457 -4 l 463 50 q 538 60 511 54 q 575 76 564 65 q 586 103 586 86 q 583 133 586 117 q 574 169 581 150 l 528 321 q 458 322 503 322 q 383 322 413 322 q 299 318 343 322 q 232 311 256 314 l 181 167 q 168 113 168 129 q 188 69 168 82 q 251 56 208 56 l 331 56 l 333 50 l 325 -10 q 296 -7 325 -10 q 222 -2 267 -4 q 132 0 178 0 q 63 -1 99 0 q 3 -3 28 -1 q -21 -4 -21 -4 l -10 61 q 53 88 29 65 q 99 168 76 110 l 369 878 l 457 901 l 468 901 q 477 869 468 901 q 502 778 486 836 q 540 647 518 721 q 585 489 561 572 q 636 320 610 406 q 689 157 663 235 q 734 85 706 106 q 822 58 763 64 l 825 53 l 815 -4 q 788 -3 815 -4 q 726 -1 761 -1 q 668 0 692 0 q 567 -3 615 0 q 490 -10 519 -7 q 461 -14 461 -14 m 257 379 l 379 379 q 446 382 407 379 q 508 386 485 385 l 399 750 l 389 750 l 257 379 m 569 1035 l 529 1104 q 580 1148 565 1131 q 594 1183 594 1165 q 582 1206 594 1199 q 550 1214 569 1214 q 515 1208 532 1214 q 488 1197 499 1203 q 478 1190 478 1190 l 464 1211 q 478 1224 464 1211 q 514 1253 492 1238 q 560 1276 536 1268 q 636 1257 608 1276 q 664 1203 664 1238 q 644 1154 664 1182 q 589 1100 625 1126 l 615 1056 l 569 1035 m 218 946 q 285 998 251 971 q 348 1048 319 1025 q 393 1085 376 1071 q 410 1100 410 1100 l 429 1100 q 458 1076 429 1100 q 532 1016 488 1051 q 621 946 576 981 l 601 915 l 589 914 q 494 966 540 942 q 419 1004 447 990 q 345 967 390 990 q 250 914 300 943 l 238 915 l 218 946 z "},"Ẫ":{"ha":811,"x_min":-21,"x_max":825,"o":"m 461 -14 l 457 -4 l 463 50 q 538 60 511 54 q 575 76 564 65 q 586 103 586 86 q 583 133 586 117 q 574 169 581 150 l 528 321 q 458 322 503 322 q 383 322 413 322 q 299 318 343 322 q 232 311 256 314 l 181 167 q 168 113 168 129 q 188 69 168 82 q 251 56 208 56 l 331 56 l 333 50 l 325 -10 q 296 -7 325 -10 q 222 -2 267 -4 q 132 0 178 0 q 63 -1 99 0 q 3 -3 28 -1 q -21 -4 -21 -4 l -10 61 q 53 88 29 65 q 99 168 76 110 l 369 878 l 457 901 l 468 901 q 477 869 468 901 q 502 778 486 836 q 540 647 518 721 q 585 489 561 572 q 636 320 610 406 q 689 157 663 235 q 734 85 706 106 q 822 58 763 64 l 825 53 l 815 -4 q 788 -3 815 -4 q 726 -1 761 -1 q 668 0 692 0 q 567 -3 615 0 q 490 -10 519 -7 q 461 -14 461 -14 m 257 379 l 379 379 q 446 382 407 379 q 508 386 485 385 l 399 750 l 389 750 l 257 379 m 218 946 q 285 998 251 971 q 348 1048 319 1025 q 393 1085 376 1071 q 410 1100 410 1100 l 429 1100 q 458 1076 429 1100 q 532 1016 488 1051 q 621 946 576 981 l 601 915 l 589 914 q 494 966 540 942 q 419 1004 447 990 q 345 967 390 990 q 250 914 300 943 l 238 915 l 218 946 m 247 1119 l 221 1144 l 221 1150 l 313 1244 l 332 1249 q 386 1239 351 1249 q 456 1219 421 1229 q 507 1208 490 1208 q 538 1222 521 1208 q 569 1249 556 1236 q 582 1263 582 1263 l 590 1263 l 617 1238 l 617 1232 l 525 1138 l 506 1133 q 451 1144 486 1133 q 383 1164 417 1154 q 331 1174 349 1174 q 299 1160 317 1174 q 268 1133 281 1147 q 256 1119 256 1119 l 247 1119 z "},"Ȁ":{"ha":811,"x_min":-21,"x_max":825,"o":"m 461 -14 l 457 -4 l 463 50 q 538 60 511 54 q 575 76 564 65 q 586 103 586 86 q 583 133 586 117 q 574 169 581 150 l 528 321 q 458 322 503 322 q 383 322 413 322 q 299 318 343 322 q 232 311 256 314 l 181 167 q 168 113 168 129 q 188 69 168 82 q 251 56 208 56 l 331 56 l 333 50 l 325 -10 q 296 -7 325 -10 q 222 -2 267 -4 q 132 0 178 0 q 63 -1 99 0 q 3 -3 28 -1 q -21 -4 -21 -4 l -10 61 q 53 88 29 65 q 99 168 76 110 l 369 878 l 457 901 l 468 901 q 477 869 468 901 q 502 778 486 836 q 540 647 518 721 q 585 489 561 572 q 636 320 610 406 q 689 157 663 235 q 734 85 706 106 q 822 58 763 64 l 825 53 l 815 -4 q 788 -3 815 -4 q 726 -1 761 -1 q 668 0 692 0 q 567 -3 615 0 q 490 -10 519 -7 q 461 -14 461 -14 m 257 379 l 379 379 q 446 382 407 379 q 508 386 485 385 l 399 750 l 389 750 l 257 379 m 564 950 q 453 1010 506 983 q 369 1054 401 1038 q 336 1071 336 1071 l 332 1083 l 363 1143 l 375 1149 q 407 1124 375 1149 q 488 1061 439 1099 q 588 986 538 1024 l 575 957 l 564 950 m 369 938 q 259 998 311 971 q 174 1042 207 1025 q 142 1058 142 1058 l 138 1071 l 168 1129 l 181 1136 q 213 1111 181 1136 q 294 1048 244 1086 q 393 972 343 1010 l 379 943 l 369 938 z "},"Ä":{"ha":811,"x_min":-21,"x_max":825,"o":"m 461 -14 l 457 -4 l 463 50 q 538 60 511 54 q 575 76 564 65 q 586 103 586 86 q 583 133 586 117 q 574 169 581 150 l 528 321 q 458 322 503 322 q 383 322 413 322 q 299 318 343 322 q 232 311 256 314 l 181 167 q 168 113 168 129 q 188 69 168 82 q 251 56 208 56 l 331 56 l 333 50 l 325 -10 q 296 -7 325 -10 q 222 -2 267 -4 q 132 0 178 0 q 63 -1 99 0 q 3 -3 28 -1 q -21 -4 -21 -4 l -10 61 q 53 88 29 65 q 99 168 76 110 l 369 878 l 457 901 l 468 901 q 477 869 468 901 q 502 778 486 836 q 540 647 518 721 q 585 489 561 572 q 636 320 610 406 q 689 157 663 235 q 734 85 706 106 q 822 58 763 64 l 825 53 l 815 -4 q 788 -3 815 -4 q 726 -1 761 -1 q 668 0 692 0 q 567 -3 615 0 q 490 -10 519 -7 q 461 -14 461 -14 m 257 379 l 379 379 q 446 382 407 379 q 508 386 485 385 l 399 750 l 389 750 l 257 379 m 522 993 q 480 1012 494 993 q 465 1053 465 1031 q 485 1101 465 1081 q 535 1122 504 1122 q 577 1104 563 1122 q 592 1063 592 1086 q 572 1014 592 1035 q 522 993 553 993 m 292 993 q 249 1012 264 993 q 235 1053 235 1031 q 254 1101 235 1081 q 304 1122 274 1122 q 347 1104 332 1122 q 361 1063 361 1086 q 342 1014 361 1035 q 292 993 322 993 z "},"Ạ":{"ha":811,"x_min":-21,"x_max":825,"o":"m 461 -14 l 457 -4 l 463 50 q 538 60 511 54 q 575 76 564 65 q 586 103 586 86 q 583 133 586 117 q 574 169 581 150 l 528 321 q 458 322 503 322 q 383 322 413 322 q 299 318 343 322 q 232 311 256 314 l 181 167 q 168 113 168 129 q 188 69 168 82 q 251 56 208 56 l 331 56 l 333 50 l 325 -10 q 296 -7 325 -10 q 222 -2 267 -4 q 132 0 178 0 q 63 -1 99 0 q 3 -3 28 -1 q -21 -4 -21 -4 l -10 61 q 53 88 29 65 q 99 168 76 110 l 369 878 l 457 901 l 468 901 q 477 869 468 901 q 502 778 486 836 q 540 647 518 721 q 585 489 561 572 q 636 320 610 406 q 689 157 663 235 q 734 85 706 106 q 822 58 763 64 l 825 53 l 815 -4 q 788 -3 815 -4 q 726 -1 761 -1 q 668 0 692 0 q 567 -3 615 0 q 490 -10 519 -7 q 461 -14 461 -14 m 257 379 l 379 379 q 446 382 407 379 q 508 386 485 385 l 399 750 l 389 750 l 257 379 m 383 -267 q 325 -242 344 -267 q 306 -187 306 -218 q 329 -126 306 -151 q 392 -101 353 -101 q 451 -125 431 -101 q 471 -181 471 -149 q 447 -241 471 -215 q 383 -267 424 -267 z "},"À":{"ha":811,"x_min":-21,"x_max":825,"o":"m 461 -14 l 457 -4 l 463 50 q 538 60 511 54 q 575 76 564 65 q 586 103 586 86 q 583 133 586 117 q 574 169 581 150 l 528 321 q 458 322 503 322 q 383 322 413 322 q 299 318 343 322 q 232 311 256 314 l 181 167 q 168 113 168 129 q 188 69 168 82 q 251 56 208 56 l 331 56 l 333 50 l 325 -10 q 296 -7 325 -10 q 222 -2 267 -4 q 132 0 178 0 q 63 -1 99 0 q 3 -3 28 -1 q -21 -4 -21 -4 l -10 61 q 53 88 29 65 q 99 168 76 110 l 369 878 l 457 901 l 468 901 q 477 869 468 901 q 502 778 486 836 q 540 647 518 721 q 585 489 561 572 q 636 320 610 406 q 689 157 663 235 q 734 85 706 106 q 822 58 763 64 l 825 53 l 815 -4 q 788 -3 815 -4 q 726 -1 761 -1 q 668 0 692 0 q 567 -3 615 0 q 490 -10 519 -7 q 461 -14 461 -14 m 257 379 l 379 379 q 446 382 407 379 q 508 386 485 385 l 399 750 l 389 750 l 257 379 m 493 976 q 388 1016 439 997 q 295 1049 336 1035 q 231 1071 254 1063 q 207 1079 207 1079 l 201 1093 l 224 1160 l 236 1168 q 260 1154 236 1168 q 325 1118 285 1140 q 415 1069 365 1096 q 513 1017 464 1042 l 504 983 l 493 976 z "},"Ả":{"ha":811,"x_min":-21,"x_max":825,"o":"m 461 -14 l 457 -4 l 463 50 q 538 60 511 54 q 575 76 564 65 q 586 103 586 86 q 583 133 586 117 q 574 169 581 150 l 528 321 q 458 322 503 322 q 383 322 413 322 q 299 318 343 322 q 232 311 256 314 l 181 167 q 168 113 168 129 q 188 69 168 82 q 251 56 208 56 l 331 56 l 333 50 l 325 -10 q 296 -7 325 -10 q 222 -2 267 -4 q 132 0 178 0 q 63 -1 99 0 q 3 -3 28 -1 q -21 -4 -21 -4 l -10 61 q 53 88 29 65 q 99 168 76 110 l 369 878 l 457 901 l 468 901 q 477 869 468 901 q 502 778 486 836 q 540 647 518 721 q 585 489 561 572 q 636 320 610 406 q 689 157 663 235 q 734 85 706 106 q 822 58 763 64 l 825 53 l 815 -4 q 788 -3 815 -4 q 726 -1 761 -1 q 668 0 692 0 q 567 -3 615 0 q 490 -10 519 -7 q 461 -14 461 -14 m 257 379 l 379 379 q 446 382 407 379 q 508 386 485 385 l 399 750 l 389 750 l 257 379 m 410 957 l 365 1033 q 422 1082 406 1063 q 438 1121 438 1101 q 424 1145 438 1136 q 389 1154 411 1154 q 350 1148 368 1154 q 321 1135 332 1142 q 310 1128 310 1128 l 294 1151 q 310 1165 294 1151 q 349 1197 325 1179 q 400 1224 374 1214 q 483 1202 453 1224 q 514 1142 514 1181 q 492 1088 514 1119 q 432 1029 471 1057 l 461 981 l 410 957 z "},"Ȃ":{"ha":811,"x_min":-21,"x_max":825,"o":"m 461 -14 l 457 -4 l 463 50 q 538 60 511 54 q 575 76 564 65 q 586 103 586 86 q 583 133 586 117 q 574 169 581 150 l 528 321 q 458 322 503 322 q 383 322 413 322 q 299 318 343 322 q 232 311 256 314 l 181 167 q 168 113 168 129 q 188 69 168 82 q 251 56 208 56 l 331 56 l 333 50 l 325 -10 q 296 -7 325 -10 q 222 -2 267 -4 q 132 0 178 0 q 63 -1 99 0 q 3 -3 28 -1 q -21 -4 -21 -4 l -10 61 q 53 88 29 65 q 99 168 76 110 l 369 878 l 457 901 l 468 901 q 477 869 468 901 q 502 778 486 836 q 540 647 518 721 q 585 489 561 572 q 636 320 610 406 q 689 157 663 235 q 734 85 706 106 q 822 58 763 64 l 825 53 l 815 -4 q 788 -3 815 -4 q 726 -1 761 -1 q 668 0 692 0 q 567 -3 615 0 q 490 -10 519 -7 q 461 -14 461 -14 m 257 379 l 379 379 q 446 382 407 379 q 508 386 485 385 l 399 750 l 389 750 l 257 379 m 406 1096 q 326 1073 363 1096 q 272 1004 290 1050 l 261 1004 l 239 1018 q 269 1094 249 1058 q 324 1153 290 1131 q 406 1176 358 1176 q 488 1153 454 1176 q 542 1094 521 1131 q 572 1018 563 1058 l 550 1004 l 539 1004 q 485 1073 521 1050 q 406 1096 450 1096 z "},"Ā":{"ha":811,"x_min":-21,"x_max":825,"o":"m 461 -14 l 457 -4 l 463 50 q 538 60 511 54 q 575 76 564 65 q 586 103 586 86 q 583 133 586 117 q 574 169 581 150 l 528 321 q 458 322 503 322 q 383 322 413 322 q 299 318 343 322 q 232 311 256 314 l 181 167 q 168 113 168 129 q 188 69 168 82 q 251 56 208 56 l 331 56 l 333 50 l 325 -10 q 296 -7 325 -10 q 222 -2 267 -4 q 132 0 178 0 q 63 -1 99 0 q 3 -3 28 -1 q -21 -4 -21 -4 l -10 61 q 53 88 29 65 q 99 168 76 110 l 369 878 l 457 901 l 468 901 q 477 869 468 901 q 502 778 486 836 q 540 647 518 721 q 585 489 561 572 q 636 320 610 406 q 689 157 663 235 q 734 85 706 106 q 822 58 763 64 l 825 53 l 815 -4 q 788 -3 815 -4 q 726 -1 761 -1 q 668 0 692 0 q 567 -3 615 0 q 490 -10 519 -7 q 461 -14 461 -14 m 257 379 l 379 379 q 446 382 407 379 q 508 386 485 385 l 399 750 l 389 750 l 257 379 m 214 999 l 206 1011 l 219 1074 q 241 1074 219 1074 q 296 1073 263 1074 q 366 1072 329 1072 q 433 1072 403 1072 q 510 1074 468 1072 q 582 1078 551 1076 q 613 1081 613 1081 l 621 1067 l 611 1001 l 414 1000 q 326 1000 374 1000 q 247 999 279 1000 q 214 999 214 999 z "},"Ą":{"ha":811,"x_min":-21,"x_max":825,"o":"m 461 -14 l 457 -4 l 463 50 q 538 60 511 54 q 575 76 564 65 q 586 103 586 86 q 583 133 586 117 q 574 169 581 150 l 528 321 q 458 322 503 322 q 383 322 413 322 q 299 318 343 322 q 232 311 256 314 l 181 167 q 168 113 168 129 q 188 69 168 82 q 251 56 208 56 l 331 56 l 333 50 l 325 -10 q 296 -7 325 -10 q 222 -2 267 -4 q 132 0 178 0 q 63 -1 99 0 q 3 -3 28 -1 q -21 -4 -21 -4 l -10 61 q 53 88 29 65 q 99 168 76 110 l 369 878 l 457 901 l 468 901 q 477 869 468 901 q 502 778 486 836 q 540 647 518 721 q 585 489 561 572 q 636 320 610 406 q 689 157 663 235 q 734 85 706 106 q 822 58 763 64 l 825 53 l 815 -4 q 788 -3 815 -4 q 726 -1 761 -1 q 668 0 692 0 q 567 -3 615 0 q 490 -10 519 -7 q 461 -14 461 -14 m 257 379 l 379 379 q 446 382 407 379 q 508 386 485 385 l 399 750 l 389 750 l 257 379 m 686 -335 q 575 -299 618 -335 q 532 -208 532 -264 q 539 -161 532 -183 q 566 -111 546 -139 q 624 -43 586 -83 q 722 58 661 -3 l 781 58 q 680 -51 715 -10 q 632 -119 644 -92 q 619 -174 619 -146 q 641 -231 619 -210 q 700 -253 663 -253 q 754 -244 724 -253 q 807 -221 785 -235 l 825 -247 q 758 -299 797 -274 q 686 -335 718 -324 z "},"Å":{"ha":811,"x_min":-21,"x_max":825,"o":"m 461 -14 l 457 -4 l 463 50 q 538 60 511 54 q 575 76 564 65 q 586 103 586 86 q 583 133 586 117 q 574 169 581 150 l 528 321 q 458 322 503 322 q 383 322 413 322 q 299 318 343 322 q 232 311 256 314 l 181 167 q 168 113 168 129 q 188 69 168 82 q 251 56 208 56 l 331 56 l 333 50 l 325 -10 q 296 -7 325 -10 q 222 -2 267 -4 q 132 0 178 0 q 63 -1 99 0 q 3 -3 28 -1 q -21 -4 -21 -4 l -10 61 q 53 88 29 65 q 99 168 76 110 l 369 878 l 457 901 l 468 901 q 477 869 468 901 q 502 778 486 836 q 540 647 518 721 q 585 489 561 572 q 636 320 610 406 q 689 157 663 235 q 734 85 706 106 q 822 58 763 64 l 825 53 l 815 -4 q 788 -3 815 -4 q 726 -1 761 -1 q 668 0 692 0 q 567 -3 615 0 q 490 -10 519 -7 q 461 -14 461 -14 m 257 379 l 379 379 q 446 382 407 379 q 508 386 485 385 l 399 750 l 389 750 l 257 379 m 407 936 q 328 967 356 936 q 301 1047 301 999 q 333 1131 301 1097 q 418 1164 365 1164 q 500 1131 475 1164 q 525 1058 525 1099 q 494 974 525 1011 q 407 936 464 936 m 417 989 q 456 998 433 989 q 478 1043 478 1007 q 460 1091 478 1072 q 407 1110 442 1110 q 361 1095 376 1110 q 346 1056 346 1081 q 370 1004 346 1019 q 417 989 394 989 z "},"Ǻ":{"ha":811,"x_min":-21,"x_max":825,"o":"m 461 -14 l 457 -4 l 463 50 q 538 60 511 54 q 575 76 564 65 q 586 103 586 86 q 583 133 586 117 q 574 169 581 150 l 528 321 q 458 322 503 322 q 383 322 413 322 q 299 318 343 322 q 232 311 256 314 l 181 167 q 168 113 168 129 q 188 69 168 82 q 251 56 208 56 l 331 56 l 333 50 l 325 -10 q 296 -7 325 -10 q 222 -2 267 -4 q 132 0 178 0 q 63 -1 99 0 q 3 -3 28 -1 q -21 -4 -21 -4 l -10 61 q 53 88 29 65 q 99 168 76 110 l 369 878 l 457 901 l 468 901 q 477 869 468 901 q 502 778 486 836 q 540 647 518 721 q 585 489 561 572 q 636 320 610 406 q 689 157 663 235 q 734 85 706 106 q 822 58 763 64 l 825 53 l 815 -4 q 788 -3 815 -4 q 726 -1 761 -1 q 668 0 692 0 q 567 -3 615 0 q 490 -10 519 -7 q 461 -14 461 -14 m 257 379 l 379 379 q 446 382 407 379 q 508 386 485 385 l 399 750 l 389 750 l 257 379 m 431 929 q 360 957 385 929 q 335 1029 335 985 q 364 1105 335 1075 q 440 1135 393 1135 q 514 1105 492 1135 q 536 1039 536 1075 q 508 963 536 996 q 431 929 481 929 m 439 976 q 474 985 454 976 q 494 1025 494 993 q 478 1069 494 1051 q 431 1086 461 1086 q 389 1073 403 1086 q 375 1038 375 1060 q 397 990 375 1004 q 439 976 419 976 m 329 1136 l 319 1142 l 313 1172 q 400 1219 356 1194 q 481 1263 444 1243 q 539 1296 517 1283 q 561 1308 561 1308 l 572 1301 l 592 1240 l 588 1228 q 550 1215 588 1228 q 453 1182 513 1203 q 329 1136 394 1161 z "},"Ã":{"ha":811,"x_min":-21,"x_max":825,"o":"m 461 -14 l 457 -4 l 463 50 q 538 60 511 54 q 575 76 564 65 q 586 103 586 86 q 583 133 586 117 q 574 169 581 150 l 528 321 q 458 322 503 322 q 383 322 413 322 q 299 318 343 322 q 232 311 256 314 l 181 167 q 168 113 168 129 q 188 69 168 82 q 251 56 208 56 l 331 56 l 333 50 l 325 -10 q 296 -7 325 -10 q 222 -2 267 -4 q 132 0 178 0 q 63 -1 99 0 q 3 -3 28 -1 q -21 -4 -21 -4 l -10 61 q 53 88 29 65 q 99 168 76 110 l 369 878 l 457 901 l 468 901 q 477 869 468 901 q 502 778 486 836 q 540 647 518 721 q 585 489 561 572 q 636 320 610 406 q 689 157 663 235 q 734 85 706 106 q 822 58 763 64 l 825 53 l 815 -4 q 788 -3 815 -4 q 726 -1 761 -1 q 668 0 692 0 q 567 -3 615 0 q 490 -10 519 -7 q 461 -14 461 -14 m 257 379 l 379 379 q 446 382 407 379 q 508 386 485 385 l 399 750 l 389 750 l 257 379 m 218 971 l 188 1000 l 188 1007 l 293 1117 l 315 1122 q 360 1115 332 1122 q 419 1099 389 1108 q 477 1083 450 1090 q 518 1076 504 1076 q 545 1086 531 1076 q 574 1108 560 1096 q 597 1129 588 1119 q 606 1139 606 1139 l 614 1139 l 644 1110 l 644 1103 l 539 993 l 517 988 q 472 994 500 988 q 413 1010 443 1001 q 356 1026 382 1019 q 314 1033 329 1033 q 286 1024 301 1033 q 258 1002 271 1014 q 235 981 244 990 q 226 971 226 971 l 218 971 z "},"Æ":{"ha":1125,"x_min":-14,"x_max":1089,"o":"m 418 50 q 526 70 500 57 q 553 121 553 83 q 549 167 553 144 q 543 213 546 190 l 518 383 l 381 372 l 254 358 l 156 167 q 138 128 143 143 q 133 103 133 114 q 152 67 133 79 q 210 56 171 56 l 289 56 l 282 -10 q 265 -8 282 -10 q 219 -5 247 -7 q 158 -1 192 -3 q 90 0 124 0 q 53 -1 75 0 q 13 -4 31 -3 q -4 -6 -4 -6 l -14 43 q 15 77 -14 43 q 74 168 43 111 l 417 803 q 406 820 414 815 q 382 825 397 825 q 352 824 369 825 q 335 822 335 822 l 332 828 l 342 889 q 358 889 342 889 q 403 888 374 889 q 472 885 432 886 q 563 885 513 885 q 708 885 644 885 q 821 888 772 886 q 908 894 869 890 q 976 901 946 897 l 981 893 q 974 862 981 893 q 960 778 968 831 q 949 663 953 726 l 882 657 q 883 680 882 657 q 885 717 885 703 q 872 783 885 763 q 813 810 858 804 q 667 815 767 815 q 587 808 603 815 q 569 772 571 801 l 613 456 l 776 471 l 904 489 l 910 482 l 892 408 l 772 404 l 621 392 l 660 157 q 694 83 668 104 q 776 63 721 63 q 897 68 851 63 q 967 90 943 74 q 1003 141 992 107 q 1024 232 1015 175 l 1085 239 l 1089 232 q 1082 198 1089 232 q 1067 111 1075 164 q 1051 -1 1058 58 l 1044 -10 q 1007 -8 1044 -10 q 910 -5 969 -7 q 788 -1 851 -3 q 671 0 724 0 l 624 0 q 524 -3 571 0 q 447 -10 476 -7 q 418 -14 418 -14 l 415 -4 l 418 50 m 408 438 l 510 446 l 468 749 l 456 749 l 292 431 l 408 438 z "},"Ǽ":{"ha":1125,"x_min":-14,"x_max":1089,"o":"m 418 50 q 526 70 500 57 q 553 121 553 83 q 549 167 553 144 q 543 213 546 190 l 518 383 l 381 372 l 254 358 l 156 167 q 138 128 143 143 q 133 103 133 114 q 152 67 133 79 q 210 56 171 56 l 289 56 l 282 -10 q 265 -8 282 -10 q 219 -5 247 -7 q 158 -1 192 -3 q 90 0 124 0 q 53 -1 75 0 q 13 -4 31 -3 q -4 -6 -4 -6 l -14 43 q 15 77 -14 43 q 74 168 43 111 l 417 803 q 406 820 414 815 q 382 825 397 825 q 352 824 369 825 q 335 822 335 822 l 332 828 l 342 889 q 358 889 342 889 q 403 888 374 889 q 472 885 432 886 q 563 885 513 885 q 708 885 644 885 q 821 888 772 886 q 908 894 869 890 q 976 901 946 897 l 981 893 q 974 862 981 893 q 960 778 968 831 q 949 663 953 726 l 882 657 q 883 680 882 657 q 885 717 885 703 q 872 783 885 763 q 813 810 858 804 q 667 815 767 815 q 587 808 603 815 q 569 772 571 801 l 613 456 l 776 471 l 904 489 l 910 482 l 892 408 l 772 404 l 621 392 l 660 157 q 694 83 668 104 q 776 63 721 63 q 897 68 851 63 q 967 90 943 74 q 1003 141 992 107 q 1024 232 1015 175 l 1085 239 l 1089 232 q 1082 198 1089 232 q 1067 111 1075 164 q 1051 -1 1058 58 l 1044 -10 q 1007 -8 1044 -10 q 910 -5 969 -7 q 788 -1 851 -3 q 671 0 724 0 l 624 0 q 524 -3 571 0 q 447 -10 476 -7 q 418 -14 418 -14 l 415 -4 l 418 50 m 408 438 l 510 446 l 468 749 l 456 749 l 292 431 l 408 438 m 521 976 l 510 983 l 501 1017 q 599 1069 550 1042 q 689 1118 649 1096 q 753 1154 729 1140 q 778 1168 778 1168 l 790 1160 l 813 1093 l 807 1079 q 783 1071 807 1079 q 719 1049 760 1063 q 626 1016 678 1035 q 521 976 575 997 z "},"B":{"ha":829,"x_min":81,"x_max":753,"o":"m 239 0 q 185 -3 213 0 q 133 -8 157 -6 q 95 -14 110 -11 q 81 -17 81 -17 l 89 47 q 176 84 154 60 q 197 167 197 108 l 199 750 q 189 810 199 794 q 147 825 179 825 q 117 824 135 825 q 100 822 100 822 l 97 828 l 107 889 q 123 888 107 889 q 164 887 139 888 q 215 885 189 886 q 261 885 242 885 q 297 885 276 885 q 340 887 318 886 q 382 888 363 888 q 413 890 401 889 q 425 890 425 890 q 628 836 557 890 q 699 679 699 782 q 657 555 699 611 q 538 465 615 499 q 653 421 606 451 q 727 348 701 390 q 753 254 753 306 q 708 121 753 182 q 588 23 663 60 q 426 -14 514 -14 q 381 -12 404 -14 q 336 -7 358 -10 q 290 -2 314 -4 q 239 0 265 0 m 301 414 l 296 154 q 332 79 296 101 q 454 57 368 57 q 585 103 538 57 q 633 229 633 150 q 446 417 633 383 l 301 414 m 304 488 q 324 486 304 488 q 372 482 344 485 q 424 478 400 479 q 456 476 447 476 q 475 484 456 476 q 521 510 494 492 q 567 565 547 529 q 586 656 586 600 q 526 788 586 746 q 342 831 467 831 q 323 824 328 831 q 317 799 318 818 q 312 703 314 754 q 308 599 310 653 q 304 488 306 546 z "},"C":{"ha":869,"x_min":56,"x_max":801,"o":"m 471 -17 q 251 36 344 -17 q 107 185 158 89 q 56 413 56 282 q 92 608 56 518 q 193 763 128 697 q 347 865 258 829 q 540 901 435 901 q 626 897 583 901 q 704 885 669 892 q 760 873 739 878 q 782 868 782 868 l 788 860 q 781 828 788 860 q 765 744 774 797 q 753 628 757 692 l 686 622 q 688 645 686 622 q 690 690 690 668 q 640 788 690 756 q 486 819 589 819 q 324 775 393 819 q 218 650 256 731 q 181 458 181 569 q 220 245 181 336 q 331 103 260 154 q 499 53 403 53 q 651 106 593 53 q 735 272 708 160 l 801 278 q 797 257 801 278 q 787 202 793 236 q 774 128 781 168 q 764 51 768 89 l 756 39 q 719 25 756 39 q 618 -3 682 11 q 471 -17 554 -17 z "},"Ć":{"ha":869,"x_min":56,"x_max":801,"o":"m 471 -17 q 251 36 344 -17 q 107 185 158 89 q 56 413 56 282 q 92 608 56 518 q 193 763 128 697 q 347 865 258 829 q 540 901 435 901 q 626 897 583 901 q 704 885 669 892 q 760 873 739 878 q 782 868 782 868 l 788 860 q 781 828 788 860 q 765 744 774 797 q 753 628 757 692 l 686 622 q 688 645 686 622 q 690 690 690 668 q 640 788 690 756 q 486 819 589 819 q 324 775 393 819 q 218 650 256 731 q 181 458 181 569 q 220 245 181 336 q 331 103 260 154 q 499 53 403 53 q 651 106 593 53 q 735 272 708 160 l 801 278 q 797 257 801 278 q 787 202 793 236 q 774 128 781 168 q 764 51 768 89 l 756 39 q 719 25 756 39 q 618 -3 682 11 q 471 -17 554 -17 m 429 976 l 418 983 l 410 1017 q 508 1069 458 1042 q 597 1118 557 1096 q 662 1154 638 1140 q 686 1168 686 1168 l 699 1160 l 721 1093 l 715 1079 q 692 1071 715 1079 q 627 1049 668 1063 q 535 1016 586 1035 q 429 976 483 997 z "},"Č":{"ha":869,"x_min":56,"x_max":801,"o":"m 471 -17 q 251 36 344 -17 q 107 185 158 89 q 56 413 56 282 q 92 608 56 518 q 193 763 128 697 q 347 865 258 829 q 540 901 435 901 q 626 897 583 901 q 704 885 669 892 q 760 873 739 878 q 782 868 782 868 l 788 860 q 781 828 788 860 q 765 744 774 797 q 753 628 757 692 l 686 622 q 688 645 686 622 q 690 690 690 668 q 640 788 690 756 q 486 819 589 819 q 324 775 393 819 q 218 650 256 731 q 181 458 181 569 q 220 245 181 336 q 331 103 260 154 q 499 53 403 53 q 651 106 593 53 q 735 272 708 160 l 801 278 q 797 257 801 278 q 787 202 793 236 q 774 128 781 168 q 764 51 768 89 l 756 39 q 719 25 756 39 q 618 -3 682 11 q 471 -17 554 -17 m 489 978 q 472 992 489 978 q 427 1030 456 1007 q 365 1080 399 1053 q 297 1132 331 1107 l 317 1163 l 329 1164 q 424 1112 378 1136 q 499 1074 471 1088 q 573 1111 528 1088 q 668 1164 618 1135 l 681 1163 l 700 1132 q 633 1080 667 1107 q 570 1030 599 1053 q 525 992 542 1007 q 508 978 508 978 l 489 978 z "},"Ç":{"ha":869,"x_min":56,"x_max":801,"o":"m 471 -17 q 251 36 344 -17 q 107 185 158 89 q 56 413 56 282 q 92 608 56 518 q 193 763 128 697 q 347 865 258 829 q 540 901 435 901 q 626 897 583 901 q 704 885 669 892 q 760 873 739 878 q 782 868 782 868 l 788 860 q 781 828 788 860 q 765 744 774 797 q 753 628 757 692 l 686 622 q 688 645 686 622 q 690 690 690 668 q 640 788 690 756 q 486 819 589 819 q 324 775 393 819 q 218 650 256 731 q 181 458 181 569 q 220 245 181 336 q 331 103 260 154 q 499 53 403 53 q 651 106 593 53 q 735 272 708 160 l 801 278 q 797 257 801 278 q 787 202 793 236 q 774 128 781 168 q 764 51 768 89 l 756 39 q 719 25 756 39 q 618 -3 682 11 q 471 -17 554 -17 m 436 -324 q 394 -318 415 -324 q 357 -301 372 -312 q 342 -274 342 -289 q 354 -236 342 -260 q 376 -196 367 -212 l 389 -196 q 411 -255 390 -235 q 465 -275 432 -275 q 513 -260 493 -275 q 532 -222 532 -246 q 514 -187 532 -206 q 469 -151 496 -169 q 414 -118 442 -133 l 460 32 l 519 32 l 485 -69 q 535 -104 508 -85 q 583 -145 563 -124 q 603 -193 603 -167 q 577 -259 603 -229 q 513 -306 551 -289 q 436 -324 475 -324 z "},"Ḉ":{"ha":869,"x_min":56,"x_max":801,"o":"m 471 -17 q 251 36 344 -17 q 107 185 158 89 q 56 413 56 282 q 92 608 56 518 q 193 763 128 697 q 347 865 258 829 q 540 901 435 901 q 626 897 583 901 q 704 885 669 892 q 760 873 739 878 q 782 868 782 868 l 788 860 q 781 828 788 860 q 765 744 774 797 q 753 628 757 692 l 686 622 q 688 645 686 622 q 690 690 690 668 q 640 788 690 756 q 486 819 589 819 q 324 775 393 819 q 218 650 256 731 q 181 458 181 569 q 220 245 181 336 q 331 103 260 154 q 499 53 403 53 q 651 106 593 53 q 735 272 708 160 l 801 278 q 797 257 801 278 q 787 202 793 236 q 774 128 781 168 q 764 51 768 89 l 756 39 q 719 25 756 39 q 618 -3 682 11 q 471 -17 554 -17 m 413 -324 q 370 -318 392 -324 q 333 -301 349 -312 q 318 -274 318 -289 q 331 -236 318 -260 q 353 -196 343 -212 l 365 -196 q 388 -255 367 -235 q 442 -275 408 -275 q 489 -260 469 -275 q 508 -222 508 -246 q 490 -187 508 -206 q 445 -151 472 -169 q 390 -118 418 -133 l 436 32 l 496 32 l 461 -69 q 512 -104 485 -85 q 559 -145 539 -124 q 579 -193 579 -167 q 553 -259 579 -229 q 490 -306 528 -289 q 413 -324 451 -324 m 357 990 l 346 997 l 338 1031 q 435 1083 386 1056 q 525 1132 485 1110 q 590 1168 565 1154 q 614 1182 614 1182 l 626 1174 l 649 1107 l 643 1093 q 619 1085 643 1093 q 555 1063 596 1076 q 463 1030 514 1049 q 357 990 411 1011 z "},"Ĉ":{"ha":869,"x_min":56,"x_max":801,"o":"m 471 -17 q 251 36 344 -17 q 107 185 158 89 q 56 413 56 282 q 92 608 56 518 q 193 763 128 697 q 347 865 258 829 q 540 901 435 901 q 626 897 583 901 q 704 885 669 892 q 760 873 739 878 q 782 868 782 868 l 788 860 q 781 828 788 860 q 765 744 774 797 q 753 628 757 692 l 686 622 q 688 645 686 622 q 690 690 690 668 q 640 788 690 756 q 486 819 589 819 q 324 775 393 819 q 218 650 256 731 q 181 458 181 569 q 220 245 181 336 q 331 103 260 154 q 499 53 403 53 q 651 106 593 53 q 735 272 708 160 l 801 278 q 797 257 801 278 q 787 202 793 236 q 774 128 781 168 q 764 51 768 89 l 756 39 q 719 25 756 39 q 618 -3 682 11 q 471 -17 554 -17 m 304 974 l 292 975 l 272 1006 q 340 1078 306 1042 q 402 1147 374 1115 q 447 1199 431 1179 q 464 1218 464 1218 l 483 1218 q 500 1199 483 1218 q 545 1147 517 1179 q 608 1078 574 1115 q 675 1006 642 1042 l 656 975 l 643 974 q 548 1051 594 1017 q 474 1108 501 1086 q 399 1052 444 1086 q 304 974 354 1018 z "},"Ċ":{"ha":869,"x_min":56,"x_max":801,"o":"m 471 -17 q 251 36 344 -17 q 107 185 158 89 q 56 413 56 282 q 92 608 56 518 q 193 763 128 697 q 347 865 258 829 q 540 901 435 901 q 626 897 583 901 q 704 885 669 892 q 760 873 739 878 q 782 868 782 868 l 788 860 q 781 828 788 860 q 765 744 774 797 q 753 628 757 692 l 686 622 q 688 645 686 622 q 690 690 690 668 q 640 788 690 756 q 486 819 589 819 q 324 775 393 819 q 218 650 256 731 q 181 458 181 569 q 220 245 181 336 q 331 103 260 154 q 499 53 403 53 q 651 106 593 53 q 735 272 708 160 l 801 278 q 797 257 801 278 q 787 202 793 236 q 774 128 781 168 q 764 51 768 89 l 756 39 q 719 25 756 39 q 618 -3 682 11 q 471 -17 554 -17 m 492 985 q 440 1007 457 985 q 424 1056 424 1029 q 447 1113 424 1089 q 506 1138 471 1138 q 556 1116 539 1138 q 574 1067 574 1094 q 551 1009 574 1033 q 492 985 528 985 z "},"D":{"ha":976,"x_min":81,"x_max":921,"o":"m 440 -17 q 419 -14 440 -17 q 367 -8 399 -11 q 301 -3 335 -6 q 240 0 267 0 q 169 -4 206 0 q 106 -12 132 -8 q 81 -17 81 -17 l 89 47 q 176 84 154 60 q 197 167 197 108 l 199 750 q 189 810 199 794 q 147 825 179 825 q 117 824 135 825 q 100 822 100 822 l 97 828 l 107 889 q 122 888 107 889 q 160 887 138 888 q 208 885 183 886 q 253 885 233 885 q 312 885 276 885 q 382 888 347 886 q 440 890 417 889 q 464 890 464 890 q 703 838 600 890 q 863 692 806 786 q 921 475 921 599 q 884 282 921 371 q 781 126 847 193 q 628 21 715 58 q 440 -17 542 -17 m 368 822 q 329 817 339 822 q 318 792 319 811 q 303 390 308 551 q 297 182 297 229 q 312 104 297 132 q 365 65 326 76 q 472 54 403 54 q 708 158 622 54 q 794 442 794 261 q 745 649 794 564 q 601 778 696 733 q 368 822 506 822 z "},"Ǆ":{"ha":1765,"x_min":81,"x_max":1704,"o":"m 440 -17 q 419 -14 440 -17 q 367 -8 399 -11 q 301 -3 335 -6 q 240 0 267 0 q 169 -4 206 0 q 106 -12 132 -8 q 81 -17 81 -17 l 89 47 q 176 84 154 60 q 197 167 197 108 l 199 750 q 189 810 199 794 q 147 825 179 825 q 117 824 135 825 q 100 822 100 822 l 97 828 l 107 889 q 122 888 107 889 q 160 887 138 888 q 208 885 183 886 q 253 885 233 885 q 312 885 276 885 q 382 888 347 886 q 440 890 417 889 q 464 890 464 890 q 703 838 600 890 q 863 692 806 786 q 921 475 921 599 q 884 282 921 371 q 781 126 847 193 q 628 21 715 58 q 440 -17 542 -17 m 368 822 q 329 817 339 822 q 318 792 319 811 q 303 390 308 551 q 297 182 297 229 q 312 104 297 132 q 365 65 326 76 q 472 54 403 54 q 708 158 622 54 q 794 442 794 261 q 745 649 794 564 q 601 778 696 733 q 368 822 506 822 m 1043 -4 l 1024 40 l 1542 824 l 1301 815 q 1199 794 1238 813 q 1142 735 1161 775 q 1114 624 1122 694 l 1049 618 q 1052 642 1049 618 q 1060 706 1056 665 q 1069 794 1065 746 q 1074 889 1072 842 l 1088 901 l 1331 886 l 1689 876 l 1704 836 q 1518 581 1606 706 q 1360 351 1431 457 q 1240 168 1289 244 q 1168 56 1190 92 l 1450 65 q 1567 122 1522 67 q 1633 296 1611 178 l 1699 303 q 1694 278 1699 303 q 1684 210 1690 253 q 1672 118 1678 168 q 1664 18 1667 68 l 1643 -4 l 1140 4 l 1043 -4 m 1372 978 q 1356 992 1372 978 q 1310 1030 1339 1007 q 1248 1080 1282 1053 q 1181 1132 1214 1107 l 1200 1163 l 1213 1164 q 1308 1112 1261 1136 q 1382 1074 1354 1088 q 1456 1111 1411 1088 q 1551 1164 1501 1135 l 1564 1163 l 1583 1132 q 1516 1080 1550 1107 q 1453 1030 1482 1053 q 1408 992 1425 1007 q 1392 978 1392 978 l 1372 978 z "},"Ð":{"ha":990,"x_min":13,"x_max":931,"o":"m 450 -17 q 429 -14 450 -17 q 376 -8 408 -11 q 310 -3 344 -6 q 250 0 276 0 q 178 -4 215 0 q 116 -12 142 -8 q 90 -17 90 -17 l 99 47 q 170 71 147 57 q 200 118 193 85 q 207 218 207 151 l 207 422 l 22 422 l 13 432 l 22 476 l 207 476 l 208 750 q 199 810 208 794 q 157 825 189 825 q 127 824 144 825 q 110 822 110 822 l 107 828 l 117 889 q 132 888 117 889 q 170 887 147 888 q 218 885 193 886 q 263 885 243 885 q 322 885 286 885 q 392 888 357 886 q 450 890 426 889 q 474 890 474 890 q 710 837 607 890 q 872 690 814 783 q 931 475 931 596 q 894 282 931 371 q 791 126 857 193 q 638 21 725 58 q 450 -17 551 -17 m 315 476 l 551 476 l 558 467 l 550 422 l 314 422 l 307 182 q 322 104 307 132 q 374 65 336 76 q 482 54 413 54 q 718 158 632 54 q 804 442 804 261 q 755 649 804 564 q 610 778 706 733 q 378 822 515 822 q 339 817 349 822 q 328 792 329 811 l 315 476 z "},"Ď":{"ha":976,"x_min":81,"x_max":921,"o":"m 440 -17 q 419 -14 440 -17 q 367 -8 399 -11 q 301 -3 335 -6 q 240 0 267 0 q 169 -4 206 0 q 106 -12 132 -8 q 81 -17 81 -17 l 89 47 q 176 84 154 60 q 197 167 197 108 l 199 750 q 189 810 199 794 q 147 825 179 825 q 117 824 135 825 q 100 822 100 822 l 97 828 l 107 889 q 122 888 107 889 q 160 887 138 888 q 208 885 183 886 q 253 885 233 885 q 312 885 276 885 q 382 888 347 886 q 440 890 417 889 q 464 890 464 890 q 703 838 600 890 q 863 692 806 786 q 921 475 921 599 q 884 282 921 371 q 781 126 847 193 q 628 21 715 58 q 440 -17 542 -17 m 368 822 q 329 817 339 822 q 318 792 319 811 q 303 390 308 551 q 297 182 297 229 q 312 104 297 132 q 365 65 326 76 q 472 54 403 54 q 708 158 622 54 q 794 442 794 261 q 745 649 794 564 q 601 778 696 733 q 368 822 506 822 m 450 978 q 433 992 450 978 q 388 1030 417 1007 q 326 1080 360 1053 q 258 1132 292 1107 l 278 1163 l 290 1164 q 385 1112 339 1136 q 460 1074 432 1088 q 534 1111 489 1088 q 629 1164 579 1135 l 642 1163 l 661 1132 q 594 1080 628 1107 q 531 1030 560 1053 q 486 992 503 1007 q 469 978 469 978 l 450 978 z "},"Đ":{"ha":990,"x_min":13,"x_max":931,"o":"m 450 -17 q 429 -14 450 -17 q 376 -8 408 -11 q 310 -3 344 -6 q 250 0 276 0 q 178 -4 215 0 q 116 -12 142 -8 q 90 -17 90 -17 l 99 47 q 170 71 147 57 q 200 118 193 85 q 207 218 207 151 l 207 422 l 22 422 l 13 432 l 22 476 l 207 476 l 208 750 q 199 810 208 794 q 157 825 189 825 q 127 824 144 825 q 110 822 110 822 l 107 828 l 117 889 q 132 888 117 889 q 170 887 147 888 q 218 885 193 886 q 263 885 243 885 q 322 885 286 885 q 392 888 357 886 q 450 890 426 889 q 474 890 474 890 q 710 837 607 890 q 872 690 814 783 q 931 475 931 596 q 894 282 931 371 q 791 126 857 193 q 638 21 725 58 q 450 -17 551 -17 m 315 476 l 551 476 l 558 467 l 550 422 l 314 422 l 307 182 q 322 104 307 132 q 374 65 336 76 q 482 54 413 54 q 718 158 632 54 q 804 442 804 261 q 755 649 804 564 q 610 778 706 733 q 378 822 515 822 q 339 817 349 822 q 328 792 329 811 l 315 476 z "},"Ḍ":{"ha":976,"x_min":81,"x_max":921,"o":"m 440 -17 q 419 -14 440 -17 q 367 -8 399 -11 q 301 -3 335 -6 q 240 0 267 0 q 169 -4 206 0 q 106 -12 132 -8 q 81 -17 81 -17 l 89 47 q 176 84 154 60 q 197 167 197 108 l 199 750 q 189 810 199 794 q 147 825 179 825 q 117 824 135 825 q 100 822 100 822 l 97 828 l 107 889 q 122 888 107 889 q 160 887 138 888 q 208 885 183 886 q 253 885 233 885 q 312 885 276 885 q 382 888 347 886 q 440 890 417 889 q 464 890 464 890 q 703 838 600 890 q 863 692 806 786 q 921 475 921 599 q 884 282 921 371 q 781 126 847 193 q 628 21 715 58 q 440 -17 542 -17 m 368 822 q 329 817 339 822 q 318 792 319 811 q 303 390 308 551 q 297 182 297 229 q 312 104 297 132 q 365 65 326 76 q 472 54 403 54 q 708 158 622 54 q 794 442 794 261 q 745 649 794 564 q 601 778 696 733 q 368 822 506 822 m 461 -267 q 403 -242 422 -267 q 383 -187 383 -218 q 407 -126 383 -151 q 469 -101 431 -101 q 528 -125 508 -101 q 549 -181 549 -149 q 525 -241 549 -215 q 461 -267 501 -267 z "},"Ḏ":{"ha":976,"x_min":81,"x_max":921,"o":"m 440 -17 q 419 -14 440 -17 q 367 -8 399 -11 q 301 -3 335 -6 q 240 0 267 0 q 169 -4 206 0 q 106 -12 132 -8 q 81 -17 81 -17 l 89 47 q 176 84 154 60 q 197 167 197 108 l 199 750 q 189 810 199 794 q 147 825 179 825 q 117 824 135 825 q 100 822 100 822 l 97 828 l 107 889 q 122 888 107 889 q 160 887 138 888 q 208 885 183 886 q 253 885 233 885 q 312 885 276 885 q 382 888 347 886 q 440 890 417 889 q 464 890 464 890 q 703 838 600 890 q 863 692 806 786 q 921 475 921 599 q 884 282 921 371 q 781 126 847 193 q 628 21 715 58 q 440 -17 542 -17 m 368 822 q 329 817 339 822 q 318 792 319 811 q 303 390 308 551 q 297 182 297 229 q 312 104 297 132 q 365 65 326 76 q 472 54 403 54 q 708 158 622 54 q 794 442 794 261 q 745 649 794 564 q 601 778 696 733 q 368 822 506 822 m 269 -226 l 261 -214 l 275 -151 q 297 -151 275 -151 q 351 -152 318 -151 q 422 -153 385 -153 q 489 -153 458 -153 q 565 -151 524 -153 q 638 -147 607 -149 q 668 -144 668 -144 l 676 -158 l 667 -224 l 469 -225 q 382 -225 429 -225 q 302 -226 335 -225 q 269 -226 269 -226 z "},"ǅ":{"ha":1615,"x_min":81,"x_max":1554,"o":"m 440 -17 q 419 -14 440 -17 q 367 -8 399 -11 q 301 -3 335 -6 q 240 0 267 0 q 169 -4 206 0 q 106 -12 132 -8 q 81 -17 81 -17 l 89 47 q 176 84 154 60 q 197 167 197 108 l 199 750 q 189 810 199 794 q 147 825 179 825 q 117 824 135 825 q 100 822 100 822 l 97 828 l 107 889 q 122 888 107 889 q 160 887 138 888 q 208 885 183 886 q 253 885 233 885 q 312 885 276 885 q 382 888 347 886 q 440 890 417 889 q 464 890 464 890 q 703 838 600 890 q 863 692 806 786 q 921 475 921 599 q 884 282 921 371 q 781 126 847 193 q 628 21 715 58 q 440 -17 542 -17 m 368 822 q 329 817 339 822 q 318 792 319 811 q 303 390 308 551 q 297 182 297 229 q 312 104 297 132 q 365 65 326 76 q 472 54 403 54 q 708 158 622 54 q 794 442 794 261 q 745 649 794 564 q 601 778 696 733 q 368 822 506 822 m 1026 32 l 1404 575 l 1231 567 q 1160 552 1186 564 q 1122 515 1133 540 q 1104 442 1110 489 l 1050 433 q 1052 452 1050 433 q 1057 501 1054 471 q 1063 566 1060 531 q 1065 635 1065 601 l 1074 642 l 1251 631 l 1543 624 l 1554 594 q 1373 354 1456 468 q 1234 160 1290 240 q 1157 49 1178 79 l 1363 61 q 1449 105 1418 65 q 1493 231 1479 144 l 1549 238 q 1545 217 1549 238 q 1537 163 1542 196 q 1528 91 1532 131 q 1525 14 1525 51 l 1503 -8 l 1113 4 l 1040 -3 l 1026 32 m 1294 731 q 1277 751 1294 731 q 1230 804 1260 771 q 1165 876 1200 838 q 1093 953 1129 915 l 1115 985 l 1126 986 q 1226 904 1179 940 q 1304 846 1274 868 q 1382 905 1333 868 q 1482 986 1431 942 l 1493 985 l 1515 953 q 1444 876 1479 915 q 1378 804 1408 838 q 1331 751 1349 771 q 1314 731 1314 731 l 1294 731 z "},"E":{"ha":821,"x_min":81,"x_max":739,"o":"m 81 -14 l 89 50 q 174 83 151 58 q 197 167 197 107 l 199 750 q 189 810 199 794 q 147 825 179 825 q 125 824 139 825 q 100 822 111 824 l 97 828 l 107 889 q 164 888 131 889 q 233 885 197 886 q 300 885 269 885 q 487 886 411 885 q 617 892 563 888 q 717 901 671 896 l 721 893 q 707 819 714 860 q 696 738 700 778 q 689 663 692 697 l 622 657 q 624 688 624 669 q 625 717 625 707 q 619 770 625 750 q 592 800 613 790 q 529 813 572 810 q 413 815 486 815 q 347 813 368 815 q 322 799 326 810 q 315 761 317 788 l 301 438 l 296 146 q 303 91 296 108 q 333 68 310 74 q 406 63 356 63 q 538 68 488 63 q 614 90 588 74 q 653 141 640 107 q 674 232 665 175 l 735 239 l 739 232 q 719 122 729 189 q 701 -1 708 56 l 694 -10 q 528 -5 611 -7 q 379 -1 446 -3 q 274 0 313 0 q 176 -3 231 0 q 81 -14 121 -7 m 282 408 l 294 492 q 332 492 304 492 q 392 491 360 492 q 447 490 424 490 q 520 495 471 490 q 617 506 569 500 l 622 499 l 603 417 q 506 419 564 418 q 408 421 449 421 q 347 417 382 421 q 282 408 311 414 z "},"É":{"ha":821,"x_min":81,"x_max":739,"o":"m 81 -14 l 89 50 q 174 83 151 58 q 197 167 197 107 l 199 750 q 189 810 199 794 q 147 825 179 825 q 125 824 139 825 q 100 822 111 824 l 97 828 l 107 889 q 164 888 131 889 q 233 885 197 886 q 300 885 269 885 q 487 886 411 885 q 617 892 563 888 q 717 901 671 896 l 721 893 q 707 819 714 860 q 696 738 700 778 q 689 663 692 697 l 622 657 q 624 688 624 669 q 625 717 625 707 q 619 770 625 750 q 592 800 613 790 q 529 813 572 810 q 413 815 486 815 q 347 813 368 815 q 322 799 326 810 q 315 761 317 788 l 301 438 l 296 146 q 303 91 296 108 q 333 68 310 74 q 406 63 356 63 q 538 68 488 63 q 614 90 588 74 q 653 141 640 107 q 674 232 665 175 l 735 239 l 739 232 q 719 122 729 189 q 701 -1 708 56 l 694 -10 q 528 -5 611 -7 q 379 -1 446 -3 q 274 0 313 0 q 176 -3 231 0 q 81 -14 121 -7 m 282 408 l 294 492 q 332 492 304 492 q 392 491 360 492 q 447 490 424 490 q 520 495 471 490 q 617 506 569 500 l 622 499 l 603 417 q 506 419 564 418 q 408 421 449 421 q 347 417 382 421 q 282 408 311 414 m 361 976 l 350 983 l 342 1017 q 440 1069 390 1042 q 529 1118 489 1096 q 594 1154 569 1140 q 618 1168 618 1168 l 631 1160 l 653 1093 l 647 1079 q 624 1071 647 1079 q 559 1049 600 1063 q 467 1016 518 1035 q 361 976 415 997 z "},"Ĕ":{"ha":821,"x_min":81,"x_max":739,"o":"m 81 -14 l 89 50 q 174 83 151 58 q 197 167 197 107 l 199 750 q 189 810 199 794 q 147 825 179 825 q 125 824 139 825 q 100 822 111 824 l 97 828 l 107 889 q 164 888 131 889 q 233 885 197 886 q 300 885 269 885 q 487 886 411 885 q 617 892 563 888 q 717 901 671 896 l 721 893 q 707 819 714 860 q 696 738 700 778 q 689 663 692 697 l 622 657 q 624 688 624 669 q 625 717 625 707 q 619 770 625 750 q 592 800 613 790 q 529 813 572 810 q 413 815 486 815 q 347 813 368 815 q 322 799 326 810 q 315 761 317 788 l 301 438 l 296 146 q 303 91 296 108 q 333 68 310 74 q 406 63 356 63 q 538 68 488 63 q 614 90 588 74 q 653 141 640 107 q 674 232 665 175 l 735 239 l 739 232 q 719 122 729 189 q 701 -1 708 56 l 694 -10 q 528 -5 611 -7 q 379 -1 446 -3 q 274 0 313 0 q 176 -3 231 0 q 81 -14 121 -7 m 282 408 l 294 492 q 332 492 304 492 q 392 491 360 492 q 447 490 424 490 q 520 495 471 490 q 617 506 569 500 l 622 499 l 603 417 q 506 419 564 418 q 408 421 449 421 q 347 417 382 421 q 282 408 311 414 m 454 990 q 373 1013 407 990 q 318 1073 339 1036 q 288 1149 297 1110 l 310 1163 l 321 1163 q 375 1094 339 1117 q 454 1071 411 1071 q 534 1094 499 1071 q 588 1163 569 1117 l 599 1163 l 621 1149 q 590 1073 611 1110 q 536 1013 569 1036 q 454 990 503 990 z "},"Ě":{"ha":821,"x_min":81,"x_max":739,"o":"m 81 -14 l 89 50 q 174 83 151 58 q 197 167 197 107 l 199 750 q 189 810 199 794 q 147 825 179 825 q 125 824 139 825 q 100 822 111 824 l 97 828 l 107 889 q 164 888 131 889 q 233 885 197 886 q 300 885 269 885 q 487 886 411 885 q 617 892 563 888 q 717 901 671 896 l 721 893 q 707 819 714 860 q 696 738 700 778 q 689 663 692 697 l 622 657 q 624 688 624 669 q 625 717 625 707 q 619 770 625 750 q 592 800 613 790 q 529 813 572 810 q 413 815 486 815 q 347 813 368 815 q 322 799 326 810 q 315 761 317 788 l 301 438 l 296 146 q 303 91 296 108 q 333 68 310 74 q 406 63 356 63 q 538 68 488 63 q 614 90 588 74 q 653 141 640 107 q 674 232 665 175 l 735 239 l 739 232 q 719 122 729 189 q 701 -1 708 56 l 694 -10 q 528 -5 611 -7 q 379 -1 446 -3 q 274 0 313 0 q 176 -3 231 0 q 81 -14 121 -7 m 282 408 l 294 492 q 332 492 304 492 q 392 491 360 492 q 447 490 424 490 q 520 495 471 490 q 617 506 569 500 l 622 499 l 603 417 q 506 419 564 418 q 408 421 449 421 q 347 417 382 421 q 282 408 311 414 m 421 978 q 404 992 421 978 q 359 1030 388 1007 q 297 1080 331 1053 q 229 1132 263 1107 l 249 1163 l 261 1164 q 356 1112 310 1136 q 431 1074 403 1088 q 505 1111 460 1088 q 600 1164 550 1135 l 613 1163 l 632 1132 q 565 1080 599 1107 q 502 1030 531 1053 q 457 992 474 1007 q 440 978 440 978 l 421 978 z "},"Ḝ":{"ha":821,"x_min":81,"x_max":739,"o":"m 81 -14 l 89 50 q 174 83 151 58 q 197 167 197 107 l 199 750 q 189 810 199 794 q 147 825 179 825 q 125 824 139 825 q 100 822 111 824 l 97 828 l 107 889 q 164 888 131 889 q 233 885 197 886 q 300 885 269 885 q 487 886 411 885 q 617 892 563 888 q 717 901 671 896 l 721 893 q 707 819 714 860 q 696 738 700 778 q 689 663 692 697 l 622 657 q 624 688 624 669 q 625 717 625 707 q 619 770 625 750 q 592 800 613 790 q 529 813 572 810 q 413 815 486 815 q 347 813 368 815 q 322 799 326 810 q 315 761 317 788 l 301 438 l 296 146 q 303 91 296 108 q 333 68 310 74 q 406 63 356 63 q 538 68 488 63 q 614 90 588 74 q 653 141 640 107 q 674 232 665 175 l 735 239 l 739 232 q 719 122 729 189 q 701 -1 708 56 l 694 -10 q 528 -5 611 -7 q 379 -1 446 -3 q 274 0 313 0 q 176 -3 231 0 q 81 -14 121 -7 m 282 408 l 294 492 q 332 492 304 492 q 392 491 360 492 q 447 490 424 490 q 520 495 471 490 q 617 506 569 500 l 622 499 l 603 417 q 506 419 564 418 q 408 421 449 421 q 347 417 382 421 q 282 408 311 414 m 418 -324 q 376 -318 397 -324 q 339 -301 354 -312 q 324 -274 324 -289 q 336 -236 324 -260 q 358 -196 349 -212 l 371 -196 q 393 -255 372 -235 q 447 -275 414 -275 q 494 -260 475 -275 q 514 -222 514 -246 q 496 -187 514 -206 q 451 -151 478 -169 q 396 -118 424 -133 l 442 32 l 501 32 l 467 -69 q 517 -104 490 -85 q 565 -145 544 -124 q 585 -193 585 -167 q 559 -259 585 -229 q 495 -306 533 -289 q 418 -324 457 -324 m 453 986 q 372 1006 406 986 q 317 1058 338 1026 q 286 1122 296 1089 l 308 1136 l 319 1136 q 374 1084 338 1101 q 453 1067 410 1067 q 533 1084 497 1067 q 586 1136 568 1101 l 597 1136 l 619 1122 q 589 1058 610 1089 q 535 1006 568 1026 q 453 986 501 986 z "},"Ê":{"ha":821,"x_min":81,"x_max":739,"o":"m 81 -14 l 89 50 q 174 83 151 58 q 197 167 197 107 l 199 750 q 189 810 199 794 q 147 825 179 825 q 125 824 139 825 q 100 822 111 824 l 97 828 l 107 889 q 164 888 131 889 q 233 885 197 886 q 300 885 269 885 q 487 886 411 885 q 617 892 563 888 q 717 901 671 896 l 721 893 q 707 819 714 860 q 696 738 700 778 q 689 663 692 697 l 622 657 q 624 688 624 669 q 625 717 625 707 q 619 770 625 750 q 592 800 613 790 q 529 813 572 810 q 413 815 486 815 q 347 813 368 815 q 322 799 326 810 q 315 761 317 788 l 301 438 l 296 146 q 303 91 296 108 q 333 68 310 74 q 406 63 356 63 q 538 68 488 63 q 614 90 588 74 q 653 141 640 107 q 674 232 665 175 l 735 239 l 739 232 q 719 122 729 189 q 701 -1 708 56 l 694 -10 q 528 -5 611 -7 q 379 -1 446 -3 q 274 0 313 0 q 176 -3 231 0 q 81 -14 121 -7 m 282 408 l 294 492 q 332 492 304 492 q 392 491 360 492 q 447 490 424 490 q 520 495 471 490 q 617 506 569 500 l 622 499 l 603 417 q 506 419 564 418 q 408 421 449 421 q 347 417 382 421 q 282 408 311 414 m 261 989 l 249 990 l 229 1021 q 297 1073 263 1046 q 359 1123 331 1100 q 404 1160 388 1146 q 421 1175 421 1175 l 440 1175 q 457 1160 440 1175 q 502 1123 474 1146 q 565 1073 531 1100 q 632 1021 599 1046 l 613 990 l 600 989 q 505 1041 551 1017 q 431 1079 458 1065 q 356 1042 401 1065 q 261 989 311 1018 z "},"Ế":{"ha":821,"x_min":81,"x_max":739,"o":"m 81 -14 l 89 50 q 174 83 151 58 q 197 167 197 107 l 199 750 q 189 810 199 794 q 147 825 179 825 q 125 824 139 825 q 100 822 111 824 l 97 828 l 107 889 q 164 888 131 889 q 233 885 197 886 q 300 885 269 885 q 487 886 411 885 q 617 892 563 888 q 717 901 671 896 l 721 893 q 707 819 714 860 q 696 738 700 778 q 689 663 692 697 l 622 657 q 624 688 624 669 q 625 717 625 707 q 619 770 625 750 q 592 800 613 790 q 529 813 572 810 q 413 815 486 815 q 347 813 368 815 q 322 799 326 810 q 315 761 317 788 l 301 438 l 296 146 q 303 91 296 108 q 333 68 310 74 q 406 63 356 63 q 538 68 488 63 q 614 90 588 74 q 653 141 640 107 q 674 232 665 175 l 735 239 l 739 232 q 719 122 729 189 q 701 -1 708 56 l 694 -10 q 528 -5 611 -7 q 379 -1 446 -3 q 274 0 313 0 q 176 -3 231 0 q 81 -14 121 -7 m 282 408 l 294 492 q 332 492 304 492 q 392 491 360 492 q 447 490 424 490 q 520 495 471 490 q 617 506 569 500 l 622 499 l 603 417 q 506 419 564 418 q 408 421 449 421 q 347 417 382 421 q 282 408 311 414 m 285 928 l 272 929 l 253 960 q 320 1012 286 985 q 383 1062 354 1039 q 428 1099 411 1085 q 444 1114 444 1114 l 464 1114 q 493 1090 464 1114 q 567 1030 522 1065 q 656 960 611 994 l 636 929 l 624 928 q 528 980 575 956 q 454 1018 482 1004 q 380 981 425 1004 q 285 928 335 957 m 593 1069 l 560 1089 l 642 1271 l 657 1272 l 714 1236 l 717 1221 l 606 1071 l 593 1069 z "},"Ệ":{"ha":821,"x_min":81,"x_max":739,"o":"m 81 -14 l 89 50 q 174 83 151 58 q 197 167 197 107 l 199 750 q 189 810 199 794 q 147 825 179 825 q 125 824 139 825 q 100 822 111 824 l 97 828 l 107 889 q 164 888 131 889 q 233 885 197 886 q 300 885 269 885 q 487 886 411 885 q 617 892 563 888 q 717 901 671 896 l 721 893 q 707 819 714 860 q 696 738 700 778 q 689 663 692 697 l 622 657 q 624 688 624 669 q 625 717 625 707 q 619 770 625 750 q 592 800 613 790 q 529 813 572 810 q 413 815 486 815 q 347 813 368 815 q 322 799 326 810 q 315 761 317 788 l 301 438 l 296 146 q 303 91 296 108 q 333 68 310 74 q 406 63 356 63 q 538 68 488 63 q 614 90 588 74 q 653 141 640 107 q 674 232 665 175 l 735 239 l 739 232 q 719 122 729 189 q 701 -1 708 56 l 694 -10 q 528 -5 611 -7 q 379 -1 446 -3 q 274 0 313 0 q 176 -3 231 0 q 81 -14 121 -7 m 282 408 l 294 492 q 332 492 304 492 q 392 491 360 492 q 447 490 424 490 q 520 495 471 490 q 617 506 569 500 l 622 499 l 603 417 q 506 419 564 418 q 408 421 449 421 q 347 417 382 421 q 282 408 311 414 m 261 989 l 249 990 l 229 1021 q 297 1073 263 1046 q 359 1123 331 1100 q 404 1160 388 1146 q 421 1175 421 1175 l 440 1175 q 457 1160 440 1175 q 502 1123 474 1146 q 565 1073 531 1100 q 632 1021 599 1046 l 613 990 l 600 989 q 505 1041 551 1017 q 431 1079 458 1065 q 356 1042 401 1065 q 261 989 311 1018 m 407 -267 q 349 -242 368 -267 q 329 -187 329 -218 q 353 -126 329 -151 q 415 -101 376 -101 q 474 -125 454 -101 q 494 -181 494 -149 q 471 -241 494 -215 q 407 -267 447 -267 z "},"Ề":{"ha":821,"x_min":81,"x_max":739,"o":"m 81 -14 l 89 50 q 174 83 151 58 q 197 167 197 107 l 199 750 q 189 810 199 794 q 147 825 179 825 q 125 824 139 825 q 100 822 111 824 l 97 828 l 107 889 q 164 888 131 889 q 233 885 197 886 q 300 885 269 885 q 487 886 411 885 q 617 892 563 888 q 717 901 671 896 l 721 893 q 707 819 714 860 q 696 738 700 778 q 689 663 692 697 l 622 657 q 624 688 624 669 q 625 717 625 707 q 619 770 625 750 q 592 800 613 790 q 529 813 572 810 q 413 815 486 815 q 347 813 368 815 q 322 799 326 810 q 315 761 317 788 l 301 438 l 296 146 q 303 91 296 108 q 333 68 310 74 q 406 63 356 63 q 538 68 488 63 q 614 90 588 74 q 653 141 640 107 q 674 232 665 175 l 735 239 l 739 232 q 719 122 729 189 q 701 -1 708 56 l 694 -10 q 528 -5 611 -7 q 379 -1 446 -3 q 274 0 313 0 q 176 -3 231 0 q 81 -14 121 -7 m 282 408 l 294 492 q 332 492 304 492 q 392 491 360 492 q 447 490 424 490 q 520 495 471 490 q 617 506 569 500 l 622 499 l 603 417 q 506 419 564 418 q 408 421 449 421 q 347 417 382 421 q 282 408 311 414 m 624 1060 l 611 1061 l 500 1211 l 503 1226 l 560 1263 l 575 1261 l 657 1079 l 624 1060 m 253 960 q 320 1012 286 985 q 383 1062 354 1039 q 428 1099 411 1085 q 444 1114 444 1114 l 464 1114 q 493 1090 464 1114 q 567 1030 522 1065 q 656 960 611 994 l 636 929 l 624 928 q 528 980 575 956 q 454 1018 482 1004 q 380 981 425 1004 q 285 928 335 957 l 272 929 l 253 960 z "},"Ể":{"ha":821,"x_min":81,"x_max":739,"o":"m 81 -14 l 89 50 q 174 83 151 58 q 197 167 197 107 l 199 750 q 189 810 199 794 q 147 825 179 825 q 125 824 139 825 q 100 822 111 824 l 97 828 l 107 889 q 164 888 131 889 q 233 885 197 886 q 300 885 269 885 q 487 886 411 885 q 617 892 563 888 q 717 901 671 896 l 721 893 q 707 819 714 860 q 696 738 700 778 q 689 663 692 697 l 622 657 q 624 688 624 669 q 625 717 625 707 q 619 770 625 750 q 592 800 613 790 q 529 813 572 810 q 413 815 486 815 q 347 813 368 815 q 322 799 326 810 q 315 761 317 788 l 301 438 l 296 146 q 303 91 296 108 q 333 68 310 74 q 406 63 356 63 q 538 68 488 63 q 614 90 588 74 q 653 141 640 107 q 674 232 665 175 l 735 239 l 739 232 q 719 122 729 189 q 701 -1 708 56 l 694 -10 q 528 -5 611 -7 q 379 -1 446 -3 q 274 0 313 0 q 176 -3 231 0 q 81 -14 121 -7 m 282 408 l 294 492 q 332 492 304 492 q 392 491 360 492 q 447 490 424 490 q 520 495 471 490 q 617 506 569 500 l 622 499 l 603 417 q 506 419 564 418 q 408 421 449 421 q 347 417 382 421 q 282 408 311 414 m 604 1049 l 564 1118 q 615 1162 600 1144 q 629 1197 629 1179 q 617 1220 629 1213 q 585 1228 604 1228 q 550 1222 567 1228 q 523 1210 533 1217 q 513 1204 513 1204 l 499 1225 q 513 1238 499 1225 q 549 1267 526 1251 q 594 1290 571 1282 q 671 1271 643 1290 q 699 1217 699 1251 q 679 1168 699 1196 q 624 1114 660 1140 l 650 1069 l 604 1049 m 253 960 q 320 1012 286 985 q 383 1062 354 1039 q 428 1099 411 1085 q 444 1114 444 1114 l 464 1114 q 493 1090 464 1114 q 567 1030 522 1065 q 656 960 611 994 l 636 929 l 624 928 q 528 980 575 956 q 454 1018 482 1004 q 380 981 425 1004 q 285 928 335 957 l 272 929 l 253 960 z "},"Ễ":{"ha":821,"x_min":81,"x_max":739,"o":"m 81 -14 l 89 50 q 174 83 151 58 q 197 167 197 107 l 199 750 q 189 810 199 794 q 147 825 179 825 q 125 824 139 825 q 100 822 111 824 l 97 828 l 107 889 q 164 888 131 889 q 233 885 197 886 q 300 885 269 885 q 487 886 411 885 q 617 892 563 888 q 717 901 671 896 l 721 893 q 707 819 714 860 q 696 738 700 778 q 689 663 692 697 l 622 657 q 624 688 624 669 q 625 717 625 707 q 619 770 625 750 q 592 800 613 790 q 529 813 572 810 q 413 815 486 815 q 347 813 368 815 q 322 799 326 810 q 315 761 317 788 l 301 438 l 296 146 q 303 91 296 108 q 333 68 310 74 q 406 63 356 63 q 538 68 488 63 q 614 90 588 74 q 653 141 640 107 q 674 232 665 175 l 735 239 l 739 232 q 719 122 729 189 q 701 -1 708 56 l 694 -10 q 528 -5 611 -7 q 379 -1 446 -3 q 274 0 313 0 q 176 -3 231 0 q 81 -14 121 -7 m 282 408 l 294 492 q 332 492 304 492 q 392 491 360 492 q 447 490 424 490 q 520 495 471 490 q 617 506 569 500 l 622 499 l 603 417 q 506 419 564 418 q 408 421 449 421 q 347 417 382 421 q 282 408 311 414 m 253 960 q 320 1012 286 985 q 383 1062 354 1039 q 428 1099 411 1085 q 444 1114 444 1114 l 464 1114 q 493 1090 464 1114 q 567 1030 522 1065 q 656 960 611 994 l 636 929 l 624 928 q 528 980 575 956 q 454 1018 482 1004 q 380 981 425 1004 q 285 928 335 957 l 272 929 l 253 960 m 282 1133 l 256 1158 l 256 1164 l 347 1258 l 367 1263 q 421 1253 386 1263 q 490 1233 456 1243 q 542 1222 525 1222 q 573 1236 556 1222 q 603 1263 590 1250 q 617 1276 617 1276 l 625 1276 l 651 1251 l 651 1246 l 560 1151 l 540 1147 q 486 1158 521 1147 q 417 1178 451 1168 q 365 1188 383 1188 q 333 1174 351 1188 q 303 1147 315 1161 q 290 1133 290 1133 l 282 1133 z "},"Ȅ":{"ha":821,"x_min":81,"x_max":739,"o":"m 81 -14 l 89 50 q 174 83 151 58 q 197 167 197 107 l 199 750 q 189 810 199 794 q 147 825 179 825 q 125 824 139 825 q 100 822 111 824 l 97 828 l 107 889 q 164 888 131 889 q 233 885 197 886 q 300 885 269 885 q 487 886 411 885 q 617 892 563 888 q 717 901 671 896 l 721 893 q 707 819 714 860 q 696 738 700 778 q 689 663 692 697 l 622 657 q 624 688 624 669 q 625 717 625 707 q 619 770 625 750 q 592 800 613 790 q 529 813 572 810 q 413 815 486 815 q 347 813 368 815 q 322 799 326 810 q 315 761 317 788 l 301 438 l 296 146 q 303 91 296 108 q 333 68 310 74 q 406 63 356 63 q 538 68 488 63 q 614 90 588 74 q 653 141 640 107 q 674 232 665 175 l 735 239 l 739 232 q 719 122 729 189 q 701 -1 708 56 l 694 -10 q 528 -5 611 -7 q 379 -1 446 -3 q 274 0 313 0 q 176 -3 231 0 q 81 -14 121 -7 m 282 408 l 294 492 q 332 492 304 492 q 392 491 360 492 q 447 490 424 490 q 520 495 471 490 q 617 506 569 500 l 622 499 l 603 417 q 506 419 564 418 q 408 421 449 421 q 347 417 382 421 q 282 408 311 414 m 611 964 q 501 1024 553 997 q 416 1068 449 1051 q 383 1085 383 1085 l 379 1097 l 410 1157 l 422 1163 q 454 1138 422 1163 q 535 1075 486 1113 q 635 1000 585 1038 l 622 971 l 611 964 m 417 951 q 306 1012 358 985 q 222 1056 254 1039 q 189 1072 189 1072 l 185 1085 l 215 1143 l 228 1150 q 260 1125 228 1150 q 341 1062 292 1100 q 440 986 390 1024 l 426 957 l 417 951 z "},"Ë":{"ha":821,"x_min":81,"x_max":739,"o":"m 81 -14 l 89 50 q 174 83 151 58 q 197 167 197 107 l 199 750 q 189 810 199 794 q 147 825 179 825 q 125 824 139 825 q 100 822 111 824 l 97 828 l 107 889 q 164 888 131 889 q 233 885 197 886 q 300 885 269 885 q 487 886 411 885 q 617 892 563 888 q 717 901 671 896 l 721 893 q 707 819 714 860 q 696 738 700 778 q 689 663 692 697 l 622 657 q 624 688 624 669 q 625 717 625 707 q 619 770 625 750 q 592 800 613 790 q 529 813 572 810 q 413 815 486 815 q 347 813 368 815 q 322 799 326 810 q 315 761 317 788 l 301 438 l 296 146 q 303 91 296 108 q 333 68 310 74 q 406 63 356 63 q 538 68 488 63 q 614 90 588 74 q 653 141 640 107 q 674 232 665 175 l 735 239 l 739 232 q 719 122 729 189 q 701 -1 708 56 l 694 -10 q 528 -5 611 -7 q 379 -1 446 -3 q 274 0 313 0 q 176 -3 231 0 q 81 -14 121 -7 m 282 408 l 294 492 q 332 492 304 492 q 392 491 360 492 q 447 490 424 490 q 520 495 471 490 q 617 506 569 500 l 622 499 l 603 417 q 506 419 564 418 q 408 421 449 421 q 347 417 382 421 q 282 408 311 414 m 539 993 q 497 1012 511 993 q 482 1053 482 1031 q 501 1101 482 1081 q 551 1122 521 1122 q 594 1104 579 1122 q 608 1063 608 1086 q 589 1014 608 1035 q 539 993 569 993 m 308 993 q 266 1012 281 993 q 251 1053 251 1031 q 271 1101 251 1081 q 321 1122 290 1122 q 363 1104 349 1122 q 378 1063 378 1086 q 358 1014 378 1035 q 308 993 339 993 z "},"Ė":{"ha":821,"x_min":81,"x_max":739,"o":"m 81 -14 l 89 50 q 174 83 151 58 q 197 167 197 107 l 199 750 q 189 810 199 794 q 147 825 179 825 q 125 824 139 825 q 100 822 111 824 l 97 828 l 107 889 q 164 888 131 889 q 233 885 197 886 q 300 885 269 885 q 487 886 411 885 q 617 892 563 888 q 717 901 671 896 l 721 893 q 707 819 714 860 q 696 738 700 778 q 689 663 692 697 l 622 657 q 624 688 624 669 q 625 717 625 707 q 619 770 625 750 q 592 800 613 790 q 529 813 572 810 q 413 815 486 815 q 347 813 368 815 q 322 799 326 810 q 315 761 317 788 l 301 438 l 296 146 q 303 91 296 108 q 333 68 310 74 q 406 63 356 63 q 538 68 488 63 q 614 90 588 74 q 653 141 640 107 q 674 232 665 175 l 735 239 l 739 232 q 719 122 729 189 q 701 -1 708 56 l 694 -10 q 528 -5 611 -7 q 379 -1 446 -3 q 274 0 313 0 q 176 -3 231 0 q 81 -14 121 -7 m 282 408 l 294 492 q 332 492 304 492 q 392 491 360 492 q 447 490 424 490 q 520 495 471 490 q 617 506 569 500 l 622 499 l 603 417 q 506 419 564 418 q 408 421 449 421 q 347 417 382 421 q 282 408 311 414 m 424 985 q 372 1007 389 985 q 356 1056 356 1029 q 379 1113 356 1089 q 438 1138 403 1138 q 488 1116 471 1138 q 506 1067 506 1094 q 483 1009 506 1033 q 424 985 460 985 z "},"Ẹ":{"ha":821,"x_min":81,"x_max":739,"o":"m 81 -14 l 89 50 q 174 83 151 58 q 197 167 197 107 l 199 750 q 189 810 199 794 q 147 825 179 825 q 125 824 139 825 q 100 822 111 824 l 97 828 l 107 889 q 164 888 131 889 q 233 885 197 886 q 300 885 269 885 q 487 886 411 885 q 617 892 563 888 q 717 901 671 896 l 721 893 q 707 819 714 860 q 696 738 700 778 q 689 663 692 697 l 622 657 q 624 688 624 669 q 625 717 625 707 q 619 770 625 750 q 592 800 613 790 q 529 813 572 810 q 413 815 486 815 q 347 813 368 815 q 322 799 326 810 q 315 761 317 788 l 301 438 l 296 146 q 303 91 296 108 q 333 68 310 74 q 406 63 356 63 q 538 68 488 63 q 614 90 588 74 q 653 141 640 107 q 674 232 665 175 l 735 239 l 739 232 q 719 122 729 189 q 701 -1 708 56 l 694 -10 q 528 -5 611 -7 q 379 -1 446 -3 q 274 0 313 0 q 176 -3 231 0 q 81 -14 121 -7 m 282 408 l 294 492 q 332 492 304 492 q 392 491 360 492 q 447 490 424 490 q 520 495 471 490 q 617 506 569 500 l 622 499 l 603 417 q 506 419 564 418 q 408 421 449 421 q 347 417 382 421 q 282 408 311 414 m 407 -267 q 349 -242 368 -267 q 329 -187 329 -218 q 353 -126 329 -151 q 415 -101 376 -101 q 474 -125 454 -101 q 494 -181 494 -149 q 471 -241 494 -215 q 407 -267 447 -267 z "},"È":{"ha":821,"x_min":81,"x_max":739,"o":"m 81 -14 l 89 50 q 174 83 151 58 q 197 167 197 107 l 199 750 q 189 810 199 794 q 147 825 179 825 q 125 824 139 825 q 100 822 111 824 l 97 828 l 107 889 q 164 888 131 889 q 233 885 197 886 q 300 885 269 885 q 487 886 411 885 q 617 892 563 888 q 717 901 671 896 l 721 893 q 707 819 714 860 q 696 738 700 778 q 689 663 692 697 l 622 657 q 624 688 624 669 q 625 717 625 707 q 619 770 625 750 q 592 800 613 790 q 529 813 572 810 q 413 815 486 815 q 347 813 368 815 q 322 799 326 810 q 315 761 317 788 l 301 438 l 296 146 q 303 91 296 108 q 333 68 310 74 q 406 63 356 63 q 538 68 488 63 q 614 90 588 74 q 653 141 640 107 q 674 232 665 175 l 735 239 l 739 232 q 719 122 729 189 q 701 -1 708 56 l 694 -10 q 528 -5 611 -7 q 379 -1 446 -3 q 274 0 313 0 q 176 -3 231 0 q 81 -14 121 -7 m 282 408 l 294 492 q 332 492 304 492 q 392 491 360 492 q 447 490 424 490 q 520 495 471 490 q 617 506 569 500 l 622 499 l 603 417 q 506 419 564 418 q 408 421 449 421 q 347 417 382 421 q 282 408 311 414 m 510 976 q 404 1016 456 997 q 312 1049 353 1035 q 247 1071 271 1063 q 224 1079 224 1079 l 218 1093 l 240 1160 l 253 1168 q 277 1154 253 1168 q 342 1118 301 1140 q 431 1069 382 1096 q 529 1017 481 1042 l 521 983 l 510 976 z "},"Ẻ":{"ha":821,"x_min":81,"x_max":739,"o":"m 81 -14 l 89 50 q 174 83 151 58 q 197 167 197 107 l 199 750 q 189 810 199 794 q 147 825 179 825 q 125 824 139 825 q 100 822 111 824 l 97 828 l 107 889 q 164 888 131 889 q 233 885 197 886 q 300 885 269 885 q 487 886 411 885 q 617 892 563 888 q 717 901 671 896 l 721 893 q 707 819 714 860 q 696 738 700 778 q 689 663 692 697 l 622 657 q 624 688 624 669 q 625 717 625 707 q 619 770 625 750 q 592 800 613 790 q 529 813 572 810 q 413 815 486 815 q 347 813 368 815 q 322 799 326 810 q 315 761 317 788 l 301 438 l 296 146 q 303 91 296 108 q 333 68 310 74 q 406 63 356 63 q 538 68 488 63 q 614 90 588 74 q 653 141 640 107 q 674 232 665 175 l 735 239 l 739 232 q 719 122 729 189 q 701 -1 708 56 l 694 -10 q 528 -5 611 -7 q 379 -1 446 -3 q 274 0 313 0 q 176 -3 231 0 q 81 -14 121 -7 m 282 408 l 294 492 q 332 492 304 492 q 392 491 360 492 q 447 490 424 490 q 520 495 471 490 q 617 506 569 500 l 622 499 l 603 417 q 506 419 564 418 q 408 421 449 421 q 347 417 382 421 q 282 408 311 414 m 444 971 l 400 1047 q 456 1096 440 1076 q 472 1135 472 1115 q 459 1159 472 1150 q 424 1168 446 1168 q 385 1162 403 1168 q 356 1149 367 1156 q 344 1142 344 1142 l 329 1165 q 344 1179 329 1165 q 384 1210 360 1193 q 435 1238 408 1228 q 518 1216 488 1238 q 549 1156 549 1194 q 527 1102 549 1133 q 467 1043 506 1071 l 496 994 l 444 971 z "},"Ȇ":{"ha":821,"x_min":81,"x_max":739,"o":"m 81 -14 l 89 50 q 174 83 151 58 q 197 167 197 107 l 199 750 q 189 810 199 794 q 147 825 179 825 q 125 824 139 825 q 100 822 111 824 l 97 828 l 107 889 q 164 888 131 889 q 233 885 197 886 q 300 885 269 885 q 487 886 411 885 q 617 892 563 888 q 717 901 671 896 l 721 893 q 707 819 714 860 q 696 738 700 778 q 689 663 692 697 l 622 657 q 624 688 624 669 q 625 717 625 707 q 619 770 625 750 q 592 800 613 790 q 529 813 572 810 q 413 815 486 815 q 347 813 368 815 q 322 799 326 810 q 315 761 317 788 l 301 438 l 296 146 q 303 91 296 108 q 333 68 310 74 q 406 63 356 63 q 538 68 488 63 q 614 90 588 74 q 653 141 640 107 q 674 232 665 175 l 735 239 l 739 232 q 719 122 729 189 q 701 -1 708 56 l 694 -10 q 528 -5 611 -7 q 379 -1 446 -3 q 274 0 313 0 q 176 -3 231 0 q 81 -14 121 -7 m 282 408 l 294 492 q 332 492 304 492 q 392 491 360 492 q 447 490 424 490 q 520 495 471 490 q 617 506 569 500 l 622 499 l 603 417 q 506 419 564 418 q 408 421 449 421 q 347 417 382 421 q 282 408 311 414 m 453 1110 q 374 1087 410 1110 q 319 1018 338 1064 l 308 1018 l 286 1032 q 317 1108 296 1072 q 372 1167 338 1144 q 453 1190 406 1190 q 535 1167 501 1190 q 589 1108 568 1144 q 619 1032 610 1072 l 597 1018 l 586 1018 q 533 1087 568 1064 q 453 1110 497 1110 z "},"Ē":{"ha":821,"x_min":81,"x_max":739,"o":"m 81 -14 l 89 50 q 174 83 151 58 q 197 167 197 107 l 199 750 q 189 810 199 794 q 147 825 179 825 q 125 824 139 825 q 100 822 111 824 l 97 828 l 107 889 q 164 888 131 889 q 233 885 197 886 q 300 885 269 885 q 487 886 411 885 q 617 892 563 888 q 717 901 671 896 l 721 893 q 707 819 714 860 q 696 738 700 778 q 689 663 692 697 l 622 657 q 624 688 624 669 q 625 717 625 707 q 619 770 625 750 q 592 800 613 790 q 529 813 572 810 q 413 815 486 815 q 347 813 368 815 q 322 799 326 810 q 315 761 317 788 l 301 438 l 296 146 q 303 91 296 108 q 333 68 310 74 q 406 63 356 63 q 538 68 488 63 q 614 90 588 74 q 653 141 640 107 q 674 232 665 175 l 735 239 l 739 232 q 719 122 729 189 q 701 -1 708 56 l 694 -10 q 528 -5 611 -7 q 379 -1 446 -3 q 274 0 313 0 q 176 -3 231 0 q 81 -14 121 -7 m 282 408 l 294 492 q 332 492 304 492 q 392 491 360 492 q 447 490 424 490 q 520 495 471 490 q 617 506 569 500 l 622 499 l 603 417 q 506 419 564 418 q 408 421 449 421 q 347 417 382 421 q 282 408 311 414 m 231 999 l 222 1011 l 236 1074 q 258 1074 236 1074 q 313 1073 279 1074 q 383 1072 346 1072 q 450 1072 419 1072 q 526 1074 485 1072 q 599 1078 568 1076 q 629 1081 629 1081 l 638 1067 l 628 1001 l 431 1000 q 343 1000 390 1000 q 263 999 296 1000 q 231 999 231 999 z "},"Ḗ":{"ha":821,"x_min":81,"x_max":739,"o":"m 81 -14 l 89 50 q 174 83 151 58 q 197 167 197 107 l 199 750 q 189 810 199 794 q 147 825 179 825 q 125 824 139 825 q 100 822 111 824 l 97 828 l 107 889 q 164 888 131 889 q 233 885 197 886 q 300 885 269 885 q 487 886 411 885 q 617 892 563 888 q 717 901 671 896 l 721 893 q 707 819 714 860 q 696 738 700 778 q 689 663 692 697 l 622 657 q 624 688 624 669 q 625 717 625 707 q 619 770 625 750 q 592 800 613 790 q 529 813 572 810 q 413 815 486 815 q 347 813 368 815 q 322 799 326 810 q 315 761 317 788 l 301 438 l 296 146 q 303 91 296 108 q 333 68 310 74 q 406 63 356 63 q 538 68 488 63 q 614 90 588 74 q 653 141 640 107 q 674 232 665 175 l 735 239 l 739 232 q 719 122 729 189 q 701 -1 708 56 l 694 -10 q 528 -5 611 -7 q 379 -1 446 -3 q 274 0 313 0 q 176 -3 231 0 q 81 -14 121 -7 m 282 408 l 294 492 q 332 492 304 492 q 392 491 360 492 q 447 490 424 490 q 520 495 471 490 q 617 506 569 500 l 622 499 l 603 417 q 506 419 564 418 q 408 421 449 421 q 347 417 382 421 q 282 408 311 414 m 253 1006 l 244 1018 l 258 1081 q 280 1081 258 1081 q 335 1080 301 1081 q 405 1079 368 1079 q 472 1079 442 1079 q 549 1081 507 1079 q 621 1085 590 1083 q 651 1088 651 1088 l 660 1074 l 650 1008 l 453 1007 q 365 1007 413 1007 q 285 1006 318 1007 q 253 1006 253 1006 m 313 1138 l 301 1144 l 293 1178 q 391 1230 342 1203 q 481 1279 440 1257 q 545 1315 521 1301 q 569 1329 569 1329 l 582 1321 l 604 1254 l 599 1240 q 575 1232 599 1240 q 510 1210 551 1224 q 418 1177 469 1196 q 313 1138 367 1158 z "},"Ḕ":{"ha":821,"x_min":81,"x_max":739,"o":"m 81 -14 l 89 50 q 174 83 151 58 q 197 167 197 107 l 199 750 q 189 810 199 794 q 147 825 179 825 q 125 824 139 825 q 100 822 111 824 l 97 828 l 107 889 q 164 888 131 889 q 233 885 197 886 q 300 885 269 885 q 487 886 411 885 q 617 892 563 888 q 717 901 671 896 l 721 893 q 707 819 714 860 q 696 738 700 778 q 689 663 692 697 l 622 657 q 624 688 624 669 q 625 717 625 707 q 619 770 625 750 q 592 800 613 790 q 529 813 572 810 q 413 815 486 815 q 347 813 368 815 q 322 799 326 810 q 315 761 317 788 l 301 438 l 296 146 q 303 91 296 108 q 333 68 310 74 q 406 63 356 63 q 538 68 488 63 q 614 90 588 74 q 653 141 640 107 q 674 232 665 175 l 735 239 l 739 232 q 719 122 729 189 q 701 -1 708 56 l 694 -10 q 528 -5 611 -7 q 379 -1 446 -3 q 274 0 313 0 q 176 -3 231 0 q 81 -14 121 -7 m 282 408 l 294 492 q 332 492 304 492 q 392 491 360 492 q 447 490 424 490 q 520 495 471 490 q 617 506 569 500 l 622 499 l 603 417 q 506 419 564 418 q 408 421 449 421 q 347 417 382 421 q 282 408 311 414 m 253 1006 l 244 1018 l 258 1081 q 280 1081 258 1081 q 335 1080 301 1081 q 405 1079 368 1079 q 472 1079 442 1079 q 549 1081 507 1079 q 621 1085 590 1083 q 651 1088 651 1088 l 660 1074 l 650 1008 l 453 1007 q 365 1007 413 1007 q 285 1006 318 1007 q 253 1006 253 1006 m 600 1138 q 494 1177 546 1158 q 402 1210 443 1196 q 338 1232 361 1224 q 314 1240 314 1240 l 308 1254 l 331 1321 l 343 1329 q 367 1315 343 1329 q 432 1279 392 1301 q 522 1230 472 1257 q 619 1178 571 1203 l 611 1144 l 600 1138 z "},"Ę":{"ha":821,"x_min":81,"x_max":739,"o":"m 81 -14 l 89 50 q 174 83 151 58 q 197 167 197 107 l 199 750 q 189 810 199 794 q 147 825 179 825 q 125 824 139 825 q 100 822 111 824 l 97 828 l 107 889 q 164 888 131 889 q 233 885 197 886 q 300 885 269 885 q 487 886 411 885 q 617 892 563 888 q 717 901 671 896 l 721 893 q 707 819 714 860 q 696 738 700 778 q 689 663 692 697 l 622 657 q 624 688 624 669 q 625 717 625 707 q 619 770 625 750 q 592 800 613 790 q 529 813 572 810 q 413 815 486 815 q 347 813 368 815 q 322 799 326 810 q 315 761 317 788 l 301 438 l 296 146 q 303 91 296 108 q 333 68 310 74 q 406 63 356 63 q 538 68 488 63 q 614 90 588 74 q 653 141 640 107 q 674 232 665 175 l 735 239 l 739 232 q 719 122 729 189 q 701 -1 708 56 l 694 -10 q 528 -5 611 -7 q 379 -1 446 -3 q 274 0 313 0 q 176 -3 231 0 q 81 -14 121 -7 m 282 408 l 294 492 q 332 492 304 492 q 392 491 360 492 q 447 490 424 490 q 520 495 471 490 q 617 506 569 500 l 622 499 l 603 417 q 506 419 564 418 q 408 421 449 421 q 347 417 382 421 q 282 408 311 414 m 594 -335 q 483 -299 526 -335 q 440 -208 440 -264 q 447 -161 440 -183 q 474 -111 454 -139 q 532 -43 494 -83 q 631 58 569 -3 l 689 58 q 588 -51 624 -10 q 540 -119 553 -92 q 528 -174 528 -146 q 549 -231 528 -210 q 608 -253 571 -253 q 663 -244 632 -253 q 715 -221 693 -235 l 733 -247 q 666 -299 706 -274 q 594 -335 626 -324 z "},"Ẽ":{"ha":821,"x_min":81,"x_max":739,"o":"m 81 -14 l 89 50 q 174 83 151 58 q 197 167 197 107 l 199 750 q 189 810 199 794 q 147 825 179 825 q 125 824 139 825 q 100 822 111 824 l 97 828 l 107 889 q 164 888 131 889 q 233 885 197 886 q 300 885 269 885 q 487 886 411 885 q 617 892 563 888 q 717 901 671 896 l 721 893 q 707 819 714 860 q 696 738 700 778 q 689 663 692 697 l 622 657 q 624 688 624 669 q 625 717 625 707 q 619 770 625 750 q 592 800 613 790 q 529 813 572 810 q 413 815 486 815 q 347 813 368 815 q 322 799 326 810 q 315 761 317 788 l 301 438 l 296 146 q 303 91 296 108 q 333 68 310 74 q 406 63 356 63 q 538 68 488 63 q 614 90 588 74 q 653 141 640 107 q 674 232 665 175 l 735 239 l 739 232 q 719 122 729 189 q 701 -1 708 56 l 694 -10 q 528 -5 611 -7 q 379 -1 446 -3 q 274 0 313 0 q 176 -3 231 0 q 81 -14 121 -7 m 282 408 l 294 492 q 332 492 304 492 q 392 491 360 492 q 447 490 424 490 q 520 495 471 490 q 617 506 569 500 l 622 499 l 603 417 q 506 419 564 418 q 408 421 449 421 q 347 417 382 421 q 282 408 311 414 m 233 971 l 203 1000 l 203 1007 l 308 1117 l 331 1122 q 376 1115 347 1122 q 435 1099 404 1108 q 492 1083 465 1090 q 533 1076 519 1076 q 560 1086 546 1076 q 589 1108 575 1096 q 612 1129 603 1119 q 621 1139 621 1139 l 629 1139 l 660 1110 l 660 1103 l 554 993 l 532 988 q 487 994 515 988 q 428 1010 458 1001 q 371 1026 397 1019 q 329 1033 344 1033 q 301 1024 317 1033 q 273 1002 286 1014 q 251 981 260 990 q 242 971 242 971 l 233 971 z "},"Ʒ":{"ha":761,"x_min":104,"x_max":690,"o":"m 325 -17 q 233 -10 283 -17 q 114 8 182 -4 l 108 17 q 112 88 111 58 q 113 153 113 117 q 110 251 113 189 l 121 260 l 175 263 q 219 105 174 156 q 361 54 264 54 q 510 101 457 54 q 564 246 564 149 q 499 390 564 350 q 307 422 435 429 l 300 429 l 307 486 l 336 492 q 596 436 501 497 q 690 261 690 375 q 642 116 690 179 q 512 18 594 53 q 325 -17 429 -17 m 307 486 l 617 849 l 603 785 l 294 785 q 226 773 250 785 q 192 728 203 761 q 174 628 181 694 l 104 625 q 119 741 114 671 q 126 886 125 811 l 139 899 l 367 886 l 663 885 l 682 822 l 375 464 l 307 486 z "},"Ǯ":{"ha":761,"x_min":104,"x_max":690,"o":"m 325 -17 q 233 -10 283 -17 q 114 8 182 -4 l 108 17 q 112 88 111 58 q 113 153 113 117 q 110 251 113 189 l 121 260 l 175 263 q 219 105 174 156 q 361 54 264 54 q 510 101 457 54 q 564 246 564 149 q 499 390 564 350 q 307 422 435 429 l 300 429 l 307 486 l 336 492 q 596 436 501 497 q 690 261 690 375 q 642 116 690 179 q 512 18 594 53 q 325 -17 429 -17 m 307 486 l 617 849 l 603 785 l 294 785 q 226 773 250 785 q 192 728 203 761 q 174 628 181 694 l 104 625 q 119 741 114 671 q 126 886 125 811 l 139 899 l 367 886 l 663 885 l 682 822 l 375 464 l 307 486 m 397 978 q 381 992 397 978 q 335 1030 364 1007 q 273 1080 307 1053 q 206 1132 239 1107 l 225 1163 l 238 1164 q 333 1112 286 1136 q 407 1074 379 1088 q 481 1111 436 1088 q 576 1164 526 1135 l 589 1163 l 608 1132 q 541 1080 575 1107 q 478 1030 507 1053 q 433 992 450 1007 q 417 978 417 978 l 397 978 z "},"F":{"ha":711,"x_min":81,"x_max":694,"o":"m 81 -17 l 89 47 q 176 84 154 60 q 197 167 197 108 l 199 750 q 189 810 199 794 q 147 825 179 825 q 117 824 135 825 q 100 822 100 822 l 97 828 l 107 889 q 125 888 107 889 q 172 887 143 888 q 235 885 201 886 q 300 885 269 885 q 467 886 396 885 q 592 892 538 888 q 690 901 647 896 l 694 893 q 688 861 694 893 q 674 776 682 829 q 663 658 667 722 l 596 653 q 597 678 596 653 q 599 717 599 703 q 588 783 599 763 q 537 810 576 804 q 413 815 497 815 q 347 813 368 815 q 322 799 326 810 q 315 761 317 788 l 304 468 l 447 467 q 503 471 469 467 q 565 478 538 475 q 593 482 593 482 l 599 475 l 579 392 q 550 393 579 392 q 481 395 521 394 q 408 396 442 396 q 349 392 378 396 q 301 386 319 389 l 296 156 q 308 81 296 100 q 357 61 321 61 q 394 63 371 61 q 437 65 418 64 q 456 65 456 65 l 458 60 l 446 -6 q 424 -5 446 -6 q 370 -3 403 -4 q 302 -1 338 -1 q 239 0 267 0 q 167 -4 204 0 q 106 -12 131 -8 q 81 -17 81 -17 z "},"G":{"ha":926,"x_min":56,"x_max":822,"o":"m 461 -17 q 247 36 338 -17 q 106 185 156 89 q 56 413 56 282 q 117 668 56 558 q 288 840 178 778 q 543 901 399 901 q 633 897 586 901 q 721 885 681 892 q 787 873 761 878 q 813 868 813 868 l 818 860 q 811 828 818 860 q 795 744 804 797 q 782 628 786 692 l 717 622 q 719 646 717 622 q 721 697 721 669 q 672 791 721 763 q 511 819 622 819 q 331 777 406 819 q 216 653 256 735 q 176 457 176 572 q 216 244 176 335 q 326 103 256 153 q 493 53 397 53 q 592 66 549 53 q 659 92 635 79 q 683 106 683 106 l 683 275 q 669 336 683 322 q 607 350 654 350 q 569 350 592 350 q 528 350 546 350 q 511 350 511 350 l 508 356 l 521 425 q 548 424 521 425 q 616 421 575 422 q 697 419 657 419 q 755 422 728 419 q 799 425 782 424 q 817 426 817 426 l 822 396 q 797 358 806 382 q 783 293 788 335 q 779 182 779 251 q 782 112 779 146 q 789 60 785 78 l 781 47 q 738 31 781 47 q 622 -1 694 15 q 461 -17 550 -17 z "},"Ğ":{"ha":926,"x_min":56,"x_max":822,"o":"m 461 -17 q 247 36 338 -17 q 106 185 156 89 q 56 413 56 282 q 117 668 56 558 q 288 840 178 778 q 543 901 399 901 q 633 897 586 901 q 721 885 681 892 q 787 873 761 878 q 813 868 813 868 l 818 860 q 811 828 818 860 q 795 744 804 797 q 782 628 786 692 l 717 622 q 719 646 717 622 q 721 697 721 669 q 672 791 721 763 q 511 819 622 819 q 331 777 406 819 q 216 653 256 735 q 176 457 176 572 q 216 244 176 335 q 326 103 256 153 q 493 53 397 53 q 592 66 549 53 q 659 92 635 79 q 683 106 683 106 l 683 275 q 669 336 683 322 q 607 350 654 350 q 569 350 592 350 q 528 350 546 350 q 511 350 511 350 l 508 356 l 521 425 q 548 424 521 425 q 616 421 575 422 q 697 419 657 419 q 755 422 728 419 q 799 425 782 424 q 817 426 817 426 l 822 396 q 797 358 806 382 q 783 293 788 335 q 779 182 779 251 q 782 112 779 146 q 789 60 785 78 l 781 47 q 738 31 781 47 q 622 -1 694 15 q 461 -17 550 -17 m 518 972 q 437 992 471 972 q 382 1044 403 1013 q 351 1108 361 1075 l 374 1122 l 385 1122 q 439 1070 403 1088 q 518 1053 475 1053 q 598 1070 563 1053 q 651 1122 633 1088 l 663 1122 l 685 1108 q 654 1044 675 1075 q 600 992 633 1013 q 518 972 567 972 z "},"Ǧ":{"ha":926,"x_min":56,"x_max":822,"o":"m 461 -17 q 247 36 338 -17 q 106 185 156 89 q 56 413 56 282 q 117 668 56 558 q 288 840 178 778 q 543 901 399 901 q 633 897 586 901 q 721 885 681 892 q 787 873 761 878 q 813 868 813 868 l 818 860 q 811 828 818 860 q 795 744 804 797 q 782 628 786 692 l 717 622 q 719 646 717 622 q 721 697 721 669 q 672 791 721 763 q 511 819 622 819 q 331 777 406 819 q 216 653 256 735 q 176 457 176 572 q 216 244 176 335 q 326 103 256 153 q 493 53 397 53 q 592 66 549 53 q 659 92 635 79 q 683 106 683 106 l 683 275 q 669 336 683 322 q 607 350 654 350 q 569 350 592 350 q 528 350 546 350 q 511 350 511 350 l 508 356 l 521 425 q 548 424 521 425 q 616 421 575 422 q 697 419 657 419 q 755 422 728 419 q 799 425 782 424 q 817 426 817 426 l 822 396 q 797 358 806 382 q 783 293 788 335 q 779 182 779 251 q 782 112 779 146 q 789 60 785 78 l 781 47 q 738 31 781 47 q 622 -1 694 15 q 461 -17 550 -17 m 508 978 q 492 992 508 978 q 447 1030 475 1007 q 384 1080 418 1053 q 317 1132 350 1107 l 336 1163 l 349 1164 q 444 1112 397 1136 q 518 1074 490 1088 q 592 1111 547 1088 q 688 1164 638 1135 l 700 1163 l 719 1132 q 652 1080 686 1107 q 590 1030 618 1053 q 544 992 561 1007 q 528 978 528 978 l 508 978 z "},"Ĝ":{"ha":926,"x_min":56,"x_max":822,"o":"m 461 -17 q 247 36 338 -17 q 106 185 156 89 q 56 413 56 282 q 117 668 56 558 q 288 840 178 778 q 543 901 399 901 q 633 897 586 901 q 721 885 681 892 q 787 873 761 878 q 813 868 813 868 l 818 860 q 811 828 818 860 q 795 744 804 797 q 782 628 786 692 l 717 622 q 719 646 717 622 q 721 697 721 669 q 672 791 721 763 q 511 819 622 819 q 331 777 406 819 q 216 653 256 735 q 176 457 176 572 q 216 244 176 335 q 326 103 256 153 q 493 53 397 53 q 592 66 549 53 q 659 92 635 79 q 683 106 683 106 l 683 275 q 669 336 683 322 q 607 350 654 350 q 569 350 592 350 q 528 350 546 350 q 511 350 511 350 l 508 356 l 521 425 q 548 424 521 425 q 616 421 575 422 q 697 419 657 419 q 755 422 728 419 q 799 425 782 424 q 817 426 817 426 l 822 396 q 797 358 806 382 q 783 293 788 335 q 779 182 779 251 q 782 112 779 146 q 789 60 785 78 l 781 47 q 738 31 781 47 q 622 -1 694 15 q 461 -17 550 -17 m 357 960 l 344 961 l 325 992 q 392 1065 358 1028 q 455 1133 426 1101 q 500 1185 483 1165 q 517 1204 517 1204 l 536 1204 q 553 1185 536 1204 q 598 1133 569 1165 q 660 1065 626 1101 q 728 992 694 1028 l 708 961 l 696 960 q 601 1038 647 1003 q 526 1094 554 1072 q 452 1038 497 1072 q 357 960 407 1004 z "},"Ģ":{"ha":926,"x_min":56,"x_max":822,"o":"m 461 -17 q 247 36 338 -17 q 106 185 156 89 q 56 413 56 282 q 117 668 56 558 q 288 840 178 778 q 543 901 399 901 q 633 897 586 901 q 721 885 681 892 q 787 873 761 878 q 813 868 813 868 l 818 860 q 811 828 818 860 q 795 744 804 797 q 782 628 786 692 l 717 622 q 719 646 717 622 q 721 697 721 669 q 672 791 721 763 q 511 819 622 819 q 331 777 406 819 q 216 653 256 735 q 176 457 176 572 q 216 244 176 335 q 326 103 256 153 q 493 53 397 53 q 592 66 549 53 q 659 92 635 79 q 683 106 683 106 l 683 275 q 669 336 683 322 q 607 350 654 350 q 569 350 592 350 q 528 350 546 350 q 511 350 511 350 l 508 356 l 521 425 q 548 424 521 425 q 616 421 575 422 q 697 419 657 419 q 755 422 728 419 q 799 425 782 424 q 817 426 817 426 l 822 396 q 797 358 806 382 q 783 293 788 335 q 779 182 779 251 q 782 112 779 146 q 789 60 785 78 l 781 47 q 738 31 781 47 q 622 -1 694 15 q 461 -17 550 -17 m 363 -407 l 338 -386 l 338 -372 q 408 -308 379 -346 q 438 -235 438 -269 q 422 -185 438 -207 q 382 -149 406 -162 l 385 -129 q 421 -106 399 -118 q 465 -93 443 -93 q 519 -119 497 -93 q 540 -192 540 -146 q 512 -283 540 -242 q 442 -355 483 -324 q 363 -407 401 -386 z "},"Ġ":{"ha":926,"x_min":56,"x_max":822,"o":"m 461 -17 q 247 36 338 -17 q 106 185 156 89 q 56 413 56 282 q 117 668 56 558 q 288 840 178 778 q 543 901 399 901 q 633 897 586 901 q 721 885 681 892 q 787 873 761 878 q 813 868 813 868 l 818 860 q 811 828 818 860 q 795 744 804 797 q 782 628 786 692 l 717 622 q 719 646 717 622 q 721 697 721 669 q 672 791 721 763 q 511 819 622 819 q 331 777 406 819 q 216 653 256 735 q 176 457 176 572 q 216 244 176 335 q 326 103 256 153 q 493 53 397 53 q 592 66 549 53 q 659 92 635 79 q 683 106 683 106 l 683 275 q 669 336 683 322 q 607 350 654 350 q 569 350 592 350 q 528 350 546 350 q 511 350 511 350 l 508 356 l 521 425 q 548 424 521 425 q 616 421 575 422 q 697 419 657 419 q 755 422 728 419 q 799 425 782 424 q 817 426 817 426 l 822 396 q 797 358 806 382 q 783 293 788 335 q 779 182 779 251 q 782 112 779 146 q 789 60 785 78 l 781 47 q 738 31 781 47 q 622 -1 694 15 q 461 -17 550 -17 m 511 985 q 460 1007 476 985 q 443 1056 443 1029 q 467 1113 443 1089 q 525 1138 490 1138 q 576 1116 558 1138 q 593 1067 593 1094 q 570 1009 593 1033 q 511 985 547 985 z "},"Ḡ":{"ha":926,"x_min":56,"x_max":822,"o":"m 461 -17 q 247 36 338 -17 q 106 185 156 89 q 56 413 56 282 q 117 668 56 558 q 288 840 178 778 q 543 901 399 901 q 633 897 586 901 q 721 885 681 892 q 787 873 761 878 q 813 868 813 868 l 818 860 q 811 828 818 860 q 795 744 804 797 q 782 628 786 692 l 717 622 q 719 646 717 622 q 721 697 721 669 q 672 791 721 763 q 511 819 622 819 q 331 777 406 819 q 216 653 256 735 q 176 457 176 572 q 216 244 176 335 q 326 103 256 153 q 493 53 397 53 q 592 66 549 53 q 659 92 635 79 q 683 106 683 106 l 683 275 q 669 336 683 322 q 607 350 654 350 q 569 350 592 350 q 528 350 546 350 q 511 350 511 350 l 508 356 l 521 425 q 548 424 521 425 q 616 421 575 422 q 697 419 657 419 q 755 422 728 419 q 799 425 782 424 q 817 426 817 426 l 822 396 q 797 358 806 382 q 783 293 788 335 q 779 182 779 251 q 782 112 779 146 q 789 60 785 78 l 781 47 q 738 31 781 47 q 622 -1 694 15 q 461 -17 550 -17 m 318 999 l 310 1011 l 324 1074 q 345 1074 324 1074 q 400 1073 367 1074 q 470 1072 433 1072 q 538 1072 507 1072 q 614 1074 572 1072 q 686 1078 656 1076 q 717 1081 717 1081 l 725 1067 l 715 1001 l 518 1000 q 431 1000 478 1000 q 351 999 383 1000 q 318 999 318 999 z "},"Ǥ":{"ha":940,"x_min":56,"x_max":872,"o":"m 461 -17 q 247 36 338 -17 q 106 185 156 89 q 56 413 56 282 q 117 668 56 558 q 288 840 178 778 q 543 901 399 901 q 599 899 568 901 q 666 892 631 896 q 739 881 701 888 q 813 868 776 875 l 818 860 q 802 790 810 831 q 790 708 794 750 q 782 628 785 665 l 717 622 q 720 667 719 650 q 721 697 721 683 q 672 791 721 763 q 511 819 622 819 q 331 776 406 819 q 216 653 256 733 q 176 457 176 572 q 216 244 176 335 q 326 103 256 153 q 493 53 397 53 q 594 68 540 53 q 683 106 647 83 l 683 275 q 669 336 683 322 q 607 350 654 350 q 560 350 589 350 q 511 350 532 350 l 508 356 l 521 425 q 606 422 556 424 q 697 419 657 419 q 735 420 714 419 q 777 423 756 421 q 817 426 799 425 l 822 396 q 797 358 806 382 q 783 293 788 335 q 779 182 779 251 q 782 113 779 147 q 789 60 785 78 l 781 47 q 685 15 740 29 q 572 -8 631 0 q 461 -17 514 -17 m 492 188 l 483 199 l 493 254 q 557 253 521 254 q 630 253 593 253 q 694 253 667 253 q 748 253 718 253 q 808 256 778 254 q 864 260 839 258 l 872 247 l 867 190 l 681 189 q 618 189 653 189 q 550 188 583 189 q 492 188 517 188 z "},"H":{"ha":1047,"x_min":81,"x_max":968,"o":"m 81 -17 l 89 47 q 176 84 154 60 q 197 167 197 108 l 199 750 q 189 810 199 794 q 147 825 179 825 q 125 824 139 825 q 100 822 111 824 l 97 828 l 107 889 q 185 886 139 888 q 261 885 232 885 q 330 888 288 885 q 410 897 372 892 l 404 835 q 347 819 365 829 q 322 784 328 808 q 313 710 315 760 l 304 485 l 538 483 q 628 486 583 483 q 743 497 672 489 l 744 750 q 735 810 744 794 q 693 825 725 825 q 670 824 683 825 q 646 822 657 824 l 643 828 l 653 889 q 678 888 653 889 q 735 885 703 886 q 789 885 767 885 q 867 888 819 885 q 956 897 914 892 l 950 835 q 881 812 899 828 q 861 756 864 796 q 853 587 857 675 q 847 415 850 499 q 843 261 844 331 q 842 147 842 192 q 854 78 842 96 q 903 61 867 61 q 936 63 918 61 q 965 65 954 64 l 968 60 l 956 -4 q 869 -1 921 -3 q 785 0 818 0 q 740 -1 768 0 q 681 -1 711 -1 q 625 -3 650 -1 l 638 60 q 704 72 682 61 q 735 115 726 83 q 743 208 743 147 l 743 418 q 671 419 711 418 q 593 419 631 419 q 532 419 556 419 q 481 417 518 419 q 397 412 444 415 q 301 404 349 408 l 296 156 q 308 81 296 100 q 357 61 321 61 q 390 63 372 61 q 419 65 408 64 l 422 60 l 410 -4 q 389 -2 410 -3 q 340 -1 368 -1 q 292 0 313 0 q 201 -3 250 0 q 117 -9 151 -6 q 81 -17 82 -12 z "},"Ħ":{"ha":1042,"x_min":58,"x_max":982,"o":"m 71 622 l 58 635 l 68 689 q 99 689 68 689 q 181 689 129 689 q 297 688 233 689 q 426 688 360 688 q 550 688 492 688 q 684 689 613 688 q 819 691 756 690 q 924 693 883 692 q 964 694 964 694 l 982 676 l 976 625 l 519 624 q 367 624 446 624 q 222 623 289 624 q 113 622 154 622 q 71 622 71 622 m 78 -17 l 86 47 q 173 84 151 60 q 194 167 194 108 l 196 750 q 186 810 196 794 q 144 825 176 825 q 122 824 136 825 q 97 822 108 824 l 94 828 l 104 889 q 183 886 136 888 q 258 885 229 885 q 327 888 285 885 q 407 897 369 892 l 401 835 q 344 819 363 829 q 319 784 325 808 q 310 710 313 760 l 301 485 l 535 483 q 625 486 581 483 q 740 497 669 489 l 742 750 q 732 810 742 794 q 690 825 722 825 q 667 824 681 825 q 643 822 654 824 l 640 828 l 650 889 q 675 888 650 889 q 732 885 700 886 q 786 885 764 885 q 864 888 817 885 q 953 897 911 892 l 947 835 q 878 812 896 828 q 858 756 861 796 q 851 587 854 675 q 844 415 847 499 q 840 261 842 331 q 839 147 839 192 q 851 78 839 96 q 900 61 864 61 q 933 63 915 61 q 963 65 951 64 l 965 60 l 953 -4 q 867 -1 918 -3 q 782 0 815 0 q 737 -1 765 0 q 678 -1 708 -1 q 622 -3 647 -1 l 635 60 q 701 72 679 61 q 732 115 724 83 q 740 208 740 147 l 740 418 q 668 419 708 418 q 590 419 628 419 q 529 419 553 419 q 478 417 515 419 q 394 412 442 415 q 299 404 346 408 l 293 156 q 306 81 293 100 q 354 61 318 61 q 388 63 369 61 q 417 65 406 64 l 419 60 l 407 -4 q 386 -2 407 -3 q 338 -1 365 -1 q 289 0 310 0 q 198 -3 247 0 q 114 -9 149 -6 q 78 -17 79 -12 z "},"Ḫ":{"ha":1047,"x_min":81,"x_max":968,"o":"m 81 -17 l 89 47 q 176 84 154 60 q 197 167 197 108 l 199 750 q 189 810 199 794 q 147 825 179 825 q 125 824 139 825 q 100 822 111 824 l 97 828 l 107 889 q 185 886 139 888 q 261 885 232 885 q 330 888 288 885 q 410 897 372 892 l 404 835 q 347 819 365 829 q 322 784 328 808 q 313 710 315 760 l 304 485 l 538 483 q 628 486 583 483 q 743 497 672 489 l 744 750 q 735 810 744 794 q 693 825 725 825 q 670 824 683 825 q 646 822 657 824 l 643 828 l 653 889 q 678 888 653 889 q 735 885 703 886 q 789 885 767 885 q 867 888 819 885 q 956 897 914 892 l 950 835 q 881 812 899 828 q 861 756 864 796 q 853 587 857 675 q 847 415 850 499 q 843 261 844 331 q 842 147 842 192 q 854 78 842 96 q 903 61 867 61 q 936 63 918 61 q 965 65 954 64 l 968 60 l 956 -4 q 869 -1 921 -3 q 785 0 818 0 q 740 -1 768 0 q 681 -1 711 -1 q 625 -3 650 -1 l 638 60 q 704 72 682 61 q 735 115 726 83 q 743 208 743 147 l 743 418 q 671 419 711 418 q 593 419 631 419 q 532 419 556 419 q 481 417 518 419 q 397 412 444 415 q 301 404 349 408 l 296 156 q 308 81 296 100 q 357 61 321 61 q 390 63 372 61 q 419 65 408 64 l 422 60 l 410 -4 q 389 -2 410 -3 q 340 -1 368 -1 q 292 0 313 0 q 201 -3 250 0 q 117 -9 151 -6 q 81 -17 82 -12 m 524 -274 q 442 -251 476 -274 q 388 -191 408 -228 q 357 -115 367 -154 l 379 -101 l 390 -101 q 444 -170 408 -147 q 524 -193 481 -193 q 603 -170 568 -193 q 657 -101 639 -147 l 668 -101 l 690 -115 q 660 -191 681 -154 q 606 -251 639 -228 q 524 -274 572 -274 z "},"Ȟ":{"ha":1047,"x_min":81,"x_max":968,"o":"m 81 -17 l 89 47 q 176 84 154 60 q 197 167 197 108 l 199 750 q 189 810 199 794 q 147 825 179 825 q 125 824 139 825 q 100 822 111 824 l 97 828 l 107 889 q 185 886 139 888 q 261 885 232 885 q 330 888 288 885 q 410 897 372 892 l 404 835 q 347 819 365 829 q 322 784 328 808 q 313 710 315 760 l 304 485 l 538 483 q 628 486 583 483 q 743 497 672 489 l 744 750 q 735 810 744 794 q 693 825 725 825 q 670 824 683 825 q 646 822 657 824 l 643 828 l 653 889 q 678 888 653 889 q 735 885 703 886 q 789 885 767 885 q 867 888 819 885 q 956 897 914 892 l 950 835 q 881 812 899 828 q 861 756 864 796 q 853 587 857 675 q 847 415 850 499 q 843 261 844 331 q 842 147 842 192 q 854 78 842 96 q 903 61 867 61 q 936 63 918 61 q 965 65 954 64 l 968 60 l 956 -4 q 869 -1 921 -3 q 785 0 818 0 q 740 -1 768 0 q 681 -1 711 -1 q 625 -3 650 -1 l 638 60 q 704 72 682 61 q 735 115 726 83 q 743 208 743 147 l 743 418 q 671 419 711 418 q 593 419 631 419 q 532 419 556 419 q 481 417 518 419 q 397 412 444 415 q 301 404 349 408 l 296 156 q 308 81 296 100 q 357 61 321 61 q 390 63 372 61 q 419 65 408 64 l 422 60 l 410 -4 q 389 -2 410 -3 q 340 -1 368 -1 q 292 0 313 0 q 201 -3 250 0 q 117 -9 151 -6 q 81 -17 82 -12 m 514 978 q 497 992 514 978 q 452 1030 481 1007 q 390 1080 424 1053 q 322 1132 356 1107 l 342 1163 l 354 1164 q 449 1112 403 1136 q 524 1074 496 1088 q 598 1111 553 1088 q 693 1164 643 1135 l 706 1163 l 725 1132 q 658 1080 692 1107 q 595 1030 624 1053 q 550 992 567 1007 q 533 978 533 978 l 514 978 z "},"Ĥ":{"ha":1047,"x_min":81,"x_max":968,"o":"m 81 -17 l 89 47 q 176 84 154 60 q 197 167 197 108 l 199 750 q 189 810 199 794 q 147 825 179 825 q 125 824 139 825 q 100 822 111 824 l 97 828 l 107 889 q 185 886 139 888 q 261 885 232 885 q 330 888 288 885 q 410 897 372 892 l 404 835 q 347 819 365 829 q 322 784 328 808 q 313 710 315 760 l 304 485 l 538 483 q 628 486 583 483 q 743 497 672 489 l 744 750 q 735 810 744 794 q 693 825 725 825 q 670 824 683 825 q 646 822 657 824 l 643 828 l 653 889 q 678 888 653 889 q 735 885 703 886 q 789 885 767 885 q 867 888 819 885 q 956 897 914 892 l 950 835 q 881 812 899 828 q 861 756 864 796 q 853 587 857 675 q 847 415 850 499 q 843 261 844 331 q 842 147 842 192 q 854 78 842 96 q 903 61 867 61 q 936 63 918 61 q 965 65 954 64 l 968 60 l 956 -4 q 869 -1 921 -3 q 785 0 818 0 q 740 -1 768 0 q 681 -1 711 -1 q 625 -3 650 -1 l 638 60 q 704 72 682 61 q 735 115 726 83 q 743 208 743 147 l 743 418 q 671 419 711 418 q 593 419 631 419 q 532 419 556 419 q 481 417 518 419 q 397 412 444 415 q 301 404 349 408 l 296 156 q 308 81 296 100 q 357 61 321 61 q 390 63 372 61 q 419 65 408 64 l 422 60 l 410 -4 q 389 -2 410 -3 q 340 -1 368 -1 q 292 0 313 0 q 201 -3 250 0 q 117 -9 151 -6 q 81 -17 82 -12 m 354 989 l 342 990 l 322 1021 q 390 1073 356 1046 q 452 1123 424 1100 q 497 1160 481 1146 q 514 1175 514 1175 l 533 1175 q 550 1160 533 1175 q 595 1123 567 1146 q 658 1073 624 1100 q 725 1021 692 1046 l 706 990 l 693 989 q 598 1041 644 1017 q 524 1079 551 1065 q 449 1042 494 1065 q 354 989 404 1018 z "},"Ḥ":{"ha":1047,"x_min":81,"x_max":968,"o":"m 81 -17 l 89 47 q 176 84 154 60 q 197 167 197 108 l 199 750 q 189 810 199 794 q 147 825 179 825 q 125 824 139 825 q 100 822 111 824 l 97 828 l 107 889 q 185 886 139 888 q 261 885 232 885 q 330 888 288 885 q 410 897 372 892 l 404 835 q 347 819 365 829 q 322 784 328 808 q 313 710 315 760 l 304 485 l 538 483 q 628 486 583 483 q 743 497 672 489 l 744 750 q 735 810 744 794 q 693 825 725 825 q 670 824 683 825 q 646 822 657 824 l 643 828 l 653 889 q 678 888 653 889 q 735 885 703 886 q 789 885 767 885 q 867 888 819 885 q 956 897 914 892 l 950 835 q 881 812 899 828 q 861 756 864 796 q 853 587 857 675 q 847 415 850 499 q 843 261 844 331 q 842 147 842 192 q 854 78 842 96 q 903 61 867 61 q 936 63 918 61 q 965 65 954 64 l 968 60 l 956 -4 q 869 -1 921 -3 q 785 0 818 0 q 740 -1 768 0 q 681 -1 711 -1 q 625 -3 650 -1 l 638 60 q 704 72 682 61 q 735 115 726 83 q 743 208 743 147 l 743 418 q 671 419 711 418 q 593 419 631 419 q 532 419 556 419 q 481 417 518 419 q 397 412 444 415 q 301 404 349 408 l 296 156 q 308 81 296 100 q 357 61 321 61 q 390 63 372 61 q 419 65 408 64 l 422 60 l 410 -4 q 389 -2 410 -3 q 340 -1 368 -1 q 292 0 313 0 q 201 -3 250 0 q 117 -9 151 -6 q 81 -17 82 -12 m 515 -267 q 457 -242 476 -267 q 438 -187 438 -218 q 461 -126 438 -151 q 524 -101 485 -101 q 583 -125 563 -101 q 603 -181 603 -149 q 579 -241 603 -215 q 515 -267 556 -267 z "},"I":{"ha":501,"x_min":78,"x_max":433,"o":"m 78 -17 l 86 47 q 174 84 151 60 q 197 167 197 108 l 199 750 q 188 810 199 794 q 147 825 178 825 q 120 824 138 825 q 89 822 103 824 l 86 828 l 96 889 q 181 886 132 888 q 261 885 231 885 q 335 888 290 885 q 421 897 381 892 l 415 835 q 338 812 358 828 q 315 756 318 796 q 308 593 311 679 q 301 423 304 507 q 297 269 299 339 q 296 156 296 199 q 308 81 296 100 q 357 61 321 61 q 397 63 376 61 q 431 65 418 64 l 433 60 l 421 -4 q 363 -2 396 -3 q 296 -1 329 -1 q 239 0 263 0 q 163 -5 208 0 q 78 -17 118 -10 z "},"Ĳ":{"ha":956,"x_min":78,"x_max":886,"o":"m 78 -17 l 86 47 q 174 84 151 60 q 197 167 197 108 l 199 750 q 188 810 199 794 q 147 825 178 825 q 120 824 138 825 q 89 822 103 824 l 86 828 l 96 889 q 181 886 132 888 q 261 885 231 885 q 335 888 290 885 q 421 897 381 892 l 415 835 q 338 812 358 828 q 315 756 318 796 q 308 593 311 679 q 301 423 304 507 q 297 269 299 339 q 296 156 296 199 q 308 81 296 100 q 357 61 321 61 q 397 63 376 61 q 431 65 418 64 l 433 60 l 421 -4 q 363 -2 396 -3 q 296 -1 329 -1 q 239 0 263 0 q 163 -5 208 0 q 78 -17 118 -10 m 557 -200 l 533 -154 l 538 -143 q 626 -71 594 -108 q 670 22 657 -33 q 683 160 683 76 l 685 750 q 675 809 685 794 q 633 824 665 824 q 610 822 625 824 q 581 819 594 821 q 568 818 568 818 l 565 824 l 575 885 l 725 885 q 793 888 756 885 q 858 894 831 890 q 886 897 886 897 l 881 835 q 818 814 832 828 q 801 756 804 800 q 798 658 800 718 q 793 526 796 597 q 788 383 790 454 q 785 254 786 313 q 783 161 783 196 q 728 -66 782 19 q 557 -200 675 -151 z "},"Í":{"ha":501,"x_min":78,"x_max":435,"o":"m 78 -17 l 86 47 q 174 84 151 60 q 197 167 197 108 l 199 750 q 188 810 199 794 q 147 825 178 825 q 120 824 138 825 q 89 822 103 824 l 86 828 l 96 889 q 181 886 132 888 q 261 885 231 885 q 335 888 290 885 q 421 897 381 892 l 415 835 q 338 812 358 828 q 315 756 318 796 q 308 593 311 679 q 301 423 304 507 q 297 269 299 339 q 296 156 296 199 q 308 81 296 100 q 357 61 321 61 q 397 63 376 61 q 431 65 418 64 l 433 60 l 421 -4 q 363 -2 396 -3 q 296 -1 329 -1 q 239 0 263 0 q 163 -5 208 0 q 78 -17 118 -10 m 143 976 l 132 983 l 124 1017 q 222 1069 172 1042 q 311 1118 271 1096 q 376 1154 351 1140 q 400 1168 400 1168 l 413 1160 l 435 1093 l 429 1079 q 406 1071 429 1079 q 341 1049 382 1063 q 249 1016 300 1035 q 143 976 197 997 z "},"Ĭ":{"ha":501,"x_min":78,"x_max":433,"o":"m 78 -17 l 86 47 q 174 84 151 60 q 197 167 197 108 l 199 750 q 188 810 199 794 q 147 825 178 825 q 120 824 138 825 q 89 822 103 824 l 86 828 l 96 889 q 181 886 132 888 q 261 885 231 885 q 335 888 290 885 q 421 897 381 892 l 415 835 q 338 812 358 828 q 315 756 318 796 q 308 593 311 679 q 301 423 304 507 q 297 269 299 339 q 296 156 296 199 q 308 81 296 100 q 357 61 321 61 q 397 63 376 61 q 431 65 418 64 l 433 60 l 421 -4 q 363 -2 396 -3 q 296 -1 329 -1 q 239 0 263 0 q 163 -5 208 0 q 78 -17 118 -10 m 251 1004 q 170 1027 204 1004 q 115 1087 136 1050 q 85 1163 94 1124 l 107 1176 l 118 1176 q 172 1108 136 1131 q 251 1085 208 1085 q 331 1108 296 1085 q 385 1176 367 1131 l 396 1176 l 418 1163 q 388 1087 408 1124 q 333 1027 367 1050 q 251 1004 300 1004 z "},"Ǐ":{"ha":501,"x_min":50,"x_max":453,"o":"m 78 -17 l 86 47 q 174 84 151 60 q 197 167 197 108 l 199 750 q 188 810 199 794 q 147 825 178 825 q 120 824 138 825 q 89 822 103 824 l 86 828 l 96 889 q 181 886 132 888 q 261 885 231 885 q 335 888 290 885 q 421 897 381 892 l 415 835 q 338 812 358 828 q 315 756 318 796 q 308 593 311 679 q 301 423 304 507 q 297 269 299 339 q 296 156 296 199 q 308 81 296 100 q 357 61 321 61 q 397 63 376 61 q 431 65 418 64 l 433 60 l 421 -4 q 363 -2 396 -3 q 296 -1 329 -1 q 239 0 263 0 q 163 -5 208 0 q 78 -17 118 -10 m 242 978 q 225 992 242 978 q 180 1030 208 1007 q 117 1080 151 1053 q 50 1132 83 1107 l 69 1163 l 82 1164 q 177 1112 131 1136 q 251 1074 224 1088 q 326 1111 281 1088 q 421 1164 371 1135 l 433 1163 l 453 1132 q 385 1080 419 1107 q 323 1030 351 1053 q 278 992 294 1007 q 261 978 261 978 l 242 978 z "},"Î":{"ha":501,"x_min":50,"x_max":453,"o":"m 78 -17 l 86 47 q 174 84 151 60 q 197 167 197 108 l 199 750 q 188 810 199 794 q 147 825 178 825 q 120 824 138 825 q 89 822 103 824 l 86 828 l 96 889 q 181 886 132 888 q 261 885 231 885 q 335 888 290 885 q 421 897 381 892 l 415 835 q 338 812 358 828 q 315 756 318 796 q 308 593 311 679 q 301 423 304 507 q 297 269 299 339 q 296 156 296 199 q 308 81 296 100 q 357 61 321 61 q 397 63 376 61 q 431 65 418 64 l 433 60 l 421 -4 q 363 -2 396 -3 q 296 -1 329 -1 q 239 0 263 0 q 163 -5 208 0 q 78 -17 118 -10 m 82 989 l 69 990 l 50 1021 q 117 1073 83 1046 q 180 1123 151 1100 q 225 1160 208 1146 q 242 1175 242 1175 l 261 1175 q 278 1160 261 1175 q 323 1123 294 1146 q 385 1073 351 1100 q 453 1021 419 1046 l 433 990 l 421 989 q 326 1041 372 1017 q 251 1079 279 1065 q 177 1042 222 1065 q 82 989 132 1018 z "},"Ȉ":{"ha":501,"x_min":-17,"x_max":433,"o":"m 78 -17 l 86 47 q 174 84 151 60 q 197 167 197 108 l 199 750 q 188 810 199 794 q 147 825 178 825 q 120 824 138 825 q 89 822 103 824 l 86 828 l 96 889 q 181 886 132 888 q 261 885 231 885 q 335 888 290 885 q 421 897 381 892 l 415 835 q 338 812 358 828 q 315 756 318 796 q 308 593 311 679 q 301 423 304 507 q 297 269 299 339 q 296 156 296 199 q 308 81 296 100 q 357 61 321 61 q 397 63 376 61 q 431 65 418 64 l 433 60 l 421 -4 q 363 -2 396 -3 q 296 -1 329 -1 q 239 0 263 0 q 163 -5 208 0 q 78 -17 118 -10 m 410 950 q 299 1010 351 983 q 215 1054 247 1038 q 182 1071 182 1071 l 178 1083 l 208 1143 l 221 1149 q 253 1124 221 1149 q 334 1061 285 1099 q 433 986 383 1024 l 421 957 l 410 950 m 215 938 q 105 998 157 971 q 20 1042 53 1025 q -12 1058 -12 1058 l -17 1071 l 14 1129 l 26 1136 q 58 1111 26 1136 q 140 1048 90 1086 q 239 972 189 1010 l 225 943 l 215 938 z "},"Ï":{"ha":501,"x_min":72,"x_max":433,"o":"m 78 -17 l 86 47 q 174 84 151 60 q 197 167 197 108 l 199 750 q 188 810 199 794 q 147 825 178 825 q 120 824 138 825 q 89 822 103 824 l 86 828 l 96 889 q 181 886 132 888 q 261 885 231 885 q 335 888 290 885 q 421 897 381 892 l 415 835 q 338 812 358 828 q 315 756 318 796 q 308 593 311 679 q 301 423 304 507 q 297 269 299 339 q 296 156 296 199 q 308 81 296 100 q 357 61 321 61 q 397 63 376 61 q 431 65 418 64 l 433 60 l 421 -4 q 363 -2 396 -3 q 296 -1 329 -1 q 239 0 263 0 q 163 -5 208 0 q 78 -17 118 -10 m 360 993 q 317 1012 332 993 q 303 1053 303 1031 q 322 1101 303 1081 q 372 1122 342 1122 q 415 1104 400 1122 q 429 1063 429 1086 q 410 1014 429 1035 q 360 993 390 993 m 129 993 q 87 1012 101 993 q 72 1053 72 1031 q 92 1101 72 1081 q 142 1122 111 1122 q 184 1104 169 1122 q 199 1063 199 1086 q 179 1014 199 1035 q 129 993 160 993 z "},"Ḯ":{"ha":501,"x_min":72,"x_max":433,"o":"m 78 -17 l 86 47 q 174 84 151 60 q 197 167 197 108 l 199 750 q 188 810 199 794 q 147 825 178 825 q 120 824 138 825 q 89 822 103 824 l 86 828 l 96 889 q 181 886 132 888 q 261 885 231 885 q 335 888 290 885 q 421 897 381 892 l 415 835 q 338 812 358 828 q 315 756 318 796 q 308 593 311 679 q 301 423 304 507 q 297 269 299 339 q 296 156 296 199 q 308 81 296 100 q 357 61 321 61 q 397 63 376 61 q 431 65 418 64 l 433 60 l 421 -4 q 363 -2 396 -3 q 296 -1 329 -1 q 239 0 263 0 q 163 -5 208 0 q 78 -17 118 -10 m 113 1111 l 101 1118 l 93 1151 q 191 1203 142 1176 q 281 1253 240 1231 q 345 1289 321 1275 q 369 1303 369 1303 l 382 1294 l 404 1228 l 399 1214 q 375 1206 399 1214 q 310 1183 351 1197 q 218 1151 269 1169 q 113 1111 167 1132 m 129 947 q 87 966 101 947 q 72 1007 72 985 q 92 1056 72 1035 q 142 1076 111 1076 q 184 1058 169 1076 q 199 1017 199 1040 q 179 968 199 989 q 129 947 160 947 m 360 947 q 317 966 332 947 q 303 1007 303 985 q 322 1056 303 1035 q 372 1076 342 1076 q 415 1058 400 1076 q 429 1017 429 1040 q 410 968 429 989 q 360 947 390 947 z "},"İ":{"ha":501,"x_min":78,"x_max":433,"o":"m 78 -17 l 86 47 q 174 84 151 60 q 197 167 197 108 l 199 750 q 188 810 199 794 q 147 825 178 825 q 120 824 138 825 q 89 822 103 824 l 86 828 l 96 889 q 181 886 132 888 q 261 885 231 885 q 335 888 290 885 q 421 897 381 892 l 415 835 q 338 812 358 828 q 315 756 318 796 q 308 593 311 679 q 301 423 304 507 q 297 269 299 339 q 296 156 296 199 q 308 81 296 100 q 357 61 321 61 q 397 63 376 61 q 431 65 418 64 l 433 60 l 421 -4 q 363 -2 396 -3 q 296 -1 329 -1 q 239 0 263 0 q 163 -5 208 0 q 78 -17 118 -10 m 244 985 q 193 1007 210 985 q 176 1056 176 1029 q 200 1113 176 1089 q 258 1138 224 1138 q 309 1116 292 1138 q 326 1067 326 1094 q 303 1009 326 1033 q 244 985 281 985 z "},"Ị":{"ha":501,"x_min":78,"x_max":433,"o":"m 78 -17 l 86 47 q 174 84 151 60 q 197 167 197 108 l 199 750 q 188 810 199 794 q 147 825 178 825 q 120 824 138 825 q 89 822 103 824 l 86 828 l 96 889 q 181 886 132 888 q 261 885 231 885 q 335 888 290 885 q 421 897 381 892 l 415 835 q 338 812 358 828 q 315 756 318 796 q 308 593 311 679 q 301 423 304 507 q 297 269 299 339 q 296 156 296 199 q 308 81 296 100 q 357 61 321 61 q 397 63 376 61 q 431 65 418 64 l 433 60 l 421 -4 q 363 -2 396 -3 q 296 -1 329 -1 q 239 0 263 0 q 163 -5 208 0 q 78 -17 118 -10 m 243 -267 q 185 -242 204 -267 q 165 -187 165 -218 q 189 -126 165 -151 q 251 -101 213 -101 q 310 -125 290 -101 q 331 -181 331 -149 q 307 -241 331 -215 q 243 -267 283 -267 z "},"Ì":{"ha":501,"x_min":26,"x_max":433,"o":"m 78 -17 l 86 47 q 174 84 151 60 q 197 167 197 108 l 199 750 q 188 810 199 794 q 147 825 178 825 q 120 824 138 825 q 89 822 103 824 l 86 828 l 96 889 q 181 886 132 888 q 261 885 231 885 q 335 888 290 885 q 421 897 381 892 l 415 835 q 338 812 358 828 q 315 756 318 796 q 308 593 311 679 q 301 423 304 507 q 297 269 299 339 q 296 156 296 199 q 308 81 296 100 q 357 61 321 61 q 397 63 376 61 q 431 65 418 64 l 433 60 l 421 -4 q 363 -2 396 -3 q 296 -1 329 -1 q 239 0 263 0 q 163 -5 208 0 q 78 -17 118 -10 m 318 963 q 213 1002 264 983 q 120 1035 161 1021 q 56 1057 79 1049 q 32 1065 32 1065 l 26 1079 l 49 1146 l 61 1154 q 85 1140 61 1154 q 150 1104 110 1126 q 240 1055 190 1082 q 338 1003 289 1028 l 329 969 l 318 963 z "},"Ỉ":{"ha":501,"x_min":78,"x_max":433,"o":"m 78 -17 l 86 47 q 174 84 151 60 q 197 167 197 108 l 199 750 q 188 810 199 794 q 147 825 178 825 q 120 824 138 825 q 89 822 103 824 l 86 828 l 96 889 q 181 886 132 888 q 261 885 231 885 q 335 888 290 885 q 421 897 381 892 l 415 835 q 338 812 358 828 q 315 756 318 796 q 308 593 311 679 q 301 423 304 507 q 297 269 299 339 q 296 156 296 199 q 308 81 296 100 q 357 61 321 61 q 397 63 376 61 q 431 65 418 64 l 433 60 l 421 -4 q 363 -2 396 -3 q 296 -1 329 -1 q 239 0 263 0 q 163 -5 208 0 q 78 -17 118 -10 m 243 1006 l 199 1082 q 255 1131 239 1111 q 271 1169 271 1150 q 258 1194 271 1185 q 222 1203 244 1203 q 183 1197 201 1203 q 154 1183 165 1190 q 143 1176 143 1176 l 128 1200 q 143 1214 128 1200 q 183 1245 158 1228 q 233 1272 207 1263 q 317 1251 286 1272 q 347 1190 347 1229 q 326 1137 347 1168 q 265 1078 304 1106 l 294 1029 l 243 1006 z "},"Ȋ":{"ha":501,"x_min":78,"x_max":433,"o":"m 78 -17 l 86 47 q 174 84 151 60 q 197 167 197 108 l 199 750 q 188 810 199 794 q 147 825 178 825 q 120 824 138 825 q 89 822 103 824 l 86 828 l 96 889 q 181 886 132 888 q 261 885 231 885 q 335 888 290 885 q 421 897 381 892 l 415 835 q 338 812 358 828 q 315 756 318 796 q 308 593 311 679 q 301 423 304 507 q 297 269 299 339 q 296 156 296 199 q 308 81 296 100 q 357 61 321 61 q 397 63 376 61 q 431 65 418 64 l 433 60 l 421 -4 q 363 -2 396 -3 q 296 -1 329 -1 q 239 0 263 0 q 163 -5 208 0 q 78 -17 118 -10 m 251 1096 q 172 1073 208 1096 q 118 1004 136 1050 l 107 1004 l 85 1018 q 115 1094 94 1058 q 170 1153 136 1131 q 251 1176 204 1176 q 333 1153 300 1176 q 388 1094 367 1131 q 418 1018 408 1058 l 396 1004 l 385 1004 q 331 1073 367 1050 q 251 1096 296 1096 z "},"Ī":{"ha":501,"x_min":43,"x_max":458,"o":"m 78 -17 l 86 47 q 174 84 151 60 q 197 167 197 108 l 199 750 q 188 810 199 794 q 147 825 178 825 q 120 824 138 825 q 89 822 103 824 l 86 828 l 96 889 q 181 886 132 888 q 261 885 231 885 q 335 888 290 885 q 421 897 381 892 l 415 835 q 338 812 358 828 q 315 756 318 796 q 308 593 311 679 q 301 423 304 507 q 297 269 299 339 q 296 156 296 199 q 308 81 296 100 q 357 61 321 61 q 397 63 376 61 q 431 65 418 64 l 433 60 l 421 -4 q 363 -2 396 -3 q 296 -1 329 -1 q 239 0 263 0 q 163 -5 208 0 q 78 -17 118 -10 m 51 999 l 43 1011 l 57 1074 q 78 1074 57 1074 q 133 1073 100 1074 q 203 1072 167 1072 q 271 1072 240 1072 q 347 1074 306 1072 q 419 1078 389 1076 q 450 1081 450 1081 l 458 1067 l 449 1001 l 251 1000 q 164 1000 211 1000 q 84 999 117 1000 q 51 999 51 999 z "},"Į":{"ha":501,"x_min":78,"x_max":436,"o":"m 78 -17 l 86 47 q 174 84 151 60 q 197 167 197 108 l 199 750 q 188 810 199 794 q 147 825 178 825 q 120 824 138 825 q 89 822 103 824 l 86 828 l 96 889 q 181 886 132 888 q 261 885 231 885 q 335 888 290 885 q 421 897 381 892 l 415 835 q 338 812 358 828 q 315 756 318 796 q 308 593 311 679 q 301 423 304 507 q 297 269 299 339 q 296 156 296 199 q 308 81 296 100 q 357 61 321 61 q 397 63 376 61 q 431 65 418 64 l 433 60 l 421 -4 q 363 -2 396 -3 q 296 -1 329 -1 q 239 0 263 0 q 163 -5 208 0 q 78 -17 118 -10 m 297 -335 q 186 -299 229 -335 q 143 -208 143 -264 q 150 -161 143 -183 q 177 -111 157 -139 q 235 -43 197 -83 q 333 58 272 -3 l 392 58 q 291 -51 326 -10 q 243 -119 256 -92 q 231 -174 231 -146 q 252 -231 231 -210 q 311 -253 274 -253 q 365 -244 335 -253 q 418 -221 396 -235 l 436 -247 q 369 -299 408 -274 q 297 -335 329 -324 z "},"Ĩ":{"ha":501,"x_min":22,"x_max":479,"o":"m 78 -17 l 86 47 q 174 84 151 60 q 197 167 197 108 l 199 750 q 188 810 199 794 q 147 825 178 825 q 120 824 138 825 q 89 822 103 824 l 86 828 l 96 889 q 181 886 132 888 q 261 885 231 885 q 335 888 290 885 q 421 897 381 892 l 415 835 q 338 812 358 828 q 315 756 318 796 q 308 593 311 679 q 301 423 304 507 q 297 269 299 339 q 296 156 296 199 q 308 81 296 100 q 357 61 321 61 q 397 63 376 61 q 431 65 418 64 l 433 60 l 421 -4 q 363 -2 396 -3 q 296 -1 329 -1 q 239 0 263 0 q 163 -5 208 0 q 78 -17 118 -10 m 53 989 l 22 1018 l 22 1025 l 128 1149 l 150 1154 q 195 1147 167 1154 q 254 1131 224 1140 q 312 1115 285 1122 q 353 1108 339 1108 q 380 1120 365 1108 q 408 1147 394 1132 q 431 1173 422 1161 q 440 1185 440 1185 l 449 1185 l 479 1156 l 479 1149 l 374 1025 l 351 1019 q 306 1026 335 1019 q 247 1042 278 1033 q 190 1058 217 1051 q 149 1065 164 1065 q 121 1053 136 1065 q 92 1027 106 1042 q 70 1001 79 1013 q 61 989 61 989 l 53 989 z "},"J":{"ha":454,"x_min":32,"x_max":385,"o":"m 56 -200 l 32 -154 l 36 -143 q 124 -71 93 -108 q 169 22 156 -33 q 182 160 182 76 l 183 750 q 174 809 183 794 q 132 824 164 824 q 108 822 124 824 q 80 819 93 821 q 67 818 67 818 l 64 824 l 74 885 l 224 885 q 292 888 254 885 q 357 894 329 890 q 385 897 385 897 l 379 835 q 317 814 331 828 q 300 756 303 800 q 297 658 299 718 q 292 526 294 597 q 287 383 289 454 q 283 254 285 313 q 282 161 282 196 q 227 -66 281 19 q 56 -200 174 -151 z "},"Ĵ":{"ha":454,"x_min":32,"x_max":443,"o":"m 56 -200 l 32 -154 l 36 -143 q 124 -71 93 -108 q 169 22 156 -33 q 182 160 182 76 l 183 750 q 174 809 183 794 q 132 824 164 824 q 108 822 124 824 q 80 819 93 821 q 67 818 67 818 l 64 824 l 74 885 l 224 885 q 292 888 254 885 q 357 894 329 890 q 385 897 385 897 l 379 835 q 317 814 331 828 q 300 756 303 800 q 297 658 299 718 q 292 526 294 597 q 287 383 289 454 q 283 254 285 313 q 282 161 282 196 q 227 -66 281 19 q 56 -200 174 -151 m 72 974 l 60 975 l 40 1006 q 108 1078 74 1042 q 170 1147 142 1115 q 215 1199 199 1179 q 232 1218 232 1218 l 251 1218 q 268 1199 251 1218 q 313 1147 285 1179 q 376 1078 342 1115 q 443 1006 410 1042 l 424 975 l 411 974 q 316 1051 363 1017 q 242 1108 269 1086 q 167 1052 213 1086 q 72 974 122 1018 z "},"K":{"ha":872,"x_min":79,"x_max":858,"o":"m 338 457 l 586 715 q 629 788 629 758 q 608 816 629 806 q 542 829 586 826 l 539 835 l 549 894 q 565 893 549 894 q 606 890 581 892 q 656 886 631 888 q 701 885 682 885 q 744 885 722 885 q 786 888 767 886 q 817 890 806 889 q 829 890 829 890 l 835 881 l 825 824 q 781 808 801 819 q 733 774 760 797 q 665 707 707 750 l 442 472 l 675 168 q 765 77 725 104 q 853 50 804 50 l 858 44 l 850 -3 q 835 -6 850 -3 q 798 -11 819 -8 q 758 -17 776 -14 q 735 -19 740 -19 q 660 13 700 -19 q 579 100 619 44 l 336 438 l 338 457 m 199 750 q 189 810 199 794 q 147 825 179 825 q 117 824 135 825 q 100 822 100 822 l 97 828 l 107 889 q 123 888 107 889 q 164 887 139 888 q 215 885 189 886 q 261 885 242 885 q 309 887 283 885 q 358 891 335 889 q 395 895 381 893 q 410 897 410 897 l 404 835 q 333 809 353 826 q 313 751 314 792 l 296 156 q 308 81 294 100 q 357 61 321 61 q 399 63 378 61 q 419 65 419 65 l 422 60 l 410 -4 q 392 -3 410 -4 q 347 -2 375 -3 q 291 -1 319 -1 q 239 0 263 0 q 185 0 213 0 q 133 -1 157 0 q 94 -1 108 -1 q 79 -1 79 -1 l 93 61 q 178 88 158 68 q 197 167 197 107 l 199 750 z "},"Ǩ":{"ha":872,"x_min":79,"x_max":858,"o":"m 338 457 l 586 715 q 629 788 629 758 q 608 816 629 806 q 542 829 586 826 l 539 835 l 549 894 q 565 893 549 894 q 606 890 581 892 q 656 886 631 888 q 701 885 682 885 q 744 885 722 885 q 786 888 767 886 q 817 890 806 889 q 829 890 829 890 l 835 881 l 825 824 q 781 808 801 819 q 733 774 760 797 q 665 707 707 750 l 442 472 l 675 168 q 765 77 725 104 q 853 50 804 50 l 858 44 l 850 -3 q 835 -6 850 -3 q 798 -11 819 -8 q 758 -17 776 -14 q 735 -19 740 -19 q 660 13 700 -19 q 579 100 619 44 l 336 438 l 338 457 m 199 750 q 189 810 199 794 q 147 825 179 825 q 117 824 135 825 q 100 822 100 822 l 97 828 l 107 889 q 123 888 107 889 q 164 887 139 888 q 215 885 189 886 q 261 885 242 885 q 309 887 283 885 q 358 891 335 889 q 395 895 381 893 q 410 897 410 897 l 404 835 q 333 809 353 826 q 313 751 314 792 l 296 156 q 308 81 294 100 q 357 61 321 61 q 399 63 378 61 q 419 65 419 65 l 422 60 l 410 -4 q 392 -3 410 -4 q 347 -2 375 -3 q 291 -1 319 -1 q 239 0 263 0 q 185 0 213 0 q 133 -1 157 0 q 94 -1 108 -1 q 79 -1 79 -1 l 93 61 q 178 88 158 68 q 197 167 197 107 l 199 750 m 467 992 q 450 1006 467 992 q 405 1044 433 1021 q 342 1094 376 1067 q 275 1146 308 1121 l 294 1176 l 307 1178 q 402 1126 356 1150 q 476 1088 449 1101 q 551 1125 506 1101 q 646 1178 596 1149 l 658 1176 l 678 1146 q 610 1094 644 1121 q 548 1044 576 1067 q 503 1006 519 1021 q 486 992 486 992 l 467 992 z "},"Ķ":{"ha":872,"x_min":79,"x_max":858,"o":"m 338 457 l 586 715 q 629 788 629 758 q 608 816 629 806 q 542 829 586 826 l 539 835 l 549 894 q 565 893 549 894 q 606 890 581 892 q 656 886 631 888 q 701 885 682 885 q 744 885 722 885 q 786 888 767 886 q 817 890 806 889 q 829 890 829 890 l 835 881 l 825 824 q 781 808 801 819 q 733 774 760 797 q 665 707 707 750 l 442 472 l 675 168 q 765 77 725 104 q 853 50 804 50 l 858 44 l 850 -3 q 835 -6 850 -3 q 798 -11 819 -8 q 758 -17 776 -14 q 735 -19 740 -19 q 660 13 700 -19 q 579 100 619 44 l 336 438 l 338 457 m 199 750 q 189 810 199 794 q 147 825 179 825 q 117 824 135 825 q 100 822 100 822 l 97 828 l 107 889 q 123 888 107 889 q 164 887 139 888 q 215 885 189 886 q 261 885 242 885 q 309 887 283 885 q 358 891 335 889 q 395 895 381 893 q 410 897 410 897 l 404 835 q 333 809 353 826 q 313 751 314 792 l 296 156 q 308 81 294 100 q 357 61 321 61 q 399 63 378 61 q 419 65 419 65 l 422 60 l 410 -4 q 392 -3 410 -4 q 347 -2 375 -3 q 291 -1 319 -1 q 239 0 263 0 q 185 0 213 0 q 133 -1 157 0 q 94 -1 108 -1 q 79 -1 79 -1 l 93 61 q 178 88 158 68 q 197 167 197 107 l 199 750 m 415 -407 l 390 -386 l 390 -372 q 461 -308 432 -346 q 490 -235 490 -269 q 474 -185 490 -207 q 435 -149 458 -162 l 438 -129 q 474 -106 451 -118 q 518 -93 496 -93 q 572 -119 550 -93 q 593 -192 593 -146 q 565 -283 593 -242 q 495 -355 536 -324 q 415 -407 454 -386 z "},"L":{"ha":704,"x_min":94,"x_max":701,"o":"m 94 -14 l 103 50 q 177 83 157 58 q 197 167 197 107 l 199 750 q 189 810 199 794 q 147 825 179 825 q 117 824 135 825 q 100 822 100 822 l 97 828 l 107 889 q 135 888 107 889 q 199 885 163 886 q 263 885 236 885 q 310 887 285 885 q 359 891 336 889 q 397 895 382 893 q 411 897 411 897 l 406 835 q 342 817 360 829 q 321 778 324 804 q 314 706 318 753 q 304 519 308 619 q 299 326 300 418 q 297 169 297 233 q 305 99 297 122 q 338 69 313 76 q 415 63 364 63 q 514 69 476 63 q 574 97 551 76 q 611 157 597 118 q 636 260 625 196 l 697 267 l 701 260 q 694 222 701 260 q 678 125 688 185 q 661 -4 669 65 l 654 -12 q 615 -10 654 -12 q 517 -6 576 -8 q 394 -2 457 -4 q 281 0 331 0 q 187 -3 229 0 q 119 -10 144 -7 q 94 -14 94 -14 z "},"Ǉ":{"ha":1158,"x_min":94,"x_max":1089,"o":"m 94 -14 l 103 50 q 177 83 157 58 q 197 167 197 107 l 199 750 q 189 810 199 794 q 147 825 179 825 q 117 824 135 825 q 100 822 100 822 l 97 828 l 107 889 q 135 888 107 889 q 199 885 163 886 q 263 885 236 885 q 310 887 285 885 q 359 891 336 889 q 397 895 382 893 q 411 897 411 897 l 406 835 q 342 817 360 829 q 321 778 324 804 q 314 706 318 753 q 304 519 308 619 q 299 326 300 418 q 297 169 297 233 q 305 99 297 122 q 338 69 313 76 q 415 63 364 63 q 514 69 476 63 q 574 97 551 76 q 611 157 597 118 q 636 260 625 196 l 697 267 l 701 260 q 694 222 701 260 q 678 125 688 185 q 661 -4 669 65 l 654 -12 q 615 -10 654 -12 q 517 -6 576 -8 q 394 -2 457 -4 q 281 0 331 0 q 187 -3 229 0 q 119 -10 144 -7 q 94 -14 94 -14 m 760 -200 l 736 -154 l 740 -143 q 828 -71 797 -108 q 873 22 860 -33 q 886 160 886 76 l 888 750 q 878 809 888 794 q 836 824 868 824 q 813 822 828 824 q 784 819 797 821 q 771 818 771 818 l 768 824 l 778 885 l 928 885 q 996 888 958 885 q 1061 894 1033 890 q 1089 897 1089 897 l 1083 835 q 1021 814 1035 828 q 1004 756 1007 800 q 1001 658 1003 718 q 996 526 999 597 q 991 383 993 454 q 988 254 989 313 q 986 161 986 196 q 931 -66 985 19 q 760 -200 878 -151 z "},"Ĺ":{"ha":704,"x_min":94,"x_max":701,"o":"m 94 -14 l 103 50 q 177 83 157 58 q 197 167 197 107 l 199 750 q 189 810 199 794 q 147 825 179 825 q 117 824 135 825 q 100 822 100 822 l 97 828 l 107 889 q 135 888 107 889 q 199 885 163 886 q 263 885 236 885 q 310 887 285 885 q 359 891 336 889 q 397 895 382 893 q 411 897 411 897 l 406 835 q 342 817 360 829 q 321 778 324 804 q 314 706 318 753 q 304 519 308 619 q 299 326 300 418 q 297 169 297 233 q 305 99 297 122 q 338 69 313 76 q 415 63 364 63 q 514 69 476 63 q 574 97 551 76 q 611 157 597 118 q 636 260 625 196 l 697 267 l 701 260 q 694 222 701 260 q 678 125 688 185 q 661 -4 669 65 l 654 -12 q 615 -10 654 -12 q 517 -6 576 -8 q 394 -2 457 -4 q 281 0 331 0 q 187 -3 229 0 q 119 -10 144 -7 q 94 -14 94 -14 m 156 990 l 144 997 l 136 1031 q 234 1083 185 1056 q 324 1132 283 1110 q 388 1168 364 1154 q 413 1182 413 1182 l 425 1174 l 447 1107 l 442 1093 q 418 1085 442 1093 q 353 1063 394 1076 q 261 1030 313 1049 q 156 990 210 1011 z "},"Ľ":{"ha":704,"x_min":94,"x_max":701,"o":"m 593 554 l 578 557 q 578 703 581 633 q 573 816 576 772 q 569 860 569 860 l 667 879 l 676 868 q 670 824 676 868 q 653 713 664 781 q 628 574 643 644 l 593 554 m 94 -14 l 103 50 q 177 83 157 58 q 197 167 197 107 l 199 750 q 189 810 199 794 q 147 825 179 825 q 117 824 135 825 q 100 822 100 822 l 97 828 l 107 889 q 135 888 107 889 q 199 885 163 886 q 263 885 236 885 q 310 887 285 885 q 359 891 336 889 q 397 895 382 893 q 411 897 411 897 l 406 835 q 342 817 360 829 q 321 778 324 804 q 314 706 318 753 q 304 519 308 619 q 299 326 300 418 q 297 169 297 233 q 305 99 297 122 q 338 69 313 76 q 415 63 364 63 q 514 69 476 63 q 574 97 551 76 q 611 157 597 118 q 636 260 625 196 l 697 267 l 701 260 q 694 222 701 260 q 678 125 688 185 q 661 -4 669 65 l 654 -12 q 615 -10 654 -12 q 517 -6 576 -8 q 394 -2 457 -4 q 281 0 331 0 q 187 -3 229 0 q 119 -10 144 -7 q 94 -14 94 -14 z "},"Ļ":{"ha":704,"x_min":94,"x_max":701,"o":"m 94 -14 l 103 50 q 177 83 157 58 q 197 167 197 107 l 199 750 q 189 810 199 794 q 147 825 179 825 q 117 824 135 825 q 100 822 100 822 l 97 828 l 107 889 q 135 888 107 889 q 199 885 163 886 q 263 885 236 885 q 310 887 285 885 q 359 891 336 889 q 397 895 382 893 q 411 897 411 897 l 406 835 q 342 817 360 829 q 321 778 324 804 q 314 706 318 753 q 304 519 308 619 q 299 326 300 418 q 297 169 297 233 q 305 99 297 122 q 338 69 313 76 q 415 63 364 63 q 514 69 476 63 q 574 97 551 76 q 611 157 597 118 q 636 260 625 196 l 697 267 l 701 260 q 694 222 701 260 q 678 125 688 185 q 661 -4 669 65 l 654 -12 q 615 -10 654 -12 q 517 -6 576 -8 q 394 -2 457 -4 q 281 0 331 0 q 187 -3 229 0 q 119 -10 144 -7 q 94 -14 94 -14 m 321 -407 l 296 -386 l 296 -372 q 367 -308 338 -346 q 396 -235 396 -269 q 380 -185 396 -207 q 340 -149 364 -162 l 343 -129 q 379 -106 357 -118 q 424 -93 401 -93 q 477 -119 456 -93 q 499 -192 499 -146 q 470 -283 499 -242 q 401 -355 442 -324 q 321 -407 360 -386 z "},"Ŀ":{"ha":740,"x_min":94,"x_max":701,"o":"m 94 -14 l 103 50 q 177 83 157 58 q 197 167 197 107 l 199 750 q 189 810 199 794 q 147 825 179 825 q 117 824 135 825 q 100 822 100 822 l 97 828 l 107 889 q 135 888 107 889 q 199 885 163 886 q 263 885 236 885 q 310 887 285 885 q 359 891 336 889 q 397 895 382 893 q 411 897 411 897 l 406 835 q 342 817 360 829 q 321 778 324 804 q 314 706 318 753 q 304 519 308 619 q 299 326 300 418 q 297 169 297 233 q 305 99 297 122 q 338 69 313 76 q 415 63 364 63 q 514 69 476 63 q 574 97 551 76 q 611 157 597 118 q 636 260 625 196 l 697 267 l 701 260 q 694 222 701 260 q 678 125 688 185 q 661 -4 669 65 l 654 -12 q 615 -10 654 -12 q 517 -6 576 -8 q 394 -2 457 -4 q 281 0 331 0 q 187 -3 229 0 q 119 -10 144 -7 q 94 -14 94 -14 m 606 532 q 547 556 567 532 q 528 611 528 581 q 551 672 528 647 q 614 697 575 697 q 673 674 653 697 q 693 618 693 650 q 669 558 693 583 q 606 532 646 532 z "},"Ḷ":{"ha":704,"x_min":94,"x_max":701,"o":"m 94 -14 l 103 50 q 177 83 157 58 q 197 167 197 107 l 199 750 q 189 810 199 794 q 147 825 179 825 q 117 824 135 825 q 100 822 100 822 l 97 828 l 107 889 q 135 888 107 889 q 199 885 163 886 q 263 885 236 885 q 310 887 285 885 q 359 891 336 889 q 397 895 382 893 q 411 897 411 897 l 406 835 q 342 817 360 829 q 321 778 324 804 q 314 706 318 753 q 304 519 308 619 q 299 326 300 418 q 297 169 297 233 q 305 99 297 122 q 338 69 313 76 q 415 63 364 63 q 514 69 476 63 q 574 97 551 76 q 611 157 597 118 q 636 260 625 196 l 697 267 l 701 260 q 694 222 701 260 q 678 125 688 185 q 661 -4 669 65 l 654 -12 q 615 -10 654 -12 q 517 -6 576 -8 q 394 -2 457 -4 q 281 0 331 0 q 187 -3 229 0 q 119 -10 144 -7 q 94 -14 94 -14 m 390 -267 q 332 -242 351 -267 q 313 -187 313 -218 q 336 -126 313 -151 q 399 -101 360 -101 q 458 -125 438 -101 q 478 -181 478 -149 q 454 -241 478 -215 q 390 -267 431 -267 z "},"ǈ":{"ha":1051,"x_min":94,"x_max":954,"o":"m 94 -14 l 103 50 q 177 83 157 58 q 197 167 197 107 l 199 750 q 189 810 199 794 q 147 825 179 825 q 117 824 135 825 q 100 822 100 822 l 97 828 l 107 889 q 135 888 107 889 q 199 885 163 886 q 263 885 236 885 q 310 887 285 885 q 359 891 336 889 q 397 895 382 893 q 411 897 411 897 l 406 835 q 342 817 360 829 q 321 778 324 804 q 314 706 318 753 q 304 519 308 619 q 299 326 300 418 q 297 169 297 233 q 305 99 297 122 q 338 69 313 76 q 415 63 364 63 q 514 69 476 63 q 574 97 551 76 q 611 157 597 118 q 636 260 625 196 l 697 267 l 701 260 q 694 222 701 260 q 678 125 688 185 q 661 -4 669 65 l 654 -12 q 615 -10 654 -12 q 517 -6 576 -8 q 394 -2 457 -4 q 281 0 331 0 q 187 -3 229 0 q 119 -10 144 -7 q 94 -14 94 -14 m 750 -335 l 725 -308 l 728 -297 q 790 -212 768 -257 q 822 -105 813 -168 q 831 53 831 -42 l 831 483 q 819 542 831 526 q 775 558 807 558 q 751 556 764 558 q 738 554 738 554 l 743 606 q 810 616 775 610 q 875 629 844 622 q 924 640 906 636 q 943 644 943 644 l 950 628 q 933 442 939 608 q 926 -19 926 275 q 881 -201 926 -119 q 750 -335 836 -282 m 872 836 q 823 856 842 836 q 804 907 804 876 q 828 965 804 942 q 886 989 851 989 q 935 969 915 989 q 954 918 954 950 q 931 860 954 883 q 872 836 907 836 z "},"Ḻ":{"ha":704,"x_min":94,"x_max":701,"o":"m 94 -14 l 103 50 q 177 83 157 58 q 197 167 197 107 l 199 750 q 189 810 199 794 q 147 825 179 825 q 117 824 135 825 q 100 822 100 822 l 97 828 l 107 889 q 135 888 107 889 q 199 885 163 886 q 263 885 236 885 q 310 887 285 885 q 359 891 336 889 q 397 895 382 893 q 411 897 411 897 l 406 835 q 342 817 360 829 q 321 778 324 804 q 314 706 318 753 q 304 519 308 619 q 299 326 300 418 q 297 169 297 233 q 305 99 297 122 q 338 69 313 76 q 415 63 364 63 q 514 69 476 63 q 574 97 551 76 q 611 157 597 118 q 636 260 625 196 l 697 267 l 701 260 q 694 222 701 260 q 678 125 688 185 q 661 -4 669 65 l 654 -12 q 615 -10 654 -12 q 517 -6 576 -8 q 394 -2 457 -4 q 281 0 331 0 q 187 -3 229 0 q 119 -10 144 -7 q 94 -14 94 -14 m 199 -226 l 190 -214 l 204 -151 q 226 -151 204 -151 q 281 -152 247 -151 q 351 -153 314 -153 q 418 -153 388 -153 q 494 -151 453 -153 q 567 -147 536 -149 q 597 -144 597 -144 l 606 -158 l 596 -224 l 399 -225 q 311 -225 358 -225 q 231 -226 264 -225 q 199 -226 199 -226 z "},"Ł":{"ha":765,"x_min":85,"x_max":701,"o":"m 104 358 l 92 363 l 85 407 l 264 496 l 264 488 l 553 631 l 564 624 l 571 581 l 264 429 l 264 438 l 104 358 m 94 -14 l 103 50 q 177 83 157 58 q 197 167 197 107 l 199 750 q 189 810 199 794 q 147 825 179 825 q 117 824 135 825 q 100 822 100 822 l 97 828 l 107 889 q 135 888 107 889 q 199 885 163 886 q 263 885 236 885 q 310 887 285 885 q 359 891 336 889 q 397 895 382 893 q 411 897 411 897 l 406 835 q 342 817 360 829 q 321 778 324 804 q 314 706 318 753 q 304 519 308 619 q 299 326 300 418 q 297 169 297 233 q 305 99 297 122 q 338 69 313 76 q 415 63 364 63 q 514 69 476 63 q 574 97 551 76 q 611 157 597 118 q 636 260 625 196 l 697 267 l 701 260 q 694 222 701 260 q 678 125 688 185 q 661 -4 669 65 l 654 -12 q 615 -10 654 -12 q 517 -6 576 -8 q 394 -2 457 -4 q 281 0 331 0 q 187 -3 229 0 q 119 -10 144 -7 q 94 -14 94 -14 z "},"M":{"ha":1176,"x_min":64,"x_max":1108,"o":"m 551 -26 q 463 224 507 99 q 374 473 418 349 q 285 722 329 597 l 278 722 q 274 680 278 722 q 265 570 271 638 q 253 426 260 503 q 240 280 246 350 q 231 162 235 210 q 228 104 228 114 q 271 61 228 61 q 305 62 282 61 q 328 63 328 63 l 331 57 l 318 -6 q 294 -4 318 -6 q 238 -1 269 -3 q 183 0 207 0 q 142 -1 163 0 q 103 -6 121 -3 q 74 -10 85 -8 q 64 -11 64 -11 l 71 53 q 135 81 115 58 q 160 160 154 104 q 168 235 163 185 q 181 351 174 286 q 194 482 188 415 q 206 608 200 549 q 216 709 213 668 q 219 760 219 750 q 207 800 219 785 q 168 824 194 815 q 100 836 142 833 l 96 843 l 107 892 q 135 890 107 892 q 200 887 164 889 q 258 885 236 885 q 301 886 279 885 q 338 889 322 888 q 353 890 353 890 q 442 613 400 739 q 517 394 485 486 q 569 252 550 303 q 588 201 588 201 l 594 201 q 613 252 594 201 q 665 395 632 303 q 742 613 699 488 q 835 888 785 738 q 852 888 835 889 q 891 885 869 886 q 926 885 913 885 q 983 887 947 885 q 1048 891 1019 889 q 1076 893 1076 893 l 1079 888 l 1072 836 q 988 812 1013 829 q 963 760 963 794 q 965 704 963 747 q 971 599 967 661 q 980 465 975 536 q 990 322 985 393 q 999 193 994 251 q 1021 87 1008 113 q 1067 61 1033 61 q 1092 63 1079 61 q 1106 64 1106 64 l 1108 58 l 1096 -4 q 1074 -3 1096 -4 q 1020 -1 1051 -1 q 964 0 989 0 q 917 -1 942 0 q 869 -6 892 -3 q 833 -10 847 -8 q 819 -11 819 -11 l 825 53 q 888 75 868 58 q 907 122 907 92 q 903 183 907 135 q 894 299 900 231 q 883 440 889 367 q 872 578 878 514 q 863 682 867 642 q 860 722 860 722 l 853 722 q 786 538 819 631 q 719 353 753 446 q 651 167 685 260 q 585 -17 618 75 l 551 -26 z "},"Ṃ":{"ha":1176,"x_min":64,"x_max":1108,"o":"m 551 -26 q 463 224 507 99 q 374 473 418 349 q 285 722 329 597 l 278 722 q 274 680 278 722 q 265 570 271 638 q 253 426 260 503 q 240 280 246 350 q 231 162 235 210 q 228 104 228 114 q 271 61 228 61 q 305 62 282 61 q 328 63 328 63 l 331 57 l 318 -6 q 294 -4 318 -6 q 238 -1 269 -3 q 183 0 207 0 q 142 -1 163 0 q 103 -6 121 -3 q 74 -10 85 -8 q 64 -11 64 -11 l 71 53 q 135 81 115 58 q 160 160 154 104 q 168 235 163 185 q 181 351 174 286 q 194 482 188 415 q 206 608 200 549 q 216 709 213 668 q 219 760 219 750 q 207 800 219 785 q 168 824 194 815 q 100 836 142 833 l 96 843 l 107 892 q 135 890 107 892 q 200 887 164 889 q 258 885 236 885 q 301 886 279 885 q 338 889 322 888 q 353 890 353 890 q 442 613 400 739 q 517 394 485 486 q 569 252 550 303 q 588 201 588 201 l 594 201 q 613 252 594 201 q 665 395 632 303 q 742 613 699 488 q 835 888 785 738 q 852 888 835 889 q 891 885 869 886 q 926 885 913 885 q 983 887 947 885 q 1048 891 1019 889 q 1076 893 1076 893 l 1079 888 l 1072 836 q 988 812 1013 829 q 963 760 963 794 q 965 704 963 747 q 971 599 967 661 q 980 465 975 536 q 990 322 985 393 q 999 193 994 251 q 1021 87 1008 113 q 1067 61 1033 61 q 1092 63 1079 61 q 1106 64 1106 64 l 1108 58 l 1096 -4 q 1074 -3 1096 -4 q 1020 -1 1051 -1 q 964 0 989 0 q 917 -1 942 0 q 869 -6 892 -3 q 833 -10 847 -8 q 819 -11 819 -11 l 825 53 q 888 75 868 58 q 907 122 907 92 q 903 183 907 135 q 894 299 900 231 q 883 440 889 367 q 872 578 878 514 q 863 682 867 642 q 860 722 860 722 l 853 722 q 786 538 819 631 q 719 353 753 446 q 651 167 685 260 q 585 -17 618 75 l 551 -26 m 550 -267 q 492 -242 511 -267 q 472 -187 472 -218 q 496 -126 472 -151 q 558 -101 519 -101 q 617 -125 597 -101 q 638 -181 638 -149 q 614 -241 638 -215 q 550 -267 590 -267 z "},"N":{"ha":999,"x_min":75,"x_max":953,"o":"m 792 -56 q 597 242 690 103 q 432 485 504 381 q 317 650 360 590 q 275 710 275 710 l 268 710 l 261 117 q 271 74 261 86 q 304 61 281 61 q 328 62 311 61 q 360 63 346 63 q 375 63 375 63 l 378 57 l 365 -6 q 351 -5 365 -6 q 314 -3 336 -4 q 266 -1 292 -1 q 218 0 240 0 q 160 -3 190 0 q 110 -8 131 -6 q 89 -11 89 -11 l 96 53 q 160 78 139 58 q 182 140 181 97 l 200 747 q 174 808 200 790 q 79 833 149 826 l 75 840 l 86 892 q 108 890 86 892 q 158 887 129 889 q 206 885 186 885 q 250 886 229 885 q 285 889 271 888 q 299 890 299 890 q 435 682 368 783 q 563 493 503 581 q 668 340 622 406 q 740 238 714 275 q 765 201 765 201 l 772 201 l 772 764 q 761 809 772 794 q 726 824 750 824 q 691 823 708 824 q 674 822 674 822 l 671 828 l 683 890 q 697 890 683 890 q 732 888 711 889 q 775 885 753 886 q 815 885 797 885 q 876 888 844 885 q 931 893 908 890 q 953 896 953 896 l 946 832 q 876 806 899 826 q 851 744 853 785 l 832 -36 l 792 -56 z "},"Ǌ":{"ha":1453,"x_min":75,"x_max":1383,"o":"m 792 -56 q 597 242 690 103 q 432 485 504 381 q 317 650 360 590 q 275 710 275 710 l 268 710 l 261 117 q 271 74 261 86 q 304 61 281 61 q 328 62 311 61 q 360 63 346 63 q 375 63 375 63 l 378 57 l 365 -6 q 351 -5 365 -6 q 314 -3 336 -4 q 266 -1 292 -1 q 218 0 240 0 q 160 -3 190 0 q 110 -8 131 -6 q 89 -11 89 -11 l 96 53 q 160 78 139 58 q 182 140 181 97 l 200 747 q 174 808 200 790 q 79 833 149 826 l 75 840 l 86 892 q 108 890 86 892 q 158 887 129 889 q 206 885 186 885 q 250 886 229 885 q 285 889 271 888 q 299 890 299 890 q 435 682 368 783 q 563 493 503 581 q 668 340 622 406 q 740 238 714 275 q 765 201 765 201 l 772 201 l 772 764 q 761 809 772 794 q 726 824 750 824 q 691 823 708 824 q 674 822 674 822 l 671 828 l 683 890 q 697 890 683 890 q 732 888 711 889 q 775 885 753 886 q 815 885 797 885 q 876 888 844 885 q 931 893 908 890 q 953 896 953 896 l 946 832 q 876 806 899 826 q 851 744 853 785 l 832 -36 l 792 -56 m 1054 -200 l 1031 -154 l 1035 -143 q 1123 -71 1092 -108 q 1167 22 1154 -33 q 1181 160 1181 76 l 1182 750 q 1172 809 1182 794 q 1131 824 1163 824 q 1107 822 1122 824 q 1078 819 1092 821 q 1065 818 1065 818 l 1063 824 l 1072 885 l 1222 885 q 1290 888 1253 885 q 1356 894 1328 890 q 1383 897 1383 897 l 1378 835 q 1315 814 1329 828 q 1299 756 1301 800 q 1295 658 1297 718 q 1290 526 1293 597 q 1285 383 1288 454 q 1282 254 1283 313 q 1281 161 1281 196 q 1226 -66 1279 19 q 1054 -200 1172 -151 z "},"Ń":{"ha":999,"x_min":75,"x_max":953,"o":"m 792 -56 q 597 242 690 103 q 432 485 504 381 q 317 650 360 590 q 275 710 275 710 l 268 710 l 261 117 q 271 74 261 86 q 304 61 281 61 q 328 62 311 61 q 360 63 346 63 q 375 63 375 63 l 378 57 l 365 -6 q 351 -5 365 -6 q 314 -3 336 -4 q 266 -1 292 -1 q 218 0 240 0 q 160 -3 190 0 q 110 -8 131 -6 q 89 -11 89 -11 l 96 53 q 160 78 139 58 q 182 140 181 97 l 200 747 q 174 808 200 790 q 79 833 149 826 l 75 840 l 86 892 q 108 890 86 892 q 158 887 129 889 q 206 885 186 885 q 250 886 229 885 q 285 889 271 888 q 299 890 299 890 q 435 682 368 783 q 563 493 503 581 q 668 340 622 406 q 740 238 714 275 q 765 201 765 201 l 772 201 l 772 764 q 761 809 772 794 q 726 824 750 824 q 691 823 708 824 q 674 822 674 822 l 671 828 l 683 890 q 697 890 683 890 q 732 888 711 889 q 775 885 753 886 q 815 885 797 885 q 876 888 844 885 q 931 893 908 890 q 953 896 953 896 l 946 832 q 876 806 899 826 q 851 744 853 785 l 832 -36 l 792 -56 m 446 976 l 435 983 l 426 1017 q 524 1069 475 1042 q 614 1118 574 1096 q 678 1154 654 1140 q 703 1168 703 1168 l 715 1160 l 738 1093 l 732 1079 q 708 1071 732 1079 q 644 1049 685 1063 q 551 1016 603 1035 q 446 976 500 997 z "},"Ň":{"ha":999,"x_min":75,"x_max":953,"o":"m 792 -56 q 597 242 690 103 q 432 485 504 381 q 317 650 360 590 q 275 710 275 710 l 268 710 l 261 117 q 271 74 261 86 q 304 61 281 61 q 328 62 311 61 q 360 63 346 63 q 375 63 375 63 l 378 57 l 365 -6 q 351 -5 365 -6 q 314 -3 336 -4 q 266 -1 292 -1 q 218 0 240 0 q 160 -3 190 0 q 110 -8 131 -6 q 89 -11 89 -11 l 96 53 q 160 78 139 58 q 182 140 181 97 l 200 747 q 174 808 200 790 q 79 833 149 826 l 75 840 l 86 892 q 108 890 86 892 q 158 887 129 889 q 206 885 186 885 q 250 886 229 885 q 285 889 271 888 q 299 890 299 890 q 435 682 368 783 q 563 493 503 581 q 668 340 622 406 q 740 238 714 275 q 765 201 765 201 l 772 201 l 772 764 q 761 809 772 794 q 726 824 750 824 q 691 823 708 824 q 674 822 674 822 l 671 828 l 683 890 q 697 890 683 890 q 732 888 711 889 q 775 885 753 886 q 815 885 797 885 q 876 888 844 885 q 931 893 908 890 q 953 896 953 896 l 946 832 q 876 806 899 826 q 851 744 853 785 l 832 -36 l 792 -56 m 506 978 q 489 992 506 978 q 444 1030 472 1007 q 381 1080 415 1053 q 314 1132 347 1107 l 333 1163 l 346 1164 q 441 1112 394 1136 q 515 1074 488 1088 q 590 1111 544 1088 q 685 1164 635 1135 l 697 1163 l 717 1132 q 649 1080 683 1107 q 587 1030 615 1053 q 542 992 558 1007 q 525 978 525 978 l 506 978 z "},"Ņ":{"ha":999,"x_min":75,"x_max":953,"o":"m 792 -56 q 597 242 690 103 q 432 485 504 381 q 317 650 360 590 q 275 710 275 710 l 268 710 l 261 117 q 271 74 261 86 q 304 61 281 61 q 328 62 311 61 q 360 63 346 63 q 375 63 375 63 l 378 57 l 365 -6 q 351 -5 365 -6 q 314 -3 336 -4 q 266 -1 292 -1 q 218 0 240 0 q 160 -3 190 0 q 110 -8 131 -6 q 89 -11 89 -11 l 96 53 q 160 78 139 58 q 182 140 181 97 l 200 747 q 174 808 200 790 q 79 833 149 826 l 75 840 l 86 892 q 108 890 86 892 q 158 887 129 889 q 206 885 186 885 q 250 886 229 885 q 285 889 271 888 q 299 890 299 890 q 435 682 368 783 q 563 493 503 581 q 668 340 622 406 q 740 238 714 275 q 765 201 765 201 l 772 201 l 772 764 q 761 809 772 794 q 726 824 750 824 q 691 823 708 824 q 674 822 674 822 l 671 828 l 683 890 q 697 890 683 890 q 732 888 711 889 q 775 885 753 886 q 815 885 797 885 q 876 888 844 885 q 931 893 908 890 q 953 896 953 896 l 946 832 q 876 806 899 826 q 851 744 853 785 l 832 -36 l 792 -56 m 413 -407 l 388 -386 l 388 -372 q 458 -308 429 -346 q 488 -235 488 -269 q 472 -185 488 -207 q 432 -149 456 -162 l 435 -129 q 471 -106 449 -118 q 515 -93 493 -93 q 569 -119 547 -93 q 590 -192 590 -146 q 562 -283 590 -242 q 492 -355 533 -324 q 413 -407 451 -386 z "},"Ṅ":{"ha":999,"x_min":75,"x_max":953,"o":"m 792 -56 q 597 242 690 103 q 432 485 504 381 q 317 650 360 590 q 275 710 275 710 l 268 710 l 261 117 q 271 74 261 86 q 304 61 281 61 q 328 62 311 61 q 360 63 346 63 q 375 63 375 63 l 378 57 l 365 -6 q 351 -5 365 -6 q 314 -3 336 -4 q 266 -1 292 -1 q 218 0 240 0 q 160 -3 190 0 q 110 -8 131 -6 q 89 -11 89 -11 l 96 53 q 160 78 139 58 q 182 140 181 97 l 200 747 q 174 808 200 790 q 79 833 149 826 l 75 840 l 86 892 q 108 890 86 892 q 158 887 129 889 q 206 885 186 885 q 250 886 229 885 q 285 889 271 888 q 299 890 299 890 q 435 682 368 783 q 563 493 503 581 q 668 340 622 406 q 740 238 714 275 q 765 201 765 201 l 772 201 l 772 764 q 761 809 772 794 q 726 824 750 824 q 691 823 708 824 q 674 822 674 822 l 671 828 l 683 890 q 697 890 683 890 q 732 888 711 889 q 775 885 753 886 q 815 885 797 885 q 876 888 844 885 q 931 893 908 890 q 953 896 953 896 l 946 832 q 876 806 899 826 q 851 744 853 785 l 832 -36 l 792 -56 m 493 985 q 442 1007 458 985 q 425 1056 425 1029 q 449 1113 425 1089 q 507 1138 472 1138 q 558 1116 540 1138 q 575 1067 575 1094 q 552 1009 575 1033 q 493 985 529 985 z "},"Ṇ":{"ha":999,"x_min":75,"x_max":953,"o":"m 792 -56 q 597 242 690 103 q 432 485 504 381 q 317 650 360 590 q 275 710 275 710 l 268 710 l 261 117 q 271 74 261 86 q 304 61 281 61 q 328 62 311 61 q 360 63 346 63 q 375 63 375 63 l 378 57 l 365 -6 q 351 -5 365 -6 q 314 -3 336 -4 q 266 -1 292 -1 q 218 0 240 0 q 160 -3 190 0 q 110 -8 131 -6 q 89 -11 89 -11 l 96 53 q 160 78 139 58 q 182 140 181 97 l 200 747 q 174 808 200 790 q 79 833 149 826 l 75 840 l 86 892 q 108 890 86 892 q 158 887 129 889 q 206 885 186 885 q 250 886 229 885 q 285 889 271 888 q 299 890 299 890 q 435 682 368 783 q 563 493 503 581 q 668 340 622 406 q 740 238 714 275 q 765 201 765 201 l 772 201 l 772 764 q 761 809 772 794 q 726 824 750 824 q 691 823 708 824 q 674 822 674 822 l 671 828 l 683 890 q 697 890 683 890 q 732 888 711 889 q 775 885 753 886 q 815 885 797 885 q 876 888 844 885 q 931 893 908 890 q 953 896 953 896 l 946 832 q 876 806 899 826 q 851 744 853 785 l 832 -36 l 792 -56 m 492 -267 q 433 -242 453 -267 q 414 -187 414 -218 q 438 -126 414 -151 q 500 -101 461 -101 q 559 -125 539 -101 q 579 -181 579 -149 q 556 -241 579 -215 q 492 -267 532 -267 z "},"Ŋ":{"ha":999,"x_min":75,"x_max":953,"o":"m 613 -214 l 589 -168 l 593 -157 q 698 -86 661 -126 q 749 11 735 -46 q 567 284 653 157 q 416 507 482 411 q 313 656 350 603 q 275 710 275 710 l 268 710 l 261 117 q 271 74 261 86 q 304 61 281 61 q 328 62 311 61 q 359 63 344 63 q 374 64 374 64 l 378 58 l 365 -6 q 340 -4 365 -6 q 279 -1 315 -3 q 210 0 243 0 q 154 -3 182 0 q 108 -8 126 -6 q 89 -11 89 -11 l 96 53 q 163 81 144 57 q 183 172 181 106 l 200 747 q 176 806 200 788 q 79 833 153 824 l 75 840 l 86 892 q 99 890 86 892 q 131 888 113 889 q 169 886 150 888 q 199 885 188 885 q 233 886 208 885 q 278 889 257 888 q 299 890 299 890 q 422 701 357 797 q 547 515 486 604 q 658 355 608 425 q 736 243 707 285 q 765 201 765 201 l 772 201 l 772 764 q 761 809 772 794 q 726 824 750 824 q 691 823 708 824 q 674 822 674 822 l 671 828 l 683 890 q 697 890 683 890 q 732 888 711 889 q 776 885 753 886 q 815 885 799 885 q 861 886 838 885 q 906 890 885 888 q 940 894 926 893 q 953 896 953 896 l 946 832 q 874 806 896 826 q 851 744 853 785 l 839 119 q 783 -92 835 -15 q 613 -214 731 -169 z "},"ǋ":{"ha":1346,"x_min":75,"x_max":1249,"o":"m 792 -56 q 597 242 690 103 q 432 485 504 381 q 317 650 360 590 q 275 710 275 710 l 268 710 l 261 117 q 271 74 261 86 q 304 61 281 61 q 328 62 311 61 q 360 63 346 63 q 375 63 375 63 l 378 57 l 365 -6 q 351 -5 365 -6 q 314 -3 336 -4 q 266 -1 292 -1 q 218 0 240 0 q 160 -3 190 0 q 110 -8 131 -6 q 89 -11 89 -11 l 96 53 q 160 78 139 58 q 182 140 181 97 l 200 747 q 174 808 200 790 q 79 833 149 826 l 75 840 l 86 892 q 108 890 86 892 q 158 887 129 889 q 206 885 186 885 q 250 886 229 885 q 285 889 271 888 q 299 890 299 890 q 435 682 368 783 q 563 493 503 581 q 668 340 622 406 q 740 238 714 275 q 765 201 765 201 l 772 201 l 772 764 q 761 809 772 794 q 726 824 750 824 q 691 823 708 824 q 674 822 674 822 l 671 828 l 683 890 q 697 890 683 890 q 732 888 711 889 q 775 885 753 886 q 815 885 797 885 q 876 888 844 885 q 931 893 908 890 q 953 896 953 896 l 946 832 q 876 806 899 826 q 851 744 853 785 l 832 -36 l 792 -56 m 1044 -335 l 1019 -308 l 1022 -297 q 1085 -212 1063 -257 q 1116 -105 1107 -168 q 1125 53 1125 -42 l 1125 483 q 1113 542 1125 526 q 1069 558 1101 558 q 1045 556 1058 558 q 1032 554 1032 554 l 1038 606 q 1104 616 1069 610 q 1169 629 1139 622 q 1219 640 1200 636 q 1238 644 1238 644 l 1244 628 q 1227 442 1233 608 q 1221 -19 1221 275 q 1176 -201 1221 -119 q 1044 -335 1131 -282 m 1167 836 q 1117 856 1136 836 q 1099 907 1099 876 q 1122 965 1099 942 q 1181 989 1146 989 q 1229 969 1210 989 q 1249 918 1249 950 q 1225 860 1249 883 q 1167 836 1201 836 z "},"Ṉ":{"ha":999,"x_min":75,"x_max":953,"o":"m 792 -56 q 597 242 690 103 q 432 485 504 381 q 317 650 360 590 q 275 710 275 710 l 268 710 l 261 117 q 271 74 261 86 q 304 61 281 61 q 328 62 311 61 q 360 63 346 63 q 375 63 375 63 l 378 57 l 365 -6 q 351 -5 365 -6 q 314 -3 336 -4 q 266 -1 292 -1 q 218 0 240 0 q 160 -3 190 0 q 110 -8 131 -6 q 89 -11 89 -11 l 96 53 q 160 78 139 58 q 182 140 181 97 l 200 747 q 174 808 200 790 q 79 833 149 826 l 75 840 l 86 892 q 108 890 86 892 q 158 887 129 889 q 206 885 186 885 q 250 886 229 885 q 285 889 271 888 q 299 890 299 890 q 435 682 368 783 q 563 493 503 581 q 668 340 622 406 q 740 238 714 275 q 765 201 765 201 l 772 201 l 772 764 q 761 809 772 794 q 726 824 750 824 q 691 823 708 824 q 674 822 674 822 l 671 828 l 683 890 q 697 890 683 890 q 732 888 711 889 q 775 885 753 886 q 815 885 797 885 q 876 888 844 885 q 931 893 908 890 q 953 896 953 896 l 946 832 q 876 806 899 826 q 851 744 853 785 l 832 -36 l 792 -56 m 300 -226 l 292 -214 l 306 -151 q 327 -151 306 -151 q 382 -152 349 -151 q 452 -153 415 -153 q 519 -153 489 -153 q 596 -151 554 -153 q 668 -147 638 -149 q 699 -144 699 -144 l 707 -158 l 697 -224 l 500 -225 q 413 -225 460 -225 q 333 -226 365 -225 q 300 -226 300 -226 z "},"Ñ":{"ha":999,"x_min":75,"x_max":953,"o":"m 792 -56 q 597 242 690 103 q 432 485 504 381 q 317 650 360 590 q 275 710 275 710 l 268 710 l 261 117 q 271 74 261 86 q 304 61 281 61 q 328 62 311 61 q 360 63 346 63 q 375 63 375 63 l 378 57 l 365 -6 q 351 -5 365 -6 q 314 -3 336 -4 q 266 -1 292 -1 q 218 0 240 0 q 160 -3 190 0 q 110 -8 131 -6 q 89 -11 89 -11 l 96 53 q 160 78 139 58 q 182 140 181 97 l 200 747 q 174 808 200 790 q 79 833 149 826 l 75 840 l 86 892 q 108 890 86 892 q 158 887 129 889 q 206 885 186 885 q 250 886 229 885 q 285 889 271 888 q 299 890 299 890 q 435 682 368 783 q 563 493 503 581 q 668 340 622 406 q 740 238 714 275 q 765 201 765 201 l 772 201 l 772 764 q 761 809 772 794 q 726 824 750 824 q 691 823 708 824 q 674 822 674 822 l 671 828 l 683 890 q 697 890 683 890 q 732 888 711 889 q 775 885 753 886 q 815 885 797 885 q 876 888 844 885 q 931 893 908 890 q 953 896 953 896 l 946 832 q 876 806 899 826 q 851 744 853 785 l 832 -36 l 792 -56 m 319 971 l 289 1000 l 289 1007 l 394 1117 l 417 1122 q 462 1115 433 1122 q 521 1099 490 1108 q 578 1083 551 1090 q 619 1076 606 1076 q 647 1086 632 1076 q 675 1108 661 1096 q 698 1129 689 1119 q 707 1139 707 1139 l 715 1139 l 746 1110 l 746 1103 l 640 993 l 618 988 q 573 994 601 988 q 514 1010 544 1001 q 457 1026 483 1019 q 415 1033 431 1033 q 388 1024 403 1033 q 359 1002 372 1014 q 337 981 346 990 q 328 971 328 971 l 319 971 z "},"O":{"ha":961,"x_min":56,"x_max":906,"o":"m 440 -17 q 240 38 326 -17 q 104 189 153 92 q 56 413 56 286 q 90 604 56 515 q 188 760 125 693 q 333 864 250 826 q 513 901 417 901 q 717 847 629 901 q 856 697 806 793 q 906 474 906 600 q 870 281 906 369 q 772 125 835 192 q 624 21 708 58 q 440 -17 539 -17 m 483 54 q 639 100 572 54 q 744 227 706 146 q 782 415 782 308 q 742 625 782 535 q 631 767 701 715 q 465 818 560 818 q 314 772 379 818 q 212 645 249 726 q 175 457 175 564 q 214 248 175 339 q 323 106 253 157 q 483 54 393 54 z "},"Ó":{"ha":961,"x_min":56,"x_max":906,"o":"m 440 -17 q 240 38 326 -17 q 104 189 153 92 q 56 413 56 286 q 90 604 56 515 q 188 760 125 693 q 333 864 250 826 q 513 901 417 901 q 717 847 629 901 q 856 697 806 793 q 906 474 906 600 q 870 281 906 369 q 772 125 835 192 q 624 21 708 58 q 440 -17 539 -17 m 483 54 q 639 100 572 54 q 744 227 706 146 q 782 415 782 308 q 742 625 782 535 q 631 767 701 715 q 465 818 560 818 q 314 772 379 818 q 212 645 249 726 q 175 457 175 564 q 214 248 175 339 q 323 106 253 157 q 483 54 393 54 m 406 976 l 394 983 l 386 1017 q 484 1069 435 1042 q 574 1118 533 1096 q 638 1154 614 1140 q 663 1168 663 1168 l 675 1160 l 697 1093 l 692 1079 q 668 1071 692 1079 q 603 1049 644 1063 q 511 1016 563 1035 q 406 976 460 997 z "},"Ŏ":{"ha":961,"x_min":56,"x_max":906,"o":"m 440 -17 q 240 38 326 -17 q 104 189 153 92 q 56 413 56 286 q 90 604 56 515 q 188 760 125 693 q 333 864 250 826 q 513 901 417 901 q 717 847 629 901 q 856 697 806 793 q 906 474 906 600 q 870 281 906 369 q 772 125 835 192 q 624 21 708 58 q 440 -17 539 -17 m 483 54 q 639 100 572 54 q 744 227 706 146 q 782 415 782 308 q 742 625 782 535 q 631 767 701 715 q 465 818 560 818 q 314 772 379 818 q 212 645 249 726 q 175 457 175 564 q 214 248 175 339 q 323 106 253 157 q 483 54 393 54 m 451 990 q 370 1013 404 990 q 315 1073 336 1036 q 285 1149 294 1110 l 307 1163 l 318 1163 q 372 1094 336 1117 q 451 1071 408 1071 q 531 1094 496 1071 q 585 1163 567 1117 l 596 1163 l 618 1149 q 588 1073 608 1110 q 533 1013 567 1036 q 451 990 500 990 z "},"Ǒ":{"ha":961,"x_min":56,"x_max":906,"o":"m 440 -17 q 240 38 326 -17 q 104 189 153 92 q 56 413 56 286 q 90 604 56 515 q 188 760 125 693 q 333 864 250 826 q 513 901 417 901 q 717 847 629 901 q 856 697 806 793 q 906 474 906 600 q 870 281 906 369 q 772 125 835 192 q 624 21 708 58 q 440 -17 539 -17 m 483 54 q 639 100 572 54 q 744 227 706 146 q 782 415 782 308 q 742 625 782 535 q 631 767 701 715 q 465 818 560 818 q 314 772 379 818 q 212 645 249 726 q 175 457 175 564 q 214 248 175 339 q 323 106 253 157 q 483 54 393 54 m 464 978 q 447 992 464 978 q 402 1030 431 1007 q 340 1080 374 1053 q 272 1132 306 1107 l 292 1163 l 304 1164 q 399 1112 353 1136 q 474 1074 446 1088 q 548 1111 503 1088 q 643 1164 593 1135 l 656 1163 l 675 1132 q 608 1080 642 1107 q 545 1030 574 1053 q 500 992 517 1007 q 483 978 483 978 l 464 978 z "},"Ô":{"ha":961,"x_min":56,"x_max":906,"o":"m 440 -17 q 240 38 326 -17 q 104 189 153 92 q 56 413 56 286 q 90 604 56 515 q 188 760 125 693 q 333 864 250 826 q 513 901 417 901 q 717 847 629 901 q 856 697 806 793 q 906 474 906 600 q 870 281 906 369 q 772 125 835 192 q 624 21 708 58 q 440 -17 539 -17 m 483 54 q 639 100 572 54 q 744 227 706 146 q 782 415 782 308 q 742 625 782 535 q 631 767 701 715 q 465 818 560 818 q 314 772 379 818 q 212 645 249 726 q 175 457 175 564 q 214 248 175 339 q 323 106 253 157 q 483 54 393 54 m 306 989 l 293 990 l 274 1021 q 341 1073 307 1046 q 403 1123 375 1100 q 449 1160 432 1146 q 465 1175 465 1175 l 485 1175 q 501 1160 485 1175 q 547 1123 518 1146 q 609 1073 575 1100 q 676 1021 643 1046 l 657 990 l 644 989 q 549 1041 596 1017 q 475 1079 503 1065 q 401 1042 446 1065 q 306 989 356 1018 z "},"Ố":{"ha":961,"x_min":56,"x_max":906,"o":"m 440 -17 q 240 38 326 -17 q 104 189 153 92 q 56 413 56 286 q 90 604 56 515 q 188 760 125 693 q 333 864 250 826 q 513 901 417 901 q 717 847 629 901 q 856 697 806 793 q 906 474 906 600 q 870 281 906 369 q 772 125 835 192 q 624 21 708 58 q 440 -17 539 -17 m 483 54 q 639 100 572 54 q 744 227 706 146 q 782 415 782 308 q 742 625 782 535 q 631 767 701 715 q 465 818 560 818 q 314 772 379 818 q 212 645 249 726 q 175 457 175 564 q 214 248 175 339 q 323 106 253 157 q 483 54 393 54 m 318 928 l 306 929 l 286 960 q 353 1012 319 985 q 416 1062 388 1039 q 461 1099 444 1085 q 478 1114 478 1114 l 497 1114 q 526 1090 497 1114 q 600 1030 556 1065 q 689 960 644 994 l 669 929 l 657 928 q 562 980 608 956 q 488 1018 515 1004 q 413 981 458 1004 q 318 928 368 957 m 626 1069 l 593 1089 l 675 1271 l 690 1272 l 747 1236 l 750 1221 l 639 1071 l 626 1069 z "},"Ộ":{"ha":961,"x_min":56,"x_max":906,"o":"m 440 -17 q 240 38 326 -17 q 104 189 153 92 q 56 413 56 286 q 90 604 56 515 q 188 760 125 693 q 333 864 250 826 q 513 901 417 901 q 717 847 629 901 q 856 697 806 793 q 906 474 906 600 q 870 281 906 369 q 772 125 835 192 q 624 21 708 58 q 440 -17 539 -17 m 483 54 q 639 100 572 54 q 744 227 706 146 q 782 415 782 308 q 742 625 782 535 q 631 767 701 715 q 465 818 560 818 q 314 772 379 818 q 212 645 249 726 q 175 457 175 564 q 214 248 175 339 q 323 106 253 157 q 483 54 393 54 m 306 989 l 293 990 l 274 1021 q 341 1073 307 1046 q 403 1123 375 1100 q 449 1160 432 1146 q 465 1175 465 1175 l 485 1175 q 501 1160 485 1175 q 547 1123 518 1146 q 609 1073 575 1100 q 676 1021 643 1046 l 657 990 l 644 989 q 549 1041 596 1017 q 475 1079 503 1065 q 401 1042 446 1065 q 306 989 356 1018 m 474 -267 q 415 -242 435 -267 q 396 -187 396 -218 q 419 -126 396 -151 q 482 -101 443 -101 q 541 -125 521 -101 q 561 -181 561 -149 q 538 -241 561 -215 q 474 -267 514 -267 z "},"Ồ":{"ha":961,"x_min":56,"x_max":906,"o":"m 440 -17 q 240 38 326 -17 q 104 189 153 92 q 56 413 56 286 q 90 604 56 515 q 188 760 125 693 q 333 864 250 826 q 513 901 417 901 q 717 847 629 901 q 856 697 806 793 q 906 474 906 600 q 870 281 906 369 q 772 125 835 192 q 624 21 708 58 q 440 -17 539 -17 m 483 54 q 639 100 572 54 q 744 227 706 146 q 782 415 782 308 q 742 625 782 535 q 631 767 701 715 q 465 818 560 818 q 314 772 379 818 q 212 645 249 726 q 175 457 175 564 q 214 248 175 339 q 323 106 253 157 q 483 54 393 54 m 657 1060 l 644 1061 l 533 1211 l 536 1226 l 593 1263 l 608 1261 l 690 1079 l 657 1060 m 286 960 q 353 1012 319 985 q 416 1062 388 1039 q 461 1099 444 1085 q 478 1114 478 1114 l 497 1114 q 526 1090 497 1114 q 600 1030 556 1065 q 689 960 644 994 l 669 929 l 657 928 q 562 980 608 956 q 488 1018 515 1004 q 413 981 458 1004 q 318 928 368 957 l 306 929 l 286 960 z "},"Ổ":{"ha":961,"x_min":56,"x_max":906,"o":"m 440 -17 q 240 38 326 -17 q 104 189 153 92 q 56 413 56 286 q 90 604 56 515 q 188 760 125 693 q 333 864 250 826 q 513 901 417 901 q 717 847 629 901 q 856 697 806 793 q 906 474 906 600 q 870 281 906 369 q 772 125 835 192 q 624 21 708 58 q 440 -17 539 -17 m 483 54 q 639 100 572 54 q 744 227 706 146 q 782 415 782 308 q 742 625 782 535 q 631 767 701 715 q 465 818 560 818 q 314 772 379 818 q 212 645 249 726 q 175 457 175 564 q 214 248 175 339 q 323 106 253 157 q 483 54 393 54 m 638 1049 l 597 1118 q 648 1162 633 1144 q 663 1197 663 1179 q 650 1220 663 1213 q 618 1228 638 1228 q 583 1222 600 1228 q 556 1210 567 1217 q 546 1204 546 1204 l 532 1225 q 546 1238 532 1225 q 582 1267 560 1251 q 628 1290 604 1282 q 704 1271 676 1290 q 732 1217 732 1251 q 713 1168 732 1196 q 657 1114 693 1140 l 683 1069 l 638 1049 m 286 960 q 353 1012 319 985 q 416 1062 388 1039 q 461 1099 444 1085 q 478 1114 478 1114 l 497 1114 q 526 1090 497 1114 q 600 1030 556 1065 q 689 960 644 994 l 669 929 l 657 928 q 562 980 608 956 q 488 1018 515 1004 q 413 981 458 1004 q 318 928 368 957 l 306 929 l 286 960 z "},"Ỗ":{"ha":961,"x_min":56,"x_max":906,"o":"m 440 -17 q 240 38 326 -17 q 104 189 153 92 q 56 413 56 286 q 90 604 56 515 q 188 760 125 693 q 333 864 250 826 q 513 901 417 901 q 717 847 629 901 q 856 697 806 793 q 906 474 906 600 q 870 281 906 369 q 772 125 835 192 q 624 21 708 58 q 440 -17 539 -17 m 483 54 q 639 100 572 54 q 744 227 706 146 q 782 415 782 308 q 742 625 782 535 q 631 767 701 715 q 465 818 560 818 q 314 772 379 818 q 212 645 249 726 q 175 457 175 564 q 214 248 175 339 q 323 106 253 157 q 483 54 393 54 m 286 960 q 353 1012 319 985 q 416 1062 388 1039 q 461 1099 444 1085 q 478 1114 478 1114 l 497 1114 q 526 1090 497 1114 q 600 1030 556 1065 q 689 960 644 994 l 669 929 l 657 928 q 562 980 608 956 q 488 1018 515 1004 q 413 981 458 1004 q 318 928 368 957 l 306 929 l 286 960 m 315 1133 l 289 1158 l 289 1164 l 381 1258 l 400 1263 q 454 1253 419 1263 q 524 1233 489 1243 q 575 1222 558 1222 q 606 1236 589 1222 q 637 1263 624 1250 q 650 1276 650 1276 l 658 1276 l 685 1251 l 685 1246 l 593 1151 l 574 1147 q 519 1158 554 1147 q 451 1178 485 1168 q 399 1188 417 1188 q 367 1174 385 1188 q 336 1147 349 1161 q 324 1133 324 1133 l 315 1133 z "},"Ȍ":{"ha":961,"x_min":56,"x_max":906,"o":"m 440 -17 q 240 38 326 -17 q 104 189 153 92 q 56 413 56 286 q 90 604 56 515 q 188 760 125 693 q 333 864 250 826 q 513 901 417 901 q 717 847 629 901 q 856 697 806 793 q 906 474 906 600 q 870 281 906 369 q 772 125 835 192 q 624 21 708 58 q 440 -17 539 -17 m 483 54 q 639 100 572 54 q 744 227 706 146 q 782 415 782 308 q 742 625 782 535 q 631 767 701 715 q 465 818 560 818 q 314 772 379 818 q 212 645 249 726 q 175 457 175 564 q 214 248 175 339 q 323 106 253 157 q 483 54 393 54 m 639 950 q 528 1010 581 983 q 444 1054 476 1038 q 411 1071 411 1071 l 407 1083 l 438 1143 l 450 1149 q 482 1124 450 1149 q 563 1061 514 1099 q 663 986 613 1024 l 650 957 l 639 950 m 444 938 q 334 998 386 971 q 249 1042 282 1025 q 217 1058 217 1058 l 213 1071 l 243 1129 l 256 1136 q 288 1111 256 1136 q 369 1048 319 1086 q 468 972 418 1010 l 454 943 l 444 938 z "},"Ö":{"ha":961,"x_min":56,"x_max":906,"o":"m 440 -17 q 240 38 326 -17 q 104 189 153 92 q 56 413 56 286 q 90 604 56 515 q 188 760 125 693 q 333 864 250 826 q 513 901 417 901 q 717 847 629 901 q 856 697 806 793 q 906 474 906 600 q 870 281 906 369 q 772 125 835 192 q 624 21 708 58 q 440 -17 539 -17 m 483 54 q 639 100 572 54 q 744 227 706 146 q 782 415 782 308 q 742 625 782 535 q 631 767 701 715 q 465 818 560 818 q 314 772 379 818 q 212 645 249 726 q 175 457 175 564 q 214 248 175 339 q 323 106 253 157 q 483 54 393 54 m 583 993 q 541 1012 556 993 q 526 1053 526 1031 q 546 1101 526 1081 q 596 1122 565 1122 q 638 1104 624 1122 q 653 1063 653 1086 q 633 1014 653 1035 q 583 993 614 993 m 353 993 q 310 1012 325 993 q 296 1053 296 1031 q 315 1101 296 1081 q 365 1122 335 1122 q 408 1104 393 1122 q 422 1063 422 1086 q 403 1014 422 1035 q 353 993 383 993 z "},"Ȫ":{"ha":961,"x_min":56,"x_max":906,"o":"m 440 -17 q 240 38 326 -17 q 104 189 153 92 q 56 413 56 286 q 90 604 56 515 q 188 760 125 693 q 333 864 250 826 q 513 901 417 901 q 717 847 629 901 q 856 697 806 793 q 906 474 906 600 q 870 281 906 369 q 772 125 835 192 q 624 21 708 58 q 440 -17 539 -17 m 483 54 q 639 100 572 54 q 744 227 706 146 q 782 415 782 308 q 742 625 782 535 q 631 767 701 715 q 465 818 560 818 q 314 772 379 818 q 212 645 249 726 q 175 457 175 564 q 214 248 175 339 q 323 106 253 157 q 483 54 393 54 m 281 1151 l 272 1164 l 286 1226 q 308 1226 286 1226 q 363 1226 329 1226 q 433 1225 396 1225 q 500 1225 469 1225 q 576 1227 535 1225 q 649 1231 618 1229 q 679 1233 679 1233 l 688 1219 l 678 1154 l 481 1153 q 393 1153 440 1153 q 313 1152 346 1153 q 281 1151 281 1151 m 357 958 q 315 977 329 958 q 300 1018 300 996 q 319 1067 300 1046 q 369 1088 339 1088 q 412 1069 397 1088 q 426 1028 426 1051 q 407 979 426 1000 q 357 958 388 958 m 588 958 q 545 977 560 958 q 531 1018 531 996 q 550 1067 531 1046 q 600 1088 569 1088 q 642 1069 628 1088 q 657 1028 657 1051 q 638 979 657 1000 q 588 958 618 958 z "},"Ȱ":{"ha":961,"x_min":56,"x_max":906,"o":"m 440 -17 q 240 38 326 -17 q 104 189 153 92 q 56 413 56 286 q 90 604 56 515 q 188 760 125 693 q 333 864 250 826 q 513 901 417 901 q 717 847 629 901 q 856 697 806 793 q 906 474 906 600 q 870 281 906 369 q 772 125 835 192 q 624 21 708 58 q 440 -17 539 -17 m 483 54 q 639 100 572 54 q 744 227 706 146 q 782 415 782 308 q 742 625 782 535 q 631 767 701 715 q 465 818 560 818 q 314 772 379 818 q 212 645 249 726 q 175 457 175 564 q 214 248 175 339 q 323 106 253 157 q 483 54 393 54 m 474 965 q 426 986 442 965 q 410 1032 410 1007 q 431 1087 410 1064 q 486 1110 453 1110 q 535 1089 518 1110 q 551 1043 551 1068 q 529 988 551 1011 q 474 965 507 965 m 281 1147 l 272 1160 l 286 1222 q 308 1222 286 1222 q 363 1222 329 1222 q 433 1221 396 1221 q 500 1221 469 1221 q 576 1223 535 1221 q 649 1227 618 1225 q 679 1229 679 1229 l 688 1215 l 678 1150 l 481 1149 q 393 1149 440 1149 q 313 1148 346 1149 q 281 1147 281 1147 z "},"Ọ":{"ha":961,"x_min":56,"x_max":906,"o":"m 440 -17 q 240 38 326 -17 q 104 189 153 92 q 56 413 56 286 q 90 604 56 515 q 188 760 125 693 q 333 864 250 826 q 513 901 417 901 q 717 847 629 901 q 856 697 806 793 q 906 474 906 600 q 870 281 906 369 q 772 125 835 192 q 624 21 708 58 q 440 -17 539 -17 m 483 54 q 639 100 572 54 q 744 227 706 146 q 782 415 782 308 q 742 625 782 535 q 631 767 701 715 q 465 818 560 818 q 314 772 379 818 q 212 645 249 726 q 175 457 175 564 q 214 248 175 339 q 323 106 253 157 q 483 54 393 54 m 474 -267 q 415 -242 435 -267 q 396 -187 396 -218 q 419 -126 396 -151 q 482 -101 443 -101 q 541 -125 521 -101 q 561 -181 561 -149 q 538 -241 561 -215 q 474 -267 514 -267 z "},"Ò":{"ha":961,"x_min":56,"x_max":906,"o":"m 440 -17 q 240 38 326 -17 q 104 189 153 92 q 56 413 56 286 q 90 604 56 515 q 188 760 125 693 q 333 864 250 826 q 513 901 417 901 q 717 847 629 901 q 856 697 806 793 q 906 474 906 600 q 870 281 906 369 q 772 125 835 192 q 624 21 708 58 q 440 -17 539 -17 m 483 54 q 639 100 572 54 q 744 227 706 146 q 782 415 782 308 q 742 625 782 535 q 631 767 701 715 q 465 818 560 818 q 314 772 379 818 q 212 645 249 726 q 175 457 175 564 q 214 248 175 339 q 323 106 253 157 q 483 54 393 54 m 554 976 q 449 1016 500 997 q 356 1049 397 1035 q 292 1071 315 1063 q 268 1079 268 1079 l 263 1093 l 285 1160 l 297 1168 q 322 1154 297 1168 q 386 1118 346 1140 q 476 1069 426 1096 q 574 1017 525 1042 l 565 983 l 554 976 z "},"Ỏ":{"ha":961,"x_min":56,"x_max":906,"o":"m 440 -17 q 240 38 326 -17 q 104 189 153 92 q 56 413 56 286 q 90 604 56 515 q 188 760 125 693 q 333 864 250 826 q 513 901 417 901 q 717 847 629 901 q 856 697 806 793 q 906 474 906 600 q 870 281 906 369 q 772 125 835 192 q 624 21 708 58 q 440 -17 539 -17 m 483 54 q 639 100 572 54 q 744 227 706 146 q 782 415 782 308 q 742 625 782 535 q 631 767 701 715 q 465 818 560 818 q 314 772 379 818 q 212 645 249 726 q 175 457 175 564 q 214 248 175 339 q 323 106 253 157 q 483 54 393 54 m 478 971 l 433 1047 q 490 1096 474 1076 q 506 1135 506 1115 q 492 1159 506 1150 q 457 1168 479 1168 q 418 1162 436 1168 q 389 1149 400 1156 q 378 1142 378 1142 l 363 1165 q 378 1179 363 1165 q 417 1210 393 1193 q 468 1238 442 1228 q 551 1216 521 1238 q 582 1156 582 1194 q 560 1102 582 1133 q 500 1043 539 1071 l 529 994 l 478 971 z "},"Ơ":{"ha":976,"x_min":56,"x_max":961,"o":"m 440 -17 q 240 38 326 -17 q 104 189 153 92 q 56 413 56 286 q 90 604 56 515 q 188 760 125 693 q 333 864 250 826 q 513 901 417 901 q 616 890 576 901 q 687 866 656 878 q 754 854 718 854 q 824 872 796 854 q 851 922 851 890 q 807 1019 851 978 l 810 1039 q 851 1066 831 1057 q 890 1075 872 1075 q 942 1045 922 1075 q 961 967 961 1015 q 935 882 961 919 q 865 824 908 844 q 771 806 821 804 q 870 665 835 750 q 906 474 906 579 q 870 281 906 369 q 772 125 835 192 q 624 21 708 58 q 440 -17 539 -17 m 483 54 q 639 100 572 54 q 744 227 706 146 q 782 415 782 308 q 742 625 782 535 q 631 767 701 715 q 465 818 560 818 q 314 772 379 818 q 212 645 249 726 q 175 457 175 564 q 214 248 175 339 q 323 106 253 157 q 483 54 393 54 z "},"Ớ":{"ha":976,"x_min":56,"x_max":961,"o":"m 440 -17 q 240 38 326 -17 q 104 189 153 92 q 56 413 56 286 q 90 604 56 515 q 188 760 125 693 q 333 864 250 826 q 513 901 417 901 q 616 890 576 901 q 687 866 656 878 q 754 854 718 854 q 824 872 796 854 q 851 922 851 890 q 807 1019 851 978 l 810 1039 q 851 1066 831 1057 q 890 1075 872 1075 q 942 1045 922 1075 q 961 967 961 1015 q 935 882 961 919 q 865 824 908 844 q 771 806 821 804 q 870 665 835 750 q 906 474 906 579 q 870 281 906 369 q 772 125 835 192 q 624 21 708 58 q 440 -17 539 -17 m 483 54 q 639 100 572 54 q 744 227 706 146 q 782 415 782 308 q 742 625 782 535 q 631 767 701 715 q 465 818 560 818 q 314 772 379 818 q 212 645 249 726 q 175 457 175 564 q 214 248 175 339 q 323 106 253 157 q 483 54 393 54 m 406 976 l 394 983 l 386 1017 q 484 1069 435 1042 q 574 1118 533 1096 q 638 1154 614 1140 q 663 1168 663 1168 l 675 1160 l 697 1093 l 692 1079 q 668 1071 692 1079 q 603 1049 644 1063 q 511 1016 563 1035 q 406 976 460 997 z "},"Ợ":{"ha":976,"x_min":56,"x_max":961,"o":"m 440 -17 q 240 38 326 -17 q 104 189 153 92 q 56 413 56 286 q 90 604 56 515 q 188 760 125 693 q 333 864 250 826 q 513 901 417 901 q 616 890 576 901 q 687 866 656 878 q 754 854 718 854 q 824 872 796 854 q 851 922 851 890 q 807 1019 851 978 l 810 1039 q 851 1066 831 1057 q 890 1075 872 1075 q 942 1045 922 1075 q 961 967 961 1015 q 935 882 961 919 q 865 824 908 844 q 771 806 821 804 q 870 665 835 750 q 906 474 906 579 q 870 281 906 369 q 772 125 835 192 q 624 21 708 58 q 440 -17 539 -17 m 483 54 q 639 100 572 54 q 744 227 706 146 q 782 415 782 308 q 742 625 782 535 q 631 767 701 715 q 465 818 560 818 q 314 772 379 818 q 212 645 249 726 q 175 457 175 564 q 214 248 175 339 q 323 106 253 157 q 483 54 393 54 m 474 -267 q 415 -242 435 -267 q 396 -187 396 -218 q 419 -126 396 -151 q 482 -101 443 -101 q 541 -125 521 -101 q 561 -181 561 -149 q 538 -241 561 -215 q 474 -267 514 -267 z "},"Ờ":{"ha":976,"x_min":56,"x_max":961,"o":"m 440 -17 q 240 38 326 -17 q 104 189 153 92 q 56 413 56 286 q 90 604 56 515 q 188 760 125 693 q 333 864 250 826 q 513 901 417 901 q 616 890 576 901 q 687 866 656 878 q 754 854 718 854 q 824 872 796 854 q 851 922 851 890 q 807 1019 851 978 l 810 1039 q 851 1066 831 1057 q 890 1075 872 1075 q 942 1045 922 1075 q 961 967 961 1015 q 935 882 961 919 q 865 824 908 844 q 771 806 821 804 q 870 665 835 750 q 906 474 906 579 q 870 281 906 369 q 772 125 835 192 q 624 21 708 58 q 440 -17 539 -17 m 483 54 q 639 100 572 54 q 744 227 706 146 q 782 415 782 308 q 742 625 782 535 q 631 767 701 715 q 465 818 560 818 q 314 772 379 818 q 212 645 249 726 q 175 457 175 564 q 214 248 175 339 q 323 106 253 157 q 483 54 393 54 m 554 976 q 449 1016 500 997 q 356 1049 397 1035 q 292 1071 315 1063 q 268 1079 268 1079 l 263 1093 l 285 1160 l 297 1168 q 322 1154 297 1168 q 386 1118 346 1140 q 476 1069 426 1096 q 574 1017 525 1042 l 565 983 l 554 976 z "},"Ở":{"ha":976,"x_min":56,"x_max":961,"o":"m 440 -17 q 240 38 326 -17 q 104 189 153 92 q 56 413 56 286 q 90 604 56 515 q 188 760 125 693 q 333 864 250 826 q 513 901 417 901 q 616 890 576 901 q 687 866 656 878 q 754 854 718 854 q 824 872 796 854 q 851 922 851 890 q 807 1019 851 978 l 810 1039 q 851 1066 831 1057 q 890 1075 872 1075 q 942 1045 922 1075 q 961 967 961 1015 q 935 882 961 919 q 865 824 908 844 q 771 806 821 804 q 870 665 835 750 q 906 474 906 579 q 870 281 906 369 q 772 125 835 192 q 624 21 708 58 q 440 -17 539 -17 m 483 54 q 639 100 572 54 q 744 227 706 146 q 782 415 782 308 q 742 625 782 535 q 631 767 701 715 q 465 818 560 818 q 314 772 379 818 q 212 645 249 726 q 175 457 175 564 q 214 248 175 339 q 323 106 253 157 q 483 54 393 54 m 456 978 l 411 1054 q 467 1103 451 1083 q 483 1142 483 1122 q 470 1166 483 1157 q 435 1175 457 1175 q 396 1169 414 1175 q 367 1156 378 1163 q 356 1149 356 1149 l 340 1172 q 356 1186 340 1172 q 395 1217 371 1200 q 446 1244 419 1235 q 529 1223 499 1244 q 560 1163 560 1201 q 538 1109 560 1140 q 478 1050 517 1078 l 507 1001 l 456 978 z "},"Ỡ":{"ha":976,"x_min":56,"x_max":961,"o":"m 440 -17 q 240 38 326 -17 q 104 189 153 92 q 56 413 56 286 q 90 604 56 515 q 188 760 125 693 q 333 864 250 826 q 513 901 417 901 q 616 890 576 901 q 687 866 656 878 q 754 854 718 854 q 824 872 796 854 q 851 922 851 890 q 807 1019 851 978 l 810 1039 q 851 1066 831 1057 q 890 1075 872 1075 q 942 1045 922 1075 q 961 967 961 1015 q 935 882 961 919 q 865 824 908 844 q 771 806 821 804 q 870 665 835 750 q 906 474 906 579 q 870 281 906 369 q 772 125 835 192 q 624 21 708 58 q 440 -17 539 -17 m 483 54 q 639 100 572 54 q 744 227 706 146 q 782 415 782 308 q 742 625 782 535 q 631 767 701 715 q 465 818 560 818 q 314 772 379 818 q 212 645 249 726 q 175 457 175 564 q 214 248 175 339 q 323 106 253 157 q 483 54 393 54 m 276 971 l 246 1000 l 246 1007 l 351 1117 l 374 1122 q 419 1115 390 1122 q 478 1099 447 1108 q 535 1083 508 1090 q 576 1076 563 1076 q 603 1086 589 1076 q 632 1108 618 1096 q 655 1129 646 1119 q 664 1139 664 1139 l 672 1139 l 703 1110 l 703 1103 l 597 993 l 575 988 q 530 994 558 988 q 471 1010 501 1001 q 414 1026 440 1019 q 372 1033 388 1033 q 344 1024 360 1033 q 316 1002 329 1014 q 294 981 303 990 q 285 971 285 971 l 276 971 z "},"Ő":{"ha":961,"x_min":56,"x_max":906,"o":"m 440 -17 q 240 38 326 -17 q 104 189 153 92 q 56 413 56 286 q 90 604 56 515 q 188 760 125 693 q 333 864 250 826 q 513 901 417 901 q 717 847 629 901 q 856 697 806 793 q 906 474 906 600 q 870 281 906 369 q 772 125 835 192 q 624 21 708 58 q 440 -17 539 -17 m 483 54 q 639 100 572 54 q 744 227 706 146 q 782 415 782 308 q 742 625 782 535 q 631 767 701 715 q 465 818 560 818 q 314 772 379 818 q 212 645 249 726 q 175 457 175 564 q 214 248 175 339 q 323 106 253 157 q 483 54 393 54 m 531 938 l 521 943 l 507 972 q 606 1048 557 1010 q 687 1111 654 1086 q 719 1136 719 1136 l 732 1129 l 763 1071 l 758 1058 q 726 1042 758 1058 q 641 998 693 1025 q 531 938 589 971 m 336 950 l 325 957 l 313 986 q 411 1061 363 1024 q 492 1124 460 1099 q 525 1149 525 1149 l 538 1143 l 568 1083 l 564 1071 q 531 1054 564 1071 q 447 1010 499 1038 q 336 950 394 983 z "},"Ȏ":{"ha":961,"x_min":56,"x_max":906,"o":"m 440 -17 q 240 38 326 -17 q 104 189 153 92 q 56 413 56 286 q 90 604 56 515 q 188 760 125 693 q 333 864 250 826 q 513 901 417 901 q 717 847 629 901 q 856 697 806 793 q 906 474 906 600 q 870 281 906 369 q 772 125 835 192 q 624 21 708 58 q 440 -17 539 -17 m 483 54 q 639 100 572 54 q 744 227 706 146 q 782 415 782 308 q 742 625 782 535 q 631 767 701 715 q 465 818 560 818 q 314 772 379 818 q 212 645 249 726 q 175 457 175 564 q 214 248 175 339 q 323 106 253 157 q 483 54 393 54 m 481 1096 q 401 1073 438 1096 q 347 1004 365 1050 l 336 1004 l 314 1018 q 344 1094 324 1058 q 399 1153 365 1131 q 481 1176 433 1176 q 563 1153 529 1176 q 617 1094 596 1131 q 647 1018 638 1058 l 625 1004 l 614 1004 q 560 1073 596 1050 q 481 1096 525 1096 z "},"Ō":{"ha":961,"x_min":56,"x_max":906,"o":"m 440 -17 q 240 38 326 -17 q 104 189 153 92 q 56 413 56 286 q 90 604 56 515 q 188 760 125 693 q 333 864 250 826 q 513 901 417 901 q 717 847 629 901 q 856 697 806 793 q 906 474 906 600 q 870 281 906 369 q 772 125 835 192 q 624 21 708 58 q 440 -17 539 -17 m 483 54 q 639 100 572 54 q 744 227 706 146 q 782 415 782 308 q 742 625 782 535 q 631 767 701 715 q 465 818 560 818 q 314 772 379 818 q 212 645 249 726 q 175 457 175 564 q 214 248 175 339 q 323 106 253 157 q 483 54 393 54 m 275 999 l 267 1011 l 281 1074 q 302 1074 281 1074 q 357 1073 324 1074 q 427 1072 390 1072 q 494 1072 464 1072 q 571 1074 529 1072 q 643 1078 613 1076 q 674 1081 674 1081 l 682 1067 l 672 1001 l 475 1000 q 388 1000 435 1000 q 308 999 340 1000 q 275 999 275 999 z "},"Ṓ":{"ha":961,"x_min":56,"x_max":906,"o":"m 440 -17 q 240 38 326 -17 q 104 189 153 92 q 56 413 56 286 q 90 604 56 515 q 188 760 125 693 q 333 864 250 826 q 513 901 417 901 q 717 847 629 901 q 856 697 806 793 q 906 474 906 600 q 870 281 906 369 q 772 125 835 192 q 624 21 708 58 q 440 -17 539 -17 m 483 54 q 639 100 572 54 q 744 227 706 146 q 782 415 782 308 q 742 625 782 535 q 631 767 701 715 q 465 818 560 818 q 314 772 379 818 q 212 645 249 726 q 175 457 175 564 q 214 248 175 339 q 323 106 253 157 q 483 54 393 54 m 281 992 l 272 1004 l 286 1067 q 308 1067 286 1067 q 363 1066 329 1067 q 433 1065 396 1065 q 500 1065 469 1065 q 576 1067 535 1065 q 649 1072 618 1069 q 679 1074 679 1074 l 688 1060 l 678 994 l 481 993 q 393 993 440 993 q 313 992 346 993 q 281 992 281 992 m 340 1124 l 329 1131 l 321 1164 q 419 1216 369 1189 q 508 1265 468 1243 q 573 1301 549 1288 q 597 1315 597 1315 l 610 1307 l 632 1240 l 626 1226 q 603 1218 626 1226 q 538 1196 579 1210 q 446 1163 497 1182 q 340 1124 394 1144 z "},"Ṑ":{"ha":961,"x_min":56,"x_max":906,"o":"m 440 -17 q 240 38 326 -17 q 104 189 153 92 q 56 413 56 286 q 90 604 56 515 q 188 760 125 693 q 333 864 250 826 q 513 901 417 901 q 717 847 629 901 q 856 697 806 793 q 906 474 906 600 q 870 281 906 369 q 772 125 835 192 q 624 21 708 58 q 440 -17 539 -17 m 483 54 q 639 100 572 54 q 744 227 706 146 q 782 415 782 308 q 742 625 782 535 q 631 767 701 715 q 465 818 560 818 q 314 772 379 818 q 212 645 249 726 q 175 457 175 564 q 214 248 175 339 q 323 106 253 157 q 483 54 393 54 m 281 992 l 272 1004 l 286 1067 q 308 1067 286 1067 q 363 1066 329 1067 q 433 1065 396 1065 q 500 1065 469 1065 q 576 1067 535 1065 q 649 1072 618 1069 q 679 1074 679 1074 l 688 1060 l 678 994 l 481 993 q 393 993 440 993 q 313 992 346 993 q 281 992 281 992 m 628 1124 q 522 1163 574 1144 q 430 1196 471 1182 q 365 1218 389 1210 q 342 1226 342 1226 l 336 1240 l 358 1307 l 371 1315 q 395 1301 371 1315 q 460 1265 419 1288 q 549 1216 500 1243 q 647 1164 599 1189 l 639 1131 l 628 1124 z "},"Ǫ":{"ha":961,"x_min":56,"x_max":906,"o":"m 440 -17 q 240 38 326 -17 q 104 189 153 92 q 56 413 56 286 q 90 604 56 515 q 188 760 125 693 q 333 864 250 826 q 513 901 417 901 q 717 847 629 901 q 856 697 806 793 q 906 474 906 600 q 870 281 906 369 q 772 125 835 192 q 624 21 708 58 q 440 -17 539 -17 m 483 54 q 639 100 572 54 q 744 227 706 146 q 782 415 782 308 q 742 625 782 535 q 631 767 701 715 q 465 818 560 818 q 314 772 379 818 q 212 645 249 726 q 175 457 175 564 q 214 248 175 339 q 323 106 253 157 q 483 54 393 54 m 539 -335 q 428 -299 471 -335 q 385 -208 385 -264 q 392 -161 385 -183 q 419 -111 399 -139 q 476 -43 439 -83 q 575 58 514 -3 l 633 58 q 533 -51 568 -10 q 485 -119 497 -92 q 472 -174 472 -146 q 494 -231 472 -210 q 553 -253 515 -253 q 607 -244 576 -253 q 660 -221 638 -235 l 678 -247 q 610 -299 650 -274 q 539 -335 571 -324 z "},"Ø":{"ha":961,"x_min":56,"x_max":906,"o":"m 303 78 l 258 97 l 633 814 l 679 794 l 303 78 m 189 -136 l 151 -128 l 149 -114 l 258 97 l 303 78 l 189 -136 m 679 794 l 633 814 l 722 983 l 763 974 l 767 957 l 679 794 m 440 -17 q 240 38 326 -17 q 104 189 153 92 q 56 413 56 286 q 90 604 56 515 q 188 760 125 693 q 333 864 250 826 q 513 901 417 901 q 717 847 629 901 q 856 697 806 793 q 906 474 906 600 q 870 281 906 369 q 772 125 835 192 q 624 21 708 58 q 440 -17 539 -17 m 483 54 q 639 100 572 54 q 744 227 706 146 q 782 415 782 308 q 742 625 782 535 q 631 767 701 715 q 465 818 560 818 q 314 772 379 818 q 212 645 249 726 q 175 457 175 564 q 214 248 175 339 q 323 106 253 157 q 483 54 393 54 z "},"Ǿ":{"ha":961,"x_min":56,"x_max":906,"o":"m 303 78 l 258 97 l 633 814 l 679 794 l 303 78 m 189 -136 l 151 -128 l 149 -114 l 258 97 l 303 78 l 189 -136 m 679 794 l 633 814 l 722 983 l 763 974 l 767 957 l 679 794 m 440 -17 q 240 38 326 -17 q 104 189 153 92 q 56 413 56 286 q 90 604 56 515 q 188 760 125 693 q 333 864 250 826 q 513 901 417 901 q 717 847 629 901 q 856 697 806 793 q 906 474 906 600 q 870 281 906 369 q 772 125 835 192 q 624 21 708 58 q 440 -17 539 -17 m 483 54 q 639 100 572 54 q 744 227 706 146 q 782 415 782 308 q 742 625 782 535 q 631 767 701 715 q 465 818 560 818 q 314 772 379 818 q 212 645 249 726 q 175 457 175 564 q 214 248 175 339 q 323 106 253 157 q 483 54 393 54 m 375 975 l 364 982 l 356 1015 q 453 1067 404 1040 q 543 1117 503 1094 q 608 1153 583 1139 q 632 1167 632 1167 l 644 1158 l 667 1092 l 661 1078 q 638 1069 661 1078 q 573 1047 614 1061 q 481 1015 532 1033 q 375 975 429 996 z "},"Õ":{"ha":961,"x_min":56,"x_max":906,"o":"m 440 -17 q 240 38 326 -17 q 104 189 153 92 q 56 413 56 286 q 90 604 56 515 q 188 760 125 693 q 333 864 250 826 q 513 901 417 901 q 717 847 629 901 q 856 697 806 793 q 906 474 906 600 q 870 281 906 369 q 772 125 835 192 q 624 21 708 58 q 440 -17 539 -17 m 483 54 q 639 100 572 54 q 744 227 706 146 q 782 415 782 308 q 742 625 782 535 q 631 767 701 715 q 465 818 560 818 q 314 772 379 818 q 212 645 249 726 q 175 457 175 564 q 214 248 175 339 q 323 106 253 157 q 483 54 393 54 m 279 971 l 249 1000 l 249 1007 l 354 1117 l 376 1122 q 422 1115 393 1122 q 481 1099 450 1108 q 538 1083 511 1090 q 579 1076 565 1076 q 606 1086 592 1076 q 635 1108 621 1096 q 658 1129 649 1119 q 667 1139 667 1139 l 675 1139 l 706 1110 l 706 1103 l 600 993 l 578 988 q 533 994 561 988 q 474 1010 504 1001 q 417 1026 443 1019 q 375 1033 390 1033 q 347 1024 363 1033 q 319 1002 332 1014 q 297 981 306 990 q 288 971 288 971 l 279 971 z "},"Ṍ":{"ha":961,"x_min":56,"x_max":906,"o":"m 440 -17 q 240 38 326 -17 q 104 189 153 92 q 56 413 56 286 q 90 604 56 515 q 188 760 125 693 q 333 864 250 826 q 513 901 417 901 q 717 847 629 901 q 856 697 806 793 q 906 474 906 600 q 870 281 906 369 q 772 125 835 192 q 624 21 708 58 q 440 -17 539 -17 m 483 54 q 639 100 572 54 q 744 227 706 146 q 782 415 782 308 q 742 625 782 535 q 631 767 701 715 q 465 818 560 818 q 314 772 379 818 q 212 645 249 726 q 175 457 175 564 q 214 248 175 339 q 323 106 253 157 q 483 54 393 54 m 282 954 l 251 983 l 251 990 l 357 1114 l 379 1119 q 443 1108 403 1119 q 523 1085 483 1097 q 582 1074 563 1074 q 619 1093 599 1074 q 654 1131 639 1113 q 669 1150 669 1150 l 678 1150 l 708 1121 l 708 1114 l 603 990 l 581 985 q 517 997 558 985 q 437 1019 476 1008 q 378 1031 397 1031 q 341 1012 361 1031 q 306 974 321 993 q 290 954 290 954 l 282 954 m 343 1158 l 332 1165 l 325 1199 q 426 1246 375 1222 q 517 1290 476 1269 q 584 1324 558 1311 q 610 1336 610 1336 l 621 1326 l 640 1260 l 633 1246 q 609 1239 633 1246 q 544 1220 585 1232 q 451 1192 503 1208 q 343 1158 399 1176 z "},"Ṏ":{"ha":961,"x_min":56,"x_max":906,"o":"m 440 -17 q 240 38 326 -17 q 104 189 153 92 q 56 413 56 286 q 90 604 56 515 q 188 760 125 693 q 333 864 250 826 q 513 901 417 901 q 717 847 629 901 q 856 697 806 793 q 906 474 906 600 q 870 281 906 369 q 772 125 835 192 q 624 21 708 58 q 440 -17 539 -17 m 483 54 q 639 100 572 54 q 744 227 706 146 q 782 415 782 308 q 742 625 782 535 q 631 767 701 715 q 465 818 560 818 q 314 772 379 818 q 212 645 249 726 q 175 457 175 564 q 214 248 175 339 q 323 106 253 157 q 483 54 393 54 m 282 954 l 251 983 l 251 990 l 357 1114 l 379 1119 q 443 1108 403 1119 q 523 1085 483 1097 q 582 1074 563 1074 q 619 1093 599 1074 q 654 1131 639 1113 q 669 1150 669 1150 l 678 1150 l 708 1121 l 708 1114 l 603 990 l 581 985 q 517 997 558 985 q 437 1019 476 1008 q 378 1031 397 1031 q 341 1012 361 1031 q 306 974 321 993 q 290 954 290 954 l 282 954 m 589 1169 q 547 1188 561 1169 q 532 1229 532 1207 q 551 1278 532 1257 q 601 1299 571 1299 q 644 1281 629 1299 q 658 1239 658 1263 q 639 1190 658 1211 q 589 1169 619 1169 m 358 1169 q 316 1188 331 1169 q 301 1229 301 1207 q 321 1278 301 1257 q 371 1299 340 1299 q 413 1281 399 1299 q 428 1239 428 1263 q 408 1190 428 1211 q 358 1169 389 1169 m 589 1169 q 547 1188 561 1169 q 532 1229 532 1207 q 551 1278 532 1257 q 601 1299 571 1299 q 644 1281 629 1299 q 658 1239 658 1263 q 639 1190 658 1211 q 589 1169 619 1169 m 358 1169 q 316 1188 331 1169 q 301 1229 301 1207 q 321 1278 301 1257 q 371 1299 340 1299 q 413 1281 399 1299 q 428 1239 428 1263 q 408 1190 428 1211 q 358 1169 389 1169 z "},"Ȭ":{"ha":961,"x_min":56,"x_max":906,"o":"m 440 -17 q 240 38 326 -17 q 104 189 153 92 q 56 413 56 286 q 90 604 56 515 q 188 760 125 693 q 333 864 250 826 q 513 901 417 901 q 717 847 629 901 q 856 697 806 793 q 906 474 906 600 q 870 281 906 369 q 772 125 835 192 q 624 21 708 58 q 440 -17 539 -17 m 483 54 q 639 100 572 54 q 744 227 706 146 q 782 415 782 308 q 742 625 782 535 q 631 767 701 715 q 465 818 560 818 q 314 772 379 818 q 212 645 249 726 q 175 457 175 564 q 214 248 175 339 q 323 106 253 157 q 483 54 393 54 m 282 919 l 251 949 l 251 956 l 357 1079 l 379 1085 q 424 1078 396 1085 q 483 1062 453 1071 q 541 1046 514 1053 q 582 1039 568 1039 q 609 1051 594 1039 q 638 1077 624 1063 q 660 1103 651 1092 q 669 1115 669 1115 l 678 1115 l 708 1086 l 708 1079 l 603 956 l 581 950 q 535 957 564 950 q 476 973 507 964 q 419 989 446 982 q 378 996 393 996 q 350 984 365 996 q 322 958 335 972 q 299 931 308 943 q 290 919 290 919 l 282 919 m 281 1174 l 272 1186 l 286 1249 q 308 1249 286 1249 q 363 1248 329 1249 q 433 1247 396 1247 q 500 1247 469 1247 q 576 1249 535 1247 q 649 1253 618 1251 q 679 1256 679 1256 l 688 1242 l 678 1176 l 481 1175 q 393 1175 440 1175 q 313 1174 346 1175 q 281 1174 281 1174 z "},"Œ":{"ha":1338,"x_min":57,"x_max":1253,"o":"m 432 -17 q 238 38 322 -17 q 105 190 153 93 q 57 413 57 286 q 91 604 57 515 q 186 760 125 693 q 328 864 247 826 q 504 901 410 901 q 649 892 575 901 q 808 882 724 882 q 983 884 907 882 q 1120 890 1060 886 q 1231 901 1181 894 l 1235 893 q 1228 862 1235 893 q 1215 778 1222 831 q 1203 663 1207 726 l 1136 657 q 1138 680 1136 657 q 1139 717 1139 703 q 1126 783 1139 763 q 1069 810 1114 804 q 925 815 1024 815 q 860 813 881 815 q 835 799 840 810 q 828 761 829 788 l 817 492 l 961 490 q 1008 492 981 490 q 1065 498 1036 494 q 1112 503 1093 501 q 1131 506 1131 506 l 1136 499 l 1117 417 q 1084 418 1117 417 q 1006 420 1051 419 q 922 421 960 421 l 814 411 l 810 146 q 817 91 810 108 q 847 68 824 74 q 919 63 869 63 q 1051 68 1001 63 q 1128 90 1101 74 q 1167 141 1154 107 q 1188 232 1179 175 l 1249 239 l 1253 232 q 1246 198 1253 232 q 1231 111 1239 164 q 1215 -1 1222 58 l 1208 -10 q 1178 -8 1208 -10 q 1098 -6 1147 -7 q 991 -3 1049 -4 q 879 0 933 -1 q 785 1 825 1 q 592 -8 678 1 q 432 -17 506 -17 m 475 56 q 665 108 610 56 q 722 289 721 161 l 724 649 q 702 755 724 718 q 626 806 681 792 q 471 821 571 821 q 318 775 385 821 q 214 647 251 729 q 176 458 176 565 q 214 248 176 339 q 319 106 251 157 q 475 56 386 56 z "},"P":{"ha":765,"x_min":88,"x_max":733,"o":"m 88 -11 l 97 53 q 178 85 158 64 q 197 167 197 107 l 199 750 q 188 810 199 794 q 147 825 178 825 q 117 824 135 825 q 100 822 100 822 l 97 828 l 107 889 q 135 888 107 889 q 199 885 163 886 q 261 885 235 885 q 303 885 275 885 q 363 888 332 886 q 415 890 393 889 q 436 890 436 890 q 563 874 508 890 q 656 826 618 858 q 714 749 694 794 q 733 643 733 703 q 707 529 733 583 q 636 432 681 475 q 535 364 592 389 q 415 339 478 339 l 299 339 l 296 203 q 300 110 296 140 q 317 70 304 79 q 357 61 331 61 q 405 63 378 61 q 432 65 432 65 l 435 60 l 422 -4 q 409 -3 422 -4 q 376 -2 396 -3 q 334 -1 356 -1 q 294 0 313 0 q 231 -1 267 0 q 164 -4 196 -3 q 110 -8 132 -6 q 88 -11 89 -10 m 449 400 q 617 617 617 428 q 554 773 617 724 q 356 822 492 822 q 325 820 331 822 q 318 803 319 818 q 308 610 313 710 q 301 421 304 511 l 449 400 z "},"Þ":{"ha":754,"x_min":78,"x_max":724,"o":"m 78 -17 l 86 47 q 174 84 151 60 q 197 167 197 108 l 199 750 q 189 810 199 794 q 147 825 179 825 q 110 824 132 825 q 89 822 89 822 l 86 828 l 96 889 q 125 888 96 889 q 194 885 154 886 q 261 885 233 885 q 313 887 285 885 q 365 891 340 889 q 405 895 389 893 q 421 897 421 897 l 415 835 q 338 812 357 828 q 315 756 318 796 q 313 722 314 733 q 313 699 311 710 l 426 699 q 647 640 571 699 q 724 472 724 582 q 678 340 724 401 q 557 242 632 279 q 394 206 482 206 l 296 206 l 296 156 q 308 81 296 100 q 357 61 321 61 q 406 63 382 61 q 431 65 431 65 l 433 60 l 421 -4 q 402 -3 421 -4 q 354 -2 383 -3 q 294 -1 325 -1 q 239 0 264 0 q 184 -3 213 0 q 131 -8 156 -6 q 92 -14 107 -11 q 78 -17 78 -17 m 439 267 q 607 446 607 288 q 544 586 607 542 q 346 631 482 631 q 317 628 322 631 q 308 619 311 626 q 303 479 306 540 q 299 372 300 418 q 297 290 299 326 q 365 275 322 282 q 439 267 408 268 z "},"Q":{"ha":968,"x_min":56,"x_max":1117,"o":"m 985 -300 q 890 -289 935 -300 q 787 -248 844 -278 q 647 -162 729 -218 q 440 -17 564 -107 q 240 38 326 -17 q 104 189 153 92 q 56 413 56 286 q 90 604 56 515 q 188 760 125 693 q 333 864 250 826 q 513 901 417 901 q 717 847 629 901 q 856 697 806 793 q 906 474 906 600 q 862 261 906 358 q 742 96 818 164 q 565 0 665 28 l 565 -7 q 739 -114 664 -74 q 875 -172 814 -154 q 992 -190 936 -190 q 1072 -183 1040 -190 q 1103 -176 1103 -176 l 1108 -181 l 1117 -206 q 1106 -215 1117 -206 q 1078 -239 1094 -225 q 1043 -267 1061 -253 q 1009 -290 1025 -281 q 985 -300 993 -300 m 483 54 q 639 100 572 54 q 744 227 706 146 q 782 415 782 308 q 742 625 782 535 q 631 767 701 715 q 465 818 560 818 q 314 772 379 818 q 212 645 249 726 q 175 457 175 564 q 214 248 175 339 q 323 106 253 157 q 483 54 393 54 z "},"R":{"ha":849,"x_min":79,"x_max":838,"o":"m 711 -22 q 637 14 676 -22 q 564 110 597 50 l 415 379 l 300 379 l 296 172 q 302 98 296 122 q 330 66 308 74 q 396 58 351 58 l 399 53 l 386 -6 q 372 -5 386 -6 q 337 -3 358 -4 q 290 -2 315 -3 q 239 -1 264 -1 q 167 -1 204 0 q 105 -4 131 -3 q 79 -6 79 -6 l 92 57 q 177 85 157 64 q 197 167 197 107 l 199 750 q 188 810 199 794 q 147 825 178 825 q 117 824 135 825 q 100 822 100 822 l 97 828 l 107 889 q 123 888 107 889 q 164 887 139 888 q 215 885 189 886 q 261 885 242 885 q 308 885 279 885 q 365 888 336 886 q 413 890 393 889 q 432 890 432 890 q 636 832 561 890 q 711 672 711 774 q 658 519 711 589 q 507 406 604 450 l 660 164 q 738 72 700 99 q 832 46 776 46 l 838 40 l 829 -7 l 711 -22 m 446 443 q 469 452 446 443 q 521 483 492 461 q 573 546 550 506 q 596 647 596 586 q 533 785 596 739 q 342 831 469 831 q 323 824 328 831 q 317 799 318 818 q 308 610 311 689 q 303 457 304 531 l 446 443 z "},"Ŕ":{"ha":849,"x_min":79,"x_max":838,"o":"m 711 -22 q 637 14 676 -22 q 564 110 597 50 l 415 379 l 300 379 l 296 172 q 302 98 296 122 q 330 66 308 74 q 396 58 351 58 l 399 53 l 386 -6 q 372 -5 386 -6 q 337 -3 358 -4 q 290 -2 315 -3 q 239 -1 264 -1 q 167 -1 204 0 q 105 -4 131 -3 q 79 -6 79 -6 l 92 57 q 177 85 157 64 q 197 167 197 107 l 199 750 q 188 810 199 794 q 147 825 178 825 q 117 824 135 825 q 100 822 100 822 l 97 828 l 107 889 q 123 888 107 889 q 164 887 139 888 q 215 885 189 886 q 261 885 242 885 q 308 885 279 885 q 365 888 336 886 q 413 890 393 889 q 432 890 432 890 q 636 832 561 890 q 711 672 711 774 q 658 519 711 589 q 507 406 604 450 l 660 164 q 738 72 700 99 q 832 46 776 46 l 838 40 l 829 -7 l 711 -22 m 446 443 q 469 452 446 443 q 521 483 492 461 q 573 546 550 506 q 596 647 596 586 q 533 785 596 739 q 342 831 469 831 q 323 824 328 831 q 317 799 318 818 q 308 610 311 689 q 303 457 304 531 l 446 443 m 303 976 l 292 983 l 283 1017 q 381 1069 332 1042 q 471 1118 431 1096 q 535 1154 511 1140 q 560 1168 560 1168 l 572 1160 l 594 1093 l 589 1079 q 565 1071 589 1079 q 501 1049 542 1063 q 408 1016 460 1035 q 303 976 357 997 z "},"Ř":{"ha":849,"x_min":79,"x_max":838,"o":"m 711 -22 q 637 14 676 -22 q 564 110 597 50 l 415 379 l 300 379 l 296 172 q 302 98 296 122 q 330 66 308 74 q 396 58 351 58 l 399 53 l 386 -6 q 372 -5 386 -6 q 337 -3 358 -4 q 290 -2 315 -3 q 239 -1 264 -1 q 167 -1 204 0 q 105 -4 131 -3 q 79 -6 79 -6 l 92 57 q 177 85 157 64 q 197 167 197 107 l 199 750 q 188 810 199 794 q 147 825 178 825 q 117 824 135 825 q 100 822 100 822 l 97 828 l 107 889 q 123 888 107 889 q 164 887 139 888 q 215 885 189 886 q 261 885 242 885 q 308 885 279 885 q 365 888 336 886 q 413 890 393 889 q 432 890 432 890 q 636 832 561 890 q 711 672 711 774 q 658 519 711 589 q 507 406 604 450 l 660 164 q 738 72 700 99 q 832 46 776 46 l 838 40 l 829 -7 l 711 -22 m 446 443 q 469 452 446 443 q 521 483 492 461 q 573 546 550 506 q 596 647 596 586 q 533 785 596 739 q 342 831 469 831 q 323 824 328 831 q 317 799 318 818 q 308 610 311 689 q 303 457 304 531 l 446 443 m 401 978 q 385 992 401 978 q 340 1030 368 1007 q 277 1080 311 1053 q 210 1132 243 1107 l 229 1163 l 242 1164 q 337 1112 290 1136 q 411 1074 383 1088 q 485 1111 440 1088 q 581 1164 531 1135 l 593 1163 l 613 1132 q 545 1080 579 1107 q 483 1030 511 1053 q 438 992 454 1007 q 421 978 421 978 l 401 978 z "},"Ŗ":{"ha":849,"x_min":79,"x_max":838,"o":"m 711 -22 q 637 14 676 -22 q 564 110 597 50 l 415 379 l 300 379 l 296 172 q 302 98 296 122 q 330 66 308 74 q 396 58 351 58 l 399 53 l 386 -6 q 372 -5 386 -6 q 337 -3 358 -4 q 290 -2 315 -3 q 239 -1 264 -1 q 167 -1 204 0 q 105 -4 131 -3 q 79 -6 79 -6 l 92 57 q 177 85 157 64 q 197 167 197 107 l 199 750 q 188 810 199 794 q 147 825 178 825 q 117 824 135 825 q 100 822 100 822 l 97 828 l 107 889 q 123 888 107 889 q 164 887 139 888 q 215 885 189 886 q 261 885 242 885 q 308 885 279 885 q 365 888 336 886 q 413 890 393 889 q 432 890 432 890 q 636 832 561 890 q 711 672 711 774 q 658 519 711 589 q 507 406 604 450 l 660 164 q 738 72 700 99 q 832 46 776 46 l 838 40 l 829 -7 l 711 -22 m 446 443 q 469 452 446 443 q 521 483 492 461 q 573 546 550 506 q 596 647 596 586 q 533 785 596 739 q 342 831 469 831 q 323 824 328 831 q 317 799 318 818 q 308 610 311 689 q 303 457 304 531 l 446 443 m 349 -407 l 324 -386 l 324 -372 q 394 -308 365 -346 q 424 -235 424 -269 q 408 -185 424 -207 q 368 -149 392 -162 l 371 -129 q 407 -106 385 -118 q 451 -93 429 -93 q 505 -119 483 -93 q 526 -192 526 -146 q 498 -283 526 -242 q 428 -355 469 -324 q 349 -407 388 -386 z "},"Ȑ":{"ha":849,"x_min":79,"x_max":838,"o":"m 711 -22 q 637 14 676 -22 q 564 110 597 50 l 415 379 l 300 379 l 296 172 q 302 98 296 122 q 330 66 308 74 q 396 58 351 58 l 399 53 l 386 -6 q 372 -5 386 -6 q 337 -3 358 -4 q 290 -2 315 -3 q 239 -1 264 -1 q 167 -1 204 0 q 105 -4 131 -3 q 79 -6 79 -6 l 92 57 q 177 85 157 64 q 197 167 197 107 l 199 750 q 188 810 199 794 q 147 825 178 825 q 117 824 135 825 q 100 822 100 822 l 97 828 l 107 889 q 123 888 107 889 q 164 887 139 888 q 215 885 189 886 q 261 885 242 885 q 308 885 279 885 q 365 888 336 886 q 413 890 393 889 q 432 890 432 890 q 636 832 561 890 q 711 672 711 774 q 658 519 711 589 q 507 406 604 450 l 660 164 q 738 72 700 99 q 832 46 776 46 l 838 40 l 829 -7 l 711 -22 m 446 443 q 469 452 446 443 q 521 483 492 461 q 573 546 550 506 q 596 647 596 586 q 533 785 596 739 q 342 831 469 831 q 323 824 328 831 q 317 799 318 818 q 308 610 311 689 q 303 457 304 531 l 446 443 m 569 950 q 459 1010 511 983 q 374 1054 407 1038 q 342 1071 342 1071 l 338 1083 l 368 1143 l 381 1149 q 413 1124 381 1149 q 494 1061 444 1099 q 593 986 543 1024 l 581 957 l 569 950 m 375 938 q 265 998 317 971 q 180 1042 213 1025 q 147 1058 147 1058 l 143 1071 l 174 1129 l 186 1136 q 218 1111 186 1136 q 299 1048 250 1086 q 399 972 349 1010 l 385 943 l 375 938 z "},"Ṛ":{"ha":849,"x_min":79,"x_max":838,"o":"m 711 -22 q 637 14 676 -22 q 564 110 597 50 l 415 379 l 300 379 l 296 172 q 302 98 296 122 q 330 66 308 74 q 396 58 351 58 l 399 53 l 386 -6 q 372 -5 386 -6 q 337 -3 358 -4 q 290 -2 315 -3 q 239 -1 264 -1 q 167 -1 204 0 q 105 -4 131 -3 q 79 -6 79 -6 l 92 57 q 177 85 157 64 q 197 167 197 107 l 199 750 q 188 810 199 794 q 147 825 178 825 q 117 824 135 825 q 100 822 100 822 l 97 828 l 107 889 q 123 888 107 889 q 164 887 139 888 q 215 885 189 886 q 261 885 242 885 q 308 885 279 885 q 365 888 336 886 q 413 890 393 889 q 432 890 432 890 q 636 832 561 890 q 711 672 711 774 q 658 519 711 589 q 507 406 604 450 l 660 164 q 738 72 700 99 q 832 46 776 46 l 838 40 l 829 -7 l 711 -22 m 446 443 q 469 452 446 443 q 521 483 492 461 q 573 546 550 506 q 596 647 596 586 q 533 785 596 739 q 342 831 469 831 q 323 824 328 831 q 317 799 318 818 q 308 610 311 689 q 303 457 304 531 l 446 443 m 417 -267 q 358 -242 378 -267 q 339 -187 339 -218 q 363 -126 339 -151 q 425 -101 386 -101 q 484 -125 464 -101 q 504 -181 504 -149 q 481 -241 504 -215 q 417 -267 457 -267 z "},"Ȓ":{"ha":849,"x_min":79,"x_max":838,"o":"m 711 -22 q 637 14 676 -22 q 564 110 597 50 l 415 379 l 300 379 l 296 172 q 302 98 296 122 q 330 66 308 74 q 396 58 351 58 l 399 53 l 386 -6 q 372 -5 386 -6 q 337 -3 358 -4 q 290 -2 315 -3 q 239 -1 264 -1 q 167 -1 204 0 q 105 -4 131 -3 q 79 -6 79 -6 l 92 57 q 177 85 157 64 q 197 167 197 107 l 199 750 q 188 810 199 794 q 147 825 178 825 q 117 824 135 825 q 100 822 100 822 l 97 828 l 107 889 q 123 888 107 889 q 164 887 139 888 q 215 885 189 886 q 261 885 242 885 q 308 885 279 885 q 365 888 336 886 q 413 890 393 889 q 432 890 432 890 q 636 832 561 890 q 711 672 711 774 q 658 519 711 589 q 507 406 604 450 l 660 164 q 738 72 700 99 q 832 46 776 46 l 838 40 l 829 -7 l 711 -22 m 446 443 q 469 452 446 443 q 521 483 492 461 q 573 546 550 506 q 596 647 596 586 q 533 785 596 739 q 342 831 469 831 q 323 824 328 831 q 317 799 318 818 q 308 610 311 689 q 303 457 304 531 l 446 443 m 411 1096 q 332 1073 368 1096 q 278 1004 296 1050 l 267 1004 l 244 1018 q 275 1094 254 1058 q 330 1153 296 1131 q 411 1176 364 1176 q 493 1153 460 1176 q 547 1094 526 1131 q 578 1018 568 1058 l 556 1004 l 544 1004 q 491 1073 526 1050 q 411 1096 456 1096 z "},"Ṟ":{"ha":849,"x_min":79,"x_max":838,"o":"m 711 -22 q 637 14 676 -22 q 564 110 597 50 l 415 379 l 300 379 l 296 172 q 302 98 296 122 q 330 66 308 74 q 396 58 351 58 l 399 53 l 386 -6 q 372 -5 386 -6 q 337 -3 358 -4 q 290 -2 315 -3 q 239 -1 264 -1 q 167 -1 204 0 q 105 -4 131 -3 q 79 -6 79 -6 l 92 57 q 177 85 157 64 q 197 167 197 107 l 199 750 q 188 810 199 794 q 147 825 178 825 q 117 824 135 825 q 100 822 100 822 l 97 828 l 107 889 q 123 888 107 889 q 164 887 139 888 q 215 885 189 886 q 261 885 242 885 q 308 885 279 885 q 365 888 336 886 q 413 890 393 889 q 432 890 432 890 q 636 832 561 890 q 711 672 711 774 q 658 519 711 589 q 507 406 604 450 l 660 164 q 738 72 700 99 q 832 46 776 46 l 838 40 l 829 -7 l 711 -22 m 446 443 q 469 452 446 443 q 521 483 492 461 q 573 546 550 506 q 596 647 596 586 q 533 785 596 739 q 342 831 469 831 q 323 824 328 831 q 317 799 318 818 q 308 610 311 689 q 303 457 304 531 l 446 443 m 225 -226 l 217 -214 l 231 -151 q 252 -151 231 -151 q 307 -152 274 -151 q 377 -153 340 -153 q 444 -153 414 -153 q 521 -151 479 -153 q 593 -147 563 -149 q 624 -144 624 -144 l 632 -158 l 622 -224 l 425 -225 q 338 -225 385 -225 q 258 -226 290 -225 q 225 -226 225 -226 z "}}}
